<?xml version="1.0" encoding="UTF-8"?>
<svg width="434px" height="176px" viewBox="0 0 434 176" version="1.1" xmlns="http://www.w3.org/2000/svg" xmlns:xlink="http://www.w3.org/1999/xlink">
    <!-- Generator: Sketch 47.1 (45422) - http://www.bohemiancoding.com/sketch -->
    <title>Group</title>
    <desc>Created with Sketch.</desc>
    <defs>
        <polygon id="path-1" points="0.06 176 433.342 176 433.342 0.582 0.06 0.582"></polygon>
    </defs>
    <g id="Page-1" stroke="none" stroke-width="1" fill="none" fill-rule="evenodd">
        <g id="Group">
            <g id="ICE-CUBE-LOGO">
                <g id="Group-4">
                    <mask id="mask-2" fill="white">
                        <use xlink:href="#path-1"></use>
                    </mask>
                    <g id="Clip-2"></g>
                    <path d="M44.34,26.086 C33.816,26.086 25.254,34.649 25.254,45.187 L25.254,96.821 C25.254,107.335 33.816,115.898 44.34,115.898 L389.002,115.898 C399.525,115.898 408.088,107.335 408.088,96.821 L408.088,45.187 C408.088,34.649 399.525,26.086 389.002,26.086 L44.34,26.086 Z M37.397,171.018 C19.532,171.018 4.983,156.478 4.983,138.603 L4.983,37.979 C4.983,20.09 19.532,5.55 37.397,5.55 L395.944,5.55 C413.818,5.55 428.359,20.09 428.359,37.979 L428.359,138.603 C428.359,156.478 413.818,171.018 395.944,171.018 L37.397,171.018 Z" id="Fill-1" fill="#FFFFFE" mask="url(#mask-2)"></path>
                    <path d="M44.34,110.915 C36.563,110.915 30.227,104.588 30.227,96.821 L30.227,45.183 C30.227,37.406 36.563,31.069 44.34,31.069 L388.992,31.069 C396.778,31.069 403.115,37.406 403.115,45.183 L403.115,96.821 C403.115,104.588 396.778,110.915 388.992,110.915 L44.34,110.915 Z M395.936,0.582 L37.397,0.582 C16.776,0.582 0,17.353 0,37.979 L0,138.594 C0,159.225 16.776,176 37.397,176 L395.936,176 C416.557,176 433.342,159.225 433.342,138.594 L433.342,37.979 C433.342,17.353 416.557,0.582 395.936,0.582 L395.936,0.582 Z M44.34,120.872 L388.992,120.872 C402.225,120.872 413.061,110.044 413.061,96.821 L413.061,45.183 C413.061,31.955 402.225,21.118 388.992,21.118 L44.34,21.118 C31.117,21.118 20.281,31.955 20.281,45.183 L20.281,96.821 C20.281,110.044 31.117,120.872 44.34,120.872 L44.34,120.872 Z M395.936,10.528 C411.043,10.528 423.386,22.884 423.386,37.979 L423.386,138.594 C423.386,153.703 411.043,166.045 395.936,166.045 L37.397,166.045 C22.298,166.045 9.946,153.703 9.946,138.594 L9.946,37.979 C9.946,22.884 22.298,10.528 37.397,10.528 L395.936,10.528 L395.936,10.528 Z" id="Fill-3" fill="#0070AD" mask="url(#mask-2)"></path>
                </g>
                <path d="M389.002,21.118 L44.35,21.118 C31.117,21.118 20.281,31.955 20.281,45.183 L20.281,96.821 C20.281,110.035 31.117,120.862 44.35,120.862 L389.002,120.862 C402.225,120.862 413.061,110.035 413.061,96.821 L413.061,45.183 C413.061,31.955 402.225,21.118 389.002,21.118" id="Fill-5" fill="#0070AD"></path>
                <path d="M400.88,49.222 C400.88,39.096 392.648,30.86 382.531,30.86 L353.13,30.86 C343.014,30.86 334.791,39.096 334.791,49.222 L334.791,77.293 C334.791,87.415 343.014,95.646 353.13,95.646 L382.531,95.646 C392.648,95.646 400.88,87.415 400.88,77.293 L400.88,49.222 Z M394.098,77.293 C394.098,83.673 388.906,88.864 382.531,88.864 L353.13,88.864 C346.755,88.864 341.573,83.673 341.573,77.293 L341.573,49.222 C341.573,42.843 346.755,37.652 353.13,37.652 L382.531,37.652 C388.906,37.652 394.098,42.843 394.098,49.222 L394.098,77.293 L394.098,77.293 Z" id="Fill-6" fill="#A0CCE3"></path>
                <path d="M386.965,58.974 C386.965,48.162 378.184,39.362 367.376,39.362 L337.992,39.362 C327.185,39.362 318.395,48.162 318.395,58.974 L318.395,87.045 C318.395,97.854 327.185,106.634 337.992,106.634 L367.376,106.634 C378.184,106.634 386.965,97.854 386.965,87.045 L386.965,58.974 Z M377.701,87.045 C377.701,92.739 373.068,97.371 367.376,97.371 L337.992,97.371 C332.3,97.371 327.658,92.739 327.658,87.045 L327.658,58.974 C327.658,53.272 332.3,48.635 337.992,48.635 L367.376,48.635 C373.068,48.635 377.701,53.272 377.701,58.974 L377.701,87.045 L377.701,87.045 Z" id="Fill-7" fill="#FFFFFE"></path>
                <polyline id="Fill-8" fill="#FFFFFE" points="43.621 51.112 54.476 51.112 46.112 91.384 35.247 91.384 43.621 51.112"></polyline>
                <path d="M93.151,60.807 C89.741,58.846 86.502,58.382 83.102,58.382 C72.313,58.382 67.983,65.998 67.983,73.609 C67.983,80.77 72.54,84.128 79.009,84.128 C82.874,84.128 86.388,83.313 89.211,81.864 L88.074,90.532 C85.47,91.384 80.97,92.085 77.333,92.085 C64.346,92.085 56.892,84.413 56.892,73.33 C56.892,59.936 66.307,50.407 81.434,50.407 C89.173,50.407 93.492,51.747 95.681,52.542 L93.151,60.807" id="Fill-9" fill="#FFFFFE"></path>
                <polyline id="Fill-10" fill="#FFFFFE" points="101.165 51.112 129.516 51.112 127.953 58.723 110.23 58.723 108.383 67.04 125.187 67.04 123.501 74.661 106.772 74.661 104.803 83.768 123.226 83.768 121.654 91.384 92.517 91.384 101.165 51.112"></polyline>
                <path d="M184.569,60.807 C181.178,58.846 177.938,58.382 174.538,58.382 C163.739,58.382 159.411,65.998 159.411,73.609 C159.411,80.77 163.967,84.128 170.427,84.128 C174.311,84.128 177.815,83.313 180.638,81.864 L179.492,90.532 C176.887,91.384 172.397,92.085 168.76,92.085 C155.773,92.085 148.318,84.413 148.318,73.33 C148.318,59.936 157.743,50.407 172.861,50.407 C180.591,50.407 184.92,51.747 187.107,52.542 L184.569,60.807" id="Fill-11" fill="#FFFFFE"></path>
                <path d="M223.302,69.858 C220.649,82.688 217.533,92.085 202.879,92.085 C193.805,92.085 186.71,88.845 186.71,79.387 C186.71,76.214 187.174,73.614 187.581,71.762 L192.138,51.112 L203.05,51.112 L198.2,73.917 C197.792,75.807 197.451,77.36 197.451,78.288 C197.451,81.571 199.346,84.119 203.163,84.119 C210.088,84.119 211.187,75.807 212.569,69.356 L216.548,51.112 L227.242,51.112 L223.302,69.858" id="Fill-12" fill="#FFFFFE"></path>
                <path d="M239.812,74.31 L242.407,74.31 C247.257,74.31 249.796,74.835 249.796,78.355 C249.796,82.262 246.168,83.768 240.73,83.768 L237.842,83.768 L239.812,74.31 Z M225.622,91.384 L243.961,91.166 C253.196,91.052 260.527,87.007 260.527,78.463 C260.527,74.021 257.346,71.359 252.742,70.663 L252.742,70.554 C259.088,69.811 263.303,65.756 263.303,60.343 C263.303,52.718 256.086,51.107 251.937,51.107 L234.043,51.107 L225.622,91.384 Z M243.108,58.723 L245.874,58.723 C249.919,58.723 252.562,59.244 252.562,62.474 C252.562,65.249 249.919,67.035 245.4,67.035 L241.375,67.035 L243.108,58.723 L243.108,58.723 Z" id="Fill-13" fill="#FFFFFE"></path>
                <polyline id="Fill-14" fill="#FFFFFE" points="272.775 51.112 301.117 51.112 299.545 58.723 281.831 58.723 279.984 67.04 296.778 67.04 295.102 74.661 278.364 74.661 276.403 83.768 294.809 83.768 293.265 91.384 264.118 91.384 272.775 51.112"></polyline>
                <polyline id="Fill-15" fill="#0070AD" points="298.56 130.713 304.508 130.713 300.861 148.322 310.03 148.322 309.131 152.651 293.994 152.651 298.56 130.713"></polyline>
                <polyline id="Fill-16" fill="#0070AD" points="316.197 130.713 331.646 130.713 330.775 134.862 321.142 134.862 320.118 139.399 329.278 139.399 328.359 143.539 319.247 143.539 318.195 148.521 328.208 148.521 327.365 152.651 311.489 152.651 316.197 130.713"></polyline>
                <polyline id="Fill-17" fill="#0070AD" points="335.406 130.713 350.837 130.713 349.994 134.862 340.332 134.862 339.338 139.399 348.479 139.399 347.569 143.539 338.447 143.539 337.387 148.521 347.428 148.521 346.574 152.651 330.689 152.651 335.406 130.713"></polyline>
                <path d="M349.891,152.651 L359.362,152.651 C367.604,152.651 373.354,148.71 373.354,139.522 C373.354,133.668 369.138,130.713 362.166,130.713 L354.56,130.713 L349.891,152.651 Z M359.514,135.051 L360.973,135.051 C364.544,135.051 367.31,135.904 367.31,139.92 C367.31,144.012 365.103,148.322 359.344,148.322 L356.758,148.322 L359.514,135.051 L359.514,135.051 Z" id="Fill-18" fill="#0070AD"></path>
                <path d="M392.222,135.676 C391.095,135.156 389.541,134.682 387.372,134.682 C385.052,134.682 383.157,135.023 383.157,136.785 C383.157,139.901 391.682,138.746 391.682,145.395 C391.682,151.457 386.056,153.049 380.969,153.049 C378.695,153.049 376.1,152.499 374.168,151.912 L375.551,147.441 C376.716,148.199 379.046,148.71 380.969,148.71 C382.787,148.71 385.639,148.351 385.639,146.096 C385.639,142.573 377.123,143.899 377.123,137.685 C377.123,132.04 382.096,130.334 386.898,130.334 C389.598,130.334 392.137,130.619 393.633,131.319 L392.222,135.676" id="Fill-19" fill="#0070AD"></path>
            </g>
        </g>
    </g>
</svg>