<?xml version="1.0" encoding="UTF-8" standalone="no"?>
<svg width="163px" height="163px" viewBox="0 0 163 163" version="1.1" xmlns="http://www.w3.org/2000/svg" xmlns:xlink="http://www.w3.org/1999/xlink">
    <!-- Generator: Sketch 42 (36781) - http://www.bohemiancoding.com/sketch -->
    <title>Group 2</title>
    <desc>Created with Sketch.</desc>
    <defs>
        <path d="M0,7.99986275 C0,3.58166055 3.57524125,0 7.99986275,0 L155.000137,0 C159.418339,0 163,3.57524125 163,7.99986275 L163,155.000137 C163,159.418339 159.410322,163 154.990695,163 L105.615166,163 L8.00328036,163 C3.58319067,163 0,159.424759 0,155.000137 L0,7.99986275 Z" id="path-1"></path>
        <mask id="mask-2" maskContentUnits="userSpaceOnUse" maskUnits="objectBoundingBox" x="0" y="0" width="163" height="163" fill="white">
            <use xlink:href="#path-1"></use>
        </mask>
    </defs>
    <g id="Welcome" stroke="none" stroke-width="1" fill="none" fill-rule="evenodd">
        <g id="Desktop" transform="translate(-640.000000, -43.000000)">
            <g id="Group-2" transform="translate(640.000000, 43.000000)">
                <use id="Rectangle-2" stroke="#FFFFFF" mask="url(#mask-2)" stroke-width="6" fill-opacity="0" fill="#D8D8D8" xlink:href="#path-1"></use>
                <g id="Group-3" transform="translate(37.000000, 40.000000)" fill="#FFFFFF">
                    <path d="M1.752,0.632 L6.744,0.632 L6.744,23 L1.752,23 L1.752,0.632 Z M24.52,18.584 C26.9733456,18.584 28.9786589,17.613343 30.536,15.672 L33.736,18.968 C31.1973206,21.826681 28.2053506,23.256 24.76,23.256 C21.3146494,23.256 18.4773445,22.1680109 16.248,19.992 C14.0186555,17.8159891 12.904,15.0693499 12.904,11.752 C12.904,8.43465008 14.0399886,5.66667776 16.312,3.448 C18.5840114,1.22932224 21.3626502,0.12 24.648,0.12 C28.3173517,0.12 31.389321,1.51731936 33.864,4.312 L30.76,7.832 C29.1813254,5.86932352 27.2186784,4.888 24.872,4.888 C22.9946573,4.888 21.38934,5.5013272 20.056,6.728 C18.72266,7.9546728 18.056,9.6079896 18.056,11.688 C18.056,13.7680104 18.685327,15.437327 19.944,16.696 C21.202673,17.954673 22.727991,18.584 24.52,18.584 Z M55.8,0.632 L55.8,5.08 L44.664,5.08 L44.664,9.688 L54.68,9.688 L54.68,13.944 L44.664,13.944 L44.664,18.584 L56.152,18.584 L56.152,23 L39.672,23 L39.672,0.632 L55.8,0.632 Z" id="ICE"></path>
                    <path d="M12.024,52.584 C14.4773456,52.584 16.4826589,51.613343 18.04,49.672 L21.24,52.968 C18.7013206,55.826681 15.7093506,57.256 12.264,57.256 C8.81864944,57.256 5.98134448,56.1680109 3.752,53.992 C1.52265552,51.8159891 0.408,49.0693499 0.408,45.752 C0.408,42.4346501 1.54398864,39.6666778 3.816,37.448 C6.08801136,35.2293222 8.86665024,34.12 12.152,34.12 C15.8213517,34.12 18.893321,35.5173194 21.368,38.312 L18.264,41.832 C16.6853254,39.8693235 14.7226784,38.888 12.376,38.888 C10.4986573,38.888 8.89334,39.5013272 7.56,40.728 C6.22666,41.9546728 5.56,43.6079896 5.56,45.688 C5.56,47.7680104 6.18932704,49.437327 7.448,50.696 C8.70667296,51.954673 10.231991,52.584 12.024,52.584 Z M34.456,52.776 C35.864007,52.776 36.9786626,52.2586718 37.8,51.224 C38.6213374,50.1893282 39.032,48.776009 39.032,46.984 L39.032,34.632 L44.024,34.632 L44.024,47.144 C44.024,50.3866829 43.128009,52.8773246 41.336,54.616 C39.543991,56.3546754 37.2506806,57.224 34.456,57.224 C31.6613194,57.224 29.3626757,56.3493421 27.56,54.6 C25.7573243,52.8506579 24.856,50.3653494 24.856,47.144 L24.856,34.632 L29.848,34.632 L29.848,46.984 C29.848,48.776009 30.2639958,50.1893282 31.096,51.224 C31.9280042,52.2586718 33.047993,52.776 34.456,52.776 Z M59,57 L49.208,57 L49.208,34.632 L57.912,34.632 C59.4266742,34.632 60.7333278,34.8133315 61.832,35.176 C62.9306722,35.5386685 63.7573306,36.0293302 64.312,36.648 C65.3146717,37.8000058 65.816,39.1013261 65.816,40.552 C65.816,42.3013421 65.2506723,43.6026624 64.12,44.456 C63.7359981,44.7546682 63.4693341,44.941333 63.32,45.016 C63.1706659,45.090667 62.9040019,45.2133325 62.52,45.384 C63.9066736,45.6826682 65.0106626,46.3066619 65.832,47.256 C66.6533374,48.2053381 67.064,49.383993 67.064,50.792 C67.064,52.3493411 66.530672,53.7253274 65.464,54.92 C64.2266605,56.3066736 62.0720154,57 59,57 Z M54.2,43.688 L56.568,43.688 C57.9546736,43.688 58.9839966,43.5386682 59.656,43.24 C60.3280034,42.9413318 60.664,42.296005 60.664,41.304 C60.664,40.311995 60.3546698,39.6560016 59.736,39.336 C59.1173302,39.0159984 58.0720074,38.856 56.6,38.856 L54.2,38.856 L54.2,43.688 Z M54.2,52.776 L57.624,52.776 C59.0533405,52.776 60.1253298,52.6000018 60.84,52.248 C61.5546702,51.8959982 61.912,51.2026718 61.912,50.168 C61.912,49.1333282 61.5333371,48.4506683 60.776,48.12 C60.0186629,47.7893317 58.8080083,47.624 57.144,47.624 L54.2,47.624 L54.2,52.776 Z M87.384,34.632 L87.384,39.08 L76.248,39.08 L76.248,43.688 L86.264,43.688 L86.264,47.944 L76.248,47.944 L76.248,52.584 L87.736,52.584 L87.736,57 L71.256,57 L71.256,34.632 L87.384,34.632 Z" id="CUBE"></path>
                    <path d="M0.746,82 L0.746,69.418 L2.87,69.418 L2.87,79.984 L8.612,79.984 L8.612,82 L0.746,82 Z M27.772,69.418 L27.772,71.416 L21.058,71.416 L21.058,74.746 L27.088,74.746 L27.088,76.636 L21.058,76.636 L21.058,80.002 L27.988,80.002 L27.988,82 L18.934,82 L18.934,69.418 L27.772,69.418 Z M47.544,69.418 L47.544,71.416 L40.83,71.416 L40.83,74.746 L46.86,74.746 L46.86,76.636 L40.83,76.636 L40.83,80.002 L47.76,80.002 L47.76,82 L38.706,82 L38.706,69.418 L47.544,69.418 Z M68,71.065 C69.2120061,72.1630055 69.818,73.6899902 69.818,75.646 C69.818,77.6020098 69.2300059,79.1499943 68.054,80.29 C66.8779941,81.4300057 65.0780121,82 62.654,82 L58.478,82 L58.478,69.418 L62.798,69.418 C65.0540113,69.418 66.7879939,69.9669945 68,71.065 Z M67.676,75.7 C67.676,72.8199856 66.0260165,71.38 62.726,71.38 L60.602,71.38 L60.602,80.002 L62.96,80.002 C64.4840076,80.002 65.650996,79.6390036 66.461,78.913 C67.2710041,78.1869964 67.676,77.1160071 67.676,75.7 Z M82.84,71.452 C82.443998,71.7040013 82.246,72.0849974 82.246,72.595 C82.246,73.1050025 82.443998,73.4949986 82.84,73.765 C83.236002,74.0350013 84.0789936,74.3259984 85.369,74.638 C86.6590065,74.9500016 87.6309967,75.3879972 88.285,75.952 C88.9390033,76.5160028 89.266,77.3469945 89.266,78.445 C89.266,79.5430055 88.8520041,80.4339966 88.024,81.118 C87.1959959,81.8020034 86.1100067,82.144 84.766,82.144 C82.7979902,82.144 81.0520076,81.4660068 79.528,80.11 L80.86,78.508 C82.1320064,79.6120055 83.4519932,80.164 84.82,80.164 C85.5040034,80.164 86.046998,80.0170015 86.449,79.723 C86.851002,79.4289985 87.052,79.0390024 87.052,78.553 C87.052,78.0669976 86.8630019,77.6890013 86.485,77.419 C86.1069981,77.1489986 85.4560046,76.9030011 84.532,76.681 C83.6079954,76.4589989 82.9060024,76.2550009 82.426,76.069 C81.9459976,75.8829991 81.5200019,75.6400015 81.148,75.34 C80.4039963,74.7759972 80.032,73.9120058 80.032,72.748 C80.032,71.5839942 80.4549958,70.6870031 81.301,70.057 C82.1470042,69.4269968 83.1939938,69.112 84.442,69.112 C85.246004,69.112 86.043996,69.2439987 86.836,69.508 C87.628004,69.7720013 88.3119971,70.1439976 88.888,70.624 L87.754,72.226 C87.3819981,71.8899983 86.8780032,71.6140011 86.242,71.398 C85.6059968,71.1819989 84.9790031,71.074 84.361,71.074 C83.7429969,71.074 83.236002,71.1999987 82.84,71.452 Z" id="LEEDS"></path>
                </g>
            </g>
        </g>
    </g>
</svg>