<?xml version="1.0" encoding="UTF-8" standalone="no"?>
<svg width="163px" height="163px" viewBox="0 0 163 163" version="1.1" xmlns="http://www.w3.org/2000/svg" xmlns:xlink="http://www.w3.org/1999/xlink">
    <!-- Generator: Sketch 42 (36781) - http://www.bohemiancoding.com/sketch -->
    <title>Group 2</title>
    <desc>Created with Sketch.</desc>
    <defs>
        <path d="M0,7.99986275 C0,3.58166055 3.57524125,0 7.99986275,0 L155.000137,0 C159.418339,0 163,3.57524125 163,7.99986275 L163,155.000137 C163,159.418339 159.410322,163 154.990695,163 L105.615166,163 L8.00328036,163 C3.58319067,163 0,159.424759 0,155.000137 L0,7.99986275 Z" id="path-1"></path>
        <mask id="mask-2" maskContentUnits="userSpaceOnUse" maskUnits="objectBoundingBox" x="0" y="0" width="163" height="163" fill="white">
            <use xlink:href="#path-1"></use>
        </mask>
    </defs>
    <g id="Welcome" stroke="none" stroke-width="1" fill="none" fill-rule="evenodd">
        <g id="Desktop" transform="translate(-722.000000, -349.000000)">
            <g id="Group-2" transform="translate(722.000000, 349.000000)">
                <use id="Rectangle-2" stroke="#D3D9E0" mask="url(#mask-2)" stroke-width="6" fill-opacity="0" fill="#D8D8D8" xlink:href="#path-1"></use>
                <path d="M39.752,37.632 L44.744,37.632 L44.744,60 L39.752,60 L39.752,37.632 Z M62.52,55.584 C64.9733456,55.584 66.9786589,54.613343 68.536,52.672 L71.736,55.968 C69.1973206,58.826681 66.2053506,60.256 62.76,60.256 C59.3146494,60.256 56.4773445,59.1680109 54.248,56.992 C52.0186555,54.8159891 50.904,52.0693499 50.904,48.752 C50.904,45.4346501 52.0399886,42.6666778 54.312,40.448 C56.5840114,38.2293222 59.3626502,37.12 62.648,37.12 C66.3173517,37.12 69.389321,38.5173194 71.864,41.312 L68.76,44.832 C67.1813254,42.8693235 65.2186784,41.888 62.872,41.888 C60.9946573,41.888 59.38934,42.5013272 58.056,43.728 C56.72266,44.9546728 56.056,46.6079896 56.056,48.688 C56.056,50.7680104 56.685327,52.437327 57.944,53.696 C59.202673,54.954673 60.727991,55.584 62.52,55.584 Z M93.8,37.632 L93.8,42.08 L82.664,42.08 L82.664,46.688 L92.68,46.688 L92.68,50.944 L82.664,50.944 L82.664,55.584 L94.152,55.584 L94.152,60 L77.672,60 L77.672,37.632 L93.8,37.632 Z" id="ICE" fill="#D2D9E0"></path>
                <path d="M50.024,89.584 C52.4773456,89.584 54.4826589,88.613343 56.04,86.672 L59.24,89.968 C56.7013206,92.826681 53.7093506,94.256 50.264,94.256 C46.8186494,94.256 43.9813445,93.1680109 41.752,90.992 C39.5226555,88.8159891 38.408,86.0693499 38.408,82.752 C38.408,79.4346501 39.5439886,76.6666778 41.816,74.448 C44.0880114,72.2293222 46.8666502,71.12 50.152,71.12 C53.8213517,71.12 56.893321,72.5173194 59.368,75.312 L56.264,78.832 C54.6853254,76.8693235 52.7226784,75.888 50.376,75.888 C48.4986573,75.888 46.89334,76.5013272 45.56,77.728 C44.22666,78.9546728 43.56,80.6079896 43.56,82.688 C43.56,84.7680104 44.189327,86.437327 45.448,87.696 C46.706673,88.954673 48.231991,89.584 50.024,89.584 Z M72.456,89.776 C73.864007,89.776 74.9786626,89.2586718 75.8,88.224 C76.6213374,87.1893282 77.032,85.776009 77.032,83.984 L77.032,71.632 L82.024,71.632 L82.024,84.144 C82.024,87.3866829 81.128009,89.8773246 79.336,91.616 C77.543991,93.3546754 75.2506806,94.224 72.456,94.224 C69.6613194,94.224 67.3626757,93.3493421 65.56,91.6 C63.7573243,89.8506579 62.856,87.3653494 62.856,84.144 L62.856,71.632 L67.848,71.632 L67.848,83.984 C67.848,85.776009 68.2639958,87.1893282 69.096,88.224 C69.9280042,89.2586718 71.047993,89.776 72.456,89.776 Z M97,94 L87.208,94 L87.208,71.632 L95.912,71.632 C97.4266742,71.632 98.7333278,71.8133315 99.832,72.176 C100.930672,72.5386685 101.757331,73.0293302 102.312,73.648 C103.314672,74.8000058 103.816,76.1013261 103.816,77.552 C103.816,79.3013421 103.250672,80.6026624 102.12,81.456 C101.735998,81.7546682 101.469334,81.941333 101.32,82.016 C101.170666,82.090667 100.904002,82.2133325 100.52,82.384 C101.906674,82.6826682 103.010663,83.3066619 103.832,84.256 C104.653337,85.2053381 105.064,86.383993 105.064,87.792 C105.064,89.3493411 104.530672,90.7253274 103.464,91.92 C102.22666,93.3066736 100.072015,94 97,94 Z M92.2,80.688 L94.568,80.688 C95.9546736,80.688 96.9839966,80.5386682 97.656,80.24 C98.3280034,79.9413318 98.664,79.296005 98.664,78.304 C98.664,77.311995 98.3546698,76.6560016 97.736,76.336 C97.1173302,76.0159984 96.0720074,75.856 94.6,75.856 L92.2,75.856 L92.2,80.688 Z M92.2,89.776 L95.624,89.776 C97.0533405,89.776 98.1253298,89.6000018 98.84,89.248 C99.5546702,88.8959982 99.912,88.2026718 99.912,87.168 C99.912,86.1333282 99.5333371,85.4506683 98.776,85.12 C98.0186629,84.7893317 96.8080083,84.624 95.144,84.624 L92.2,84.624 L92.2,89.776 Z M125.384,71.632 L125.384,76.08 L114.248,76.08 L114.248,80.688 L124.264,80.688 L124.264,84.944 L114.248,84.944 L114.248,89.584 L125.736,89.584 L125.736,94 L109.256,94 L109.256,71.632 L125.384,71.632 Z" id="CUBE" fill="#D2D9E0"></path>
                <path d="M38.746,119 L38.746,106.418 L40.87,106.418 L40.87,116.984 L46.612,116.984 L46.612,119 L38.746,119 Z M65.772,106.418 L65.772,108.416 L59.058,108.416 L59.058,111.746 L65.088,111.746 L65.088,113.636 L59.058,113.636 L59.058,117.002 L65.988,117.002 L65.988,119 L56.934,119 L56.934,106.418 L65.772,106.418 Z M85.544,106.418 L85.544,108.416 L78.83,108.416 L78.83,111.746 L84.86,111.746 L84.86,113.636 L78.83,113.636 L78.83,117.002 L85.76,117.002 L85.76,119 L76.706,119 L76.706,106.418 L85.544,106.418 Z M106,108.065 C107.212006,109.163005 107.818,110.68999 107.818,112.646 C107.818,114.60201 107.230006,116.149994 106.054,117.29 C104.877994,118.430006 103.078012,119 100.654,119 L96.478,119 L96.478,106.418 L100.798,106.418 C103.054011,106.418 104.787994,106.966995 106,108.065 Z M105.676,112.7 C105.676,109.819986 104.026017,108.38 100.726,108.38 L98.602,108.38 L98.602,117.002 L100.96,117.002 C102.484008,117.002 103.650996,116.639004 104.461,115.913 C105.271004,115.186996 105.676,114.116007 105.676,112.7 Z M120.84,108.452 C120.443998,108.704001 120.246,109.084997 120.246,109.595 C120.246,110.105003 120.443998,110.494999 120.84,110.765 C121.236002,111.035001 122.078994,111.325998 123.369,111.638 C124.659006,111.950002 125.630997,112.387997 126.285,112.952 C126.939003,113.516003 127.266,114.346995 127.266,115.445 C127.266,116.543005 126.852004,117.433997 126.024,118.118 C125.195996,118.802003 124.110007,119.144 122.766,119.144 C120.79799,119.144 119.052008,118.466007 117.528,117.11 L118.86,115.508 C120.132006,116.612006 121.451993,117.164 122.82,117.164 C123.504003,117.164 124.046998,117.017001 124.449,116.723 C124.851002,116.428999 125.052,116.039002 125.052,115.553 C125.052,115.066998 124.863002,114.689001 124.485,114.419 C124.106998,114.148999 123.456005,113.903001 122.532,113.681 C121.607995,113.458999 120.906002,113.255001 120.426,113.069 C119.945998,112.882999 119.520002,112.640001 119.148,112.34 C118.403996,111.775997 118.032,110.912006 118.032,109.748 C118.032,108.583994 118.454996,107.687003 119.301,107.057 C120.147004,106.426997 121.193994,106.112 122.442,106.112 C123.246004,106.112 124.043996,106.243999 124.836,106.508 C125.628004,106.772001 126.311997,107.143998 126.888,107.624 L125.754,109.226 C125.381998,108.889998 124.878003,108.614001 124.242,108.398 C123.605997,108.181999 122.979003,108.074 122.361,108.074 C121.742997,108.074 121.236002,108.199999 120.84,108.452 Z" id="LEEDS" fill="#D2D9E0"></path>
            </g>
        </g>
    </g>
</svg>