<?xml version="1.0" encoding="UTF-8"?>
<svg width="1399px" height="256px" viewBox="0 0 1399 256" version="1.1" xmlns="http://www.w3.org/2000/svg" xmlns:xlink="http://www.w3.org/1999/xlink">
    <!-- Generator: Sketch 42 (36781) - http://www.bohemiancoding.com/sketch -->
    <title>Group 326</title>
    <desc>Created with Sketch.</desc>
    <defs>
        <rect id="path-1" x="0" y="0" width="1400" height="256"></rect>
    </defs>
    <g id="Page-1" stroke="none" stroke-width="1" fill="none" fill-rule="evenodd">
        <g id="Group-326" transform="translate(-1.000000, 0.000000)">
            <g id="Group">
                <mask id="mask-2" fill="white">
                    <use xlink:href="#path-1"></use>
                </mask>
                <g id="Mask"></g>
                <g id="Group-326" opacity="0.25" mask="url(#mask-2)" fill="#FFFFFF">
                    <g transform="translate(856.000000, -274.000000)">
                        <path d="M90.7067731,543.151009 L90.7067731,531.795109 C90.7067731,531.399915 91.0116011,531.080902 91.3926361,531.080902 L102.290236,531.080902 C102.671271,531.080902 102.966573,531.399915 102.966573,531.795109 L102.966573,543.151009 C102.966573,543.546204 102.671271,543.865216 102.290236,543.865216 L91.3926361,543.865216 C91.0116011,543.865216 90.7067731,543.546204 90.7067731,543.151009 L90.7067731,543.151009 Z M86.2915305,490.999576 C86.2915305,491.399532 85.9867025,491.723306 85.6009046,491.723306 L74.7080676,491.723306 C74.3317955,491.723306 74.0269676,491.399532 74.0269676,490.999576 L74.0269676,479.657961 C74.0269676,479.253243 74.3317955,478.93423 74.7080676,478.93423 L85.6009046,478.93423 C85.9867025,478.93423 86.2915305,479.253243 86.2915305,479.657961 L86.2915305,490.999576 Z M86.2915305,508.388148 C86.2915305,508.778582 85.9867025,509.107117 85.6009046,509.107117 L74.7080676,509.107117 C74.3317955,509.107117 74.0269676,508.778582 74.0269676,508.388148 L74.0269676,497.032249 C74.0269676,496.641815 74.3317955,496.318041 74.7080676,496.318041 L85.6009046,496.318041 C85.9867025,496.318041 86.2915305,496.641815 86.2915305,497.032249 L86.2915305,508.388148 Z M86.2915305,525.771959 C86.2915305,526.162393 85.9867025,526.486167 85.6009046,526.486167 L74.7080676,526.486167 C74.3317955,526.486167 74.0269676,526.162393 74.0269676,525.771959 L74.0269676,514.41606 C74.0269676,514.025626 74.3317955,513.697091 74.7080676,513.697091 L85.6009046,513.697091 C85.9867025,513.697091 86.2915305,514.025626 86.2915305,514.41606 L86.2915305,525.771959 Z M86.2915305,543.151009 C86.2915305,543.546204 85.9867025,543.865216 85.6009046,543.865216 L74.7080676,543.865216 C74.3317955,543.865216 74.0269676,543.546204 74.0269676,543.151009 L74.0269676,531.795109 C74.0269676,531.399915 74.3317955,531.080902 74.7080676,531.080902 L85.6009046,531.080902 C85.9867025,531.080902 86.2915305,531.399915 86.2915305,531.795109 L86.2915305,543.151009 Z M88.2490976,456.76999 L107.905739,473.434832 L68.6019822,473.434832 L88.2490976,456.76999 Z M74.0269676,433.129721 C74.0269676,432.725004 74.3317955,432.40123 74.7080676,432.40123 L85.6009046,432.40123 C85.9867025,432.40123 86.2915305,432.725004 86.2915305,433.129721 L86.2915305,444.471337 C86.2915305,444.866532 85.9867025,445.199828 85.6009046,445.199828 L74.7080676,445.199828 C74.3317955,445.199828 74.0269676,444.866532 74.0269676,444.471337 L74.0269676,433.129721 Z M74.0269676,415.736388 C74.0269676,415.345954 74.3317955,415.02218 74.7080676,415.02218 L85.6009046,415.02218 C85.9867025,415.02218 86.2915305,415.345954 86.2915305,415.736388 L86.2915305,427.097049 C86.2915305,427.492243 85.9867025,427.806495 85.6009046,427.806495 L74.7080676,427.806495 C74.3317955,427.806495 74.0269676,427.492243 74.0269676,427.097049 L74.0269676,415.736388 Z M74.0269676,398.357338 C74.0269676,397.966905 74.3317955,397.647892 74.7080676,397.647892 L85.6009046,397.647892 C85.9867025,397.647892 86.2915305,397.966905 86.2915305,398.357338 L86.2915305,409.713238 C86.2915305,410.103671 85.9867025,410.427445 85.6009046,410.427445 L74.7080676,410.427445 C74.3317955,410.427445 74.0269676,410.103671 74.0269676,409.713238 L74.0269676,398.357338 Z M74.0269676,380.978288 C74.0269676,380.583094 74.3317955,380.254558 74.7080676,380.254558 L85.6009046,380.254558 C85.9867025,380.254558 86.2915305,380.583094 86.2915305,380.978288 L86.2915305,392.319904 C86.2915305,392.729383 85.9867025,393.048395 85.6009046,393.048395 L74.7080676,393.048395 C74.3317955,393.048395 74.0269676,392.729383 74.0269676,392.319904 L74.0269676,380.978288 Z M90.7067731,433.129721 C90.7067731,432.725004 91.0116011,432.40123 91.3926361,432.40123 L102.290236,432.40123 C102.671271,432.40123 102.966573,432.725004 102.966573,433.129721 L102.966573,444.471337 C102.966573,444.866532 102.671271,445.199828 102.290236,445.199828 L91.3926361,445.199828 C91.0116011,445.199828 90.7067731,444.866532 90.7067731,444.471337 L90.7067731,433.129721 Z M90.7067731,415.736388 C90.7067731,415.345954 91.0116011,415.02218 91.3926361,415.02218 L102.290236,415.02218 C102.671271,415.02218 102.966573,415.345954 102.966573,415.736388 L102.966573,427.097049 C102.966573,427.492243 102.671271,427.806495 102.290236,427.806495 L91.3926361,427.806495 C91.0116011,427.806495 90.7067731,427.492243 90.7067731,427.097049 L90.7067731,415.736388 Z M90.7067731,398.357338 C90.7067731,397.966905 91.0116011,397.647892 91.3926361,397.647892 L102.290236,397.647892 C102.671271,397.647892 102.966573,397.966905 102.966573,398.357338 L102.966573,409.713238 C102.966573,410.103671 102.671271,410.427445 102.290236,410.427445 L91.3926361,410.427445 C91.0116011,410.427445 90.7067731,410.103671 90.7067731,409.713238 L90.7067731,398.357338 Z M90.7067731,380.978288 C90.7067731,380.583094 91.0116011,380.254558 91.3926361,380.254558 L102.290236,380.254558 C102.671271,380.254558 102.966573,380.583094 102.966573,380.978288 L102.966573,392.319904 C102.966573,392.729383 102.671271,393.048395 102.290236,393.048395 L91.3926361,393.048395 C91.0116011,393.048395 90.7067731,392.729383 90.7067731,392.319904 L90.7067731,380.978288 Z M92.835806,187.275686 C92.835806,187.275686 95.0077053,175.696002 109.510849,176.438778 C120.222694,176.99586 123.490069,183.352307 123.75203,189.532582 L123.23287,241.307866 L91.9498997,241.136456 L92.835806,187.275686 Z M99.9849745,104.841855 L118.655688,104.841855 L118.217498,140.347491 L99.3038745,140.347491 L99.9849745,104.841855 Z M134.011397,380.254558 C134.382906,380.254558 134.692497,380.583094 134.692497,380.978288 L134.692497,392.319904 C134.692497,392.729383 134.382906,393.048395 134.011397,393.048395 L123.11856,393.048395 C122.732762,393.048395 122.427934,392.729383 122.427934,392.319904 L122.427934,380.978288 C122.427934,380.583094 122.732762,380.254558 123.11856,380.254558 L134.011397,380.254558 Z M123.11856,432.40123 L134.011397,432.40123 C134.382906,432.40123 134.692497,432.725004 134.692497,433.129721 L134.692497,444.471337 C134.692497,444.866532 134.382906,445.199828 134.011397,445.199828 L123.11856,445.199828 C122.732762,445.199828 122.427934,444.866532 122.427934,444.471337 L122.427934,433.129721 C122.427934,432.725004 122.732762,432.40123 123.11856,432.40123 L123.11856,432.40123 Z M122.427934,409.713238 L122.427934,398.357338 C122.427934,397.966905 122.732762,397.647892 123.11856,397.647892 L134.011397,397.647892 C134.382906,397.647892 134.692497,397.966905 134.692497,398.357338 L134.692497,409.713238 C134.692497,410.103671 134.382906,410.427445 134.011397,410.427445 L123.11856,410.427445 C122.732762,410.427445 122.427934,410.103671 122.427934,409.713238 L122.427934,409.713238 Z M123.11856,415.02218 L134.011397,415.02218 C134.382906,415.02218 134.692497,415.345954 134.692497,415.736388 L134.692497,427.097049 C134.692497,427.492243 134.382906,427.806495 134.011397,427.806495 L123.11856,427.806495 C122.732762,427.806495 122.427934,427.492243 122.427934,427.097049 L122.427934,415.736388 C122.427934,415.345954 122.732762,415.02218 123.11856,415.02218 L123.11856,415.02218 Z M136.226163,456.76999 L155.878041,473.434832 L116.564758,473.434832 L136.226163,456.76999 Z M139.112503,433.129721 C139.112503,432.725004 139.412568,432.40123 139.793603,432.40123 L150.695965,432.40123 C151.072237,432.40123 151.372303,432.725004 151.372303,433.129721 L151.372303,444.471337 C151.372303,444.866532 151.072237,445.199828 150.695965,445.199828 L139.793603,445.199828 C139.412568,445.199828 139.112503,444.866532 139.112503,444.471337 L139.112503,433.129721 Z M139.112503,415.736388 C139.112503,415.345954 139.412568,415.02218 139.793603,415.02218 L150.695965,415.02218 C151.072237,415.02218 151.372303,415.345954 151.372303,415.736388 L151.372303,427.097049 C151.372303,427.492243 151.072237,427.806495 150.695965,427.806495 L139.793603,427.806495 C139.412568,427.806495 139.112503,427.492243 139.112503,427.097049 L139.112503,415.736388 Z M139.112503,398.357338 C139.112503,397.966905 139.412568,397.647892 139.793603,397.647892 L150.695965,397.647892 C151.072237,397.647892 151.372303,397.966905 151.372303,398.357338 L151.372303,409.713238 C151.372303,410.103671 151.072237,410.427445 150.695965,410.427445 L139.793603,410.427445 C139.412568,410.427445 139.112503,410.103671 139.112503,409.713238 L139.112503,398.357338 Z M139.112503,380.978288 C139.112503,380.583094 139.412568,380.254558 139.793603,380.254558 L150.695965,380.254558 C151.072237,380.254558 151.372303,380.583094 151.372303,380.978288 L151.372303,392.319904 C151.372303,392.729383 151.072237,393.048395 150.695965,393.048395 L139.793603,393.048395 C139.412568,393.048395 139.112503,392.729383 139.112503,392.319904 L139.112503,380.978288 Z M166.766115,367.160754 C167.856828,367.160754 168.861807,367.49405 169.695321,368.041609 L169.695321,367.160754 L193.686235,367.160754 L193.686235,368.17969 C194.557853,367.546426 195.629514,367.160754 196.805959,367.160754 C199.711351,367.160754 202.064242,369.398604 202.064242,372.160206 C202.064242,374.58375 200.254326,376.602577 197.844279,377.05967 C192.057311,379.164201 194.143477,381.901997 194.143477,381.901997 L194.857918,382.625727 C195.200849,382.916171 195.415182,383.330412 195.415182,383.792266 C195.415182,384.658838 194.681689,385.354 193.776731,385.354 C193.62908,385.354 193.495718,385.334954 193.362356,385.301625 L191.538151,385.301625 L195.238953,539.832325 L199.930446,539.832325 L199.930446,554.678318 L163.955982,554.678318 L163.955982,539.832325 L168.642712,539.832325 L172.348277,385.301625 L170.219244,385.301625 C170.085882,385.334954 169.947757,385.354 169.795343,385.354 C168.895148,385.354 168.156893,384.658838 168.156893,383.792266 C168.156893,383.330412 168.375988,382.916171 168.714156,382.625727 L169.43336,381.901997 C169.43336,381.901997 169.5953,381.692496 169.695321,381.330631 L169.695321,380.111717 C169.423834,379.178485 168.456958,378.050038 165.727795,377.05967 C163.317749,376.602577 161.507833,374.58375 161.507833,372.160206 C161.507833,369.398604 163.860723,367.160754 166.766115,367.160754 L166.766115,367.160754 Z M229.832165,367.160754 C230.932403,367.160754 231.927857,367.49405 232.770897,368.041609 L232.770897,367.160754 L256.752285,367.160754 L256.752285,368.17969 C257.633428,367.546426 258.700326,367.160754 259.886298,367.160754 C262.786926,367.160754 265.139817,369.398604 265.139817,372.160206 C265.139817,374.58375 263.320375,376.602577 260.910329,377.05967 C255.128123,379.164201 257.209527,381.901997 257.209527,381.901997 L257.923968,382.625727 C258.271662,382.916171 258.490757,383.330412 258.490757,383.792266 C258.490757,384.658838 257.752502,385.354 256.842781,385.354 C256.704656,385.354 256.561768,385.334954 256.423642,385.301625 L254.613726,385.301625 L258.305003,539.832325 L263.006021,539.832325 L263.006021,554.678318 L227.026795,554.678318 L227.026795,539.832325 L231.708762,539.832325 L235.414327,385.301625 L233.290057,385.301625 C233.151932,385.334954 233.013807,385.354 232.866156,385.354 C231.961198,385.354 231.227705,384.658838 231.227705,383.792266 C231.227705,383.330412 231.4468,382.916171 231.780206,382.625727 L232.504172,381.901997 C232.504172,381.901997 232.666112,381.692496 232.770897,381.330631 L232.770897,380.111717 C232.49941,379.178485 231.532533,378.050038 228.798607,377.05967 C226.393324,376.602577 224.578645,374.58375 224.578645,372.160206 C224.578645,369.398604 226.936299,367.160754 229.832165,367.160754 L229.832165,367.160754 Z M151.372303,490.999576 C151.372303,491.399532 151.072237,491.723306 150.695965,491.723306 L139.793603,491.723306 C139.412568,491.723306 139.112503,491.399532 139.112503,490.999576 L139.112503,479.657961 C139.112503,479.253243 139.412568,478.93423 139.793603,478.93423 L150.695965,478.93423 C151.072237,478.93423 151.372303,479.253243 151.372303,479.657961 L151.372303,490.999576 Z M151.372303,508.388148 C151.372303,508.778582 151.072237,509.107117 150.695965,509.107117 L139.793603,509.107117 C139.412568,509.107117 139.112503,508.778582 139.112503,508.388148 L139.112503,497.032249 C139.112503,496.641815 139.412568,496.318041 139.793603,496.318041 L150.695965,496.318041 C151.072237,496.318041 151.372303,496.641815 151.372303,497.032249 L151.372303,508.388148 Z M151.372303,525.771959 C151.372303,526.162393 151.072237,526.486167 150.695965,526.486167 L139.793603,526.486167 C139.412568,526.486167 139.112503,526.162393 139.112503,525.771959 L139.112503,514.41606 C139.112503,514.025626 139.412568,513.697091 139.793603,513.697091 L150.695965,513.697091 C151.072237,513.697091 151.372303,514.025626 151.372303,514.41606 L151.372303,525.771959 Z M151.372303,543.151009 C151.372303,543.546204 151.072237,543.865216 150.695965,543.865216 L139.793603,543.865216 C139.412568,543.865216 139.112503,543.546204 139.112503,543.151009 L139.112503,531.795109 C139.112503,531.399915 139.412568,531.080902 139.793603,531.080902 L150.695965,531.080902 C151.072237,531.080902 151.372303,531.399915 151.372303,531.795109 L151.372303,543.151009 Z M134.692497,490.999576 C134.692497,491.399532 134.382906,491.723306 134.011397,491.723306 L123.11856,491.723306 C122.732762,491.723306 122.427934,491.399532 122.427934,490.999576 L122.427934,479.657961 C122.427934,479.253243 122.732762,478.93423 123.11856,478.93423 L134.011397,478.93423 C134.382906,478.93423 134.692497,479.253243 134.692497,479.657961 L134.692497,490.999576 Z M134.692497,508.388148 C134.692497,508.778582 134.382906,509.107117 134.011397,509.107117 L123.11856,509.107117 C122.732762,509.107117 122.427934,508.778582 122.427934,508.388148 L122.427934,497.032249 C122.427934,496.641815 122.732762,496.318041 123.11856,496.318041 L134.011397,496.318041 C134.382906,496.318041 134.692497,496.641815 134.692497,497.032249 L134.692497,508.388148 Z M134.692497,525.771959 C134.692497,526.162393 134.382906,526.486167 134.011397,526.486167 L123.11856,526.486167 C122.732762,526.486167 122.427934,526.162393 122.427934,525.771959 L122.427934,514.41606 C122.427934,514.025626 122.732762,513.697091 123.11856,513.697091 L134.011397,513.697091 C134.382906,513.697091 134.692497,514.025626 134.692497,514.41606 L134.692497,525.771959 Z M134.692497,543.151009 C134.692497,543.546204 134.382906,543.865216 134.011397,543.865216 L123.11856,543.865216 C122.732762,543.865216 122.427934,543.546204 122.427934,543.151009 L122.427934,531.795109 C122.427934,531.399915 122.732762,531.080902 123.11856,531.080902 L134.011397,531.080902 C134.382906,531.080902 134.692497,531.399915 134.692497,531.795109 L134.692497,543.151009 Z M102.966573,490.999576 C102.966573,491.399532 102.671271,491.723306 102.290236,491.723306 L91.3926361,491.723306 C91.0116011,491.723306 90.7067731,491.399532 90.7067731,490.999576 L90.7067731,479.657961 C90.7067731,479.253243 91.0116011,478.93423 91.3926361,478.93423 L102.290236,478.93423 C102.671271,478.93423 102.966573,479.253243 102.966573,479.657961 L102.966573,490.999576 Z M102.966573,508.388148 C102.966573,508.778582 102.671271,509.107117 102.290236,509.107117 L91.3926361,509.107117 C91.0116011,509.107117 90.7067731,508.778582 90.7067731,508.388148 L90.7067731,497.032249 C90.7067731,496.641815 91.0116011,496.318041 91.3926361,496.318041 L102.290236,496.318041 C102.671271,496.318041 102.966573,496.641815 102.966573,497.032249 L102.966573,508.388148 Z M102.966573,525.771959 C102.966573,526.162393 102.671271,526.486167 102.290236,526.486167 L91.3926361,526.486167 C91.0116011,526.486167 90.7067731,526.162393 90.7067731,525.771959 L90.7067731,514.41606 C90.7067731,514.025626 91.0116011,513.697091 91.3926361,513.697091 L102.290236,513.697091 C102.671271,513.697091 102.966573,514.025626 102.966573,514.41606 L102.966573,525.771959 Z M97.5558766,619.918794 L97.5558766,605.348961 L280.12878,605.348961 L280.12878,597.01654 L122.770865,597.01654 L122.770865,582.427661 L280.12878,582.427661 L280.12878,574.100001 L144.213608,574.100001 L144.213608,559.525407 L280.12878,559.525407 L280.12878,361.804197 L135.259286,361.804197 L135.259286,349.224622 L280.12878,349.224622 L280.12878,342.244434 L147.095185,342.244434 L275.422998,285.783949 L145.823481,285.783949 L145.852058,272.337802 L147.142814,269.880928 L151.138919,269.880928 L151.138919,269.695234 L151.753337,269.695234 L151.753337,251.216305 L148.843183,251.216305 L148.857472,244.697971 L145.647252,244.697971 C145.390054,226.104769 144.894708,179.014686 144.894708,179.014686 L145.313847,174.253303 L146.899905,174.253303 L146.933245,156.455251 L144.294578,156.455251 L144.442229,156.131477 L142.575158,156.131477 L142.59421,148.951311 L136.573857,148.951311 L136.607198,142.513921 L133.725621,142.513921 C133.330297,141.566405 132.963551,140.628413 132.634908,139.718988 L132.877818,105.613199 L134.878251,105.613199 L134.911592,101.885036 L135.178317,101.885036 L135.183079,100.808963 L136.635775,100.808963 L138.774334,95.4143154 L138.89817,95.4143154 L138.89817,95.1048255 L139.317309,94.0477984 L138.89817,94.0477984 L138.921985,89.9768155 L129.815249,89.9768155 L129.862879,84.8107144 L126.147788,84.8107144 L120.99429,35.2209057 L116.574284,35.2209057 C116.669543,34.8447564 116.731461,34.454323 116.731461,34.044844 C116.755276,32.7259408 116.245642,31.5308335 115.407365,30.5690341 C117.479242,28.1550127 118.846205,24.3363831 118.903361,20.0225697 C118.965279,15.5468693 117.598316,11.5853982 115.478809,9.19518374 L116.097991,0.305680818 C109.90141,4.37190229 109.158391,0.305680818 109.158391,0.305680818 L110.244341,8.47145345 C107.64854,10.7235878 105.838624,15.0516854 105.738603,20.0225697 C105.667158,24.3363831 106.919811,28.1550127 108.915482,30.5690341 C108.05339,31.5355949 107.510415,32.7259408 107.477075,34.044844 C107.477075,34.454323 107.519941,34.8447564 107.605674,35.2209057 L103.628621,35.2209057 L96.9652724,84.8107144 L91.8975074,84.8107144 L91.7831969,89.9768155 L80.804627,89.9768155 L80.6569759,95.4143154 L81.7619773,95.4143154 L83.7195445,100.808963 L85.1722403,100.808963 L85.1388997,101.885036 L85.419913,101.885036 L85.3294172,105.613199 L87.0488375,105.613199 L86.1724571,141.861611 C86.0676724,142.071112 85.9343102,142.299658 85.8342885,142.513921 L81.4523864,142.513921 L81.2809207,148.951311 L75.1986501,148.951311 L74.9938438,156.131477 L73.8983683,156.131477 L74.0364934,156.455251 L70.9072438,156.455251 L70.3690319,174.253303 L72.4551983,174.253303 C72.4551983,174.253303 70.816748,225.252481 70.0261004,244.697971 L66.8254067,244.697971 L66.5967857,252.082877 L62.8007249,252.082877 L62.2291724,269.880928 L67.6160543,269.880928 L68.8353662,272.337802 L68.4352794,285.783949 L68.2685766,285.783949 L68.2685766,291.683303 L67.6922613,311.304964 L26.6262179,340.830303 L68.2685766,340.830303 L68.2685766,355.595353 L47.0973214,355.595353 L47.0973214,470.649423 L44.2776627,470.649423 L44.2776627,355.409659 L32.2845871,355.409659 L32.2845871,470.649423 L12.9661144,470.649423 L0.444352867,631.098523 L68.2685766,631.098523 L104.700282,631.098523 L280.12878,631.098523 L280.12878,619.918794 L97.5558766,619.918794 Z" id="Fill-323"></path>
                        <path d="M464.857865,543.867121 L453.965028,543.867121 C453.588756,543.867121 453.279165,543.548108 453.279165,543.152913 L453.279165,531.797014 C453.279165,531.401819 453.588756,531.078045 453.965028,531.078045 L464.857865,531.078045 C465.2389,531.078045 465.548491,531.401819 465.548491,531.797014 L465.548491,543.152913 C465.548491,543.548108 465.2389,543.867121 464.857865,543.867121 L464.857865,543.867121 Z M469.958971,479.659865 C469.958971,479.26467 470.273325,478.931373 470.644834,478.931373 L481.537671,478.931373 C481.918706,478.931373 482.223534,479.26467 482.223534,479.659865 L482.223534,490.996719 C482.223534,491.406198 481.918706,491.725211 481.537671,491.725211 L470.644834,491.725211 C470.273325,491.725211 469.958971,491.406198 469.958971,490.996719 L469.958971,479.659865 Z M469.958971,497.034153 C469.958971,496.64372 470.273325,496.324707 470.644834,496.324707 L481.537671,496.324707 C481.918706,496.324707 482.223534,496.64372 482.223534,497.034153 L482.223534,508.390053 C482.223534,508.780486 481.918706,509.10426 481.537671,509.10426 L470.644834,509.10426 C470.273325,509.10426 469.958971,508.780486 469.958971,508.390053 L469.958971,497.034153 Z M469.958971,514.413203 C469.958971,514.022769 470.273325,513.698995 470.644834,513.698995 L481.537671,513.698995 C481.918706,513.698995 482.223534,514.022769 482.223534,514.413203 L482.223534,525.769102 C482.223534,526.159536 481.918706,526.492833 481.537671,526.492833 L470.644834,526.492833 C470.273325,526.492833 469.958971,526.159536 469.958971,525.769102 L469.958971,514.413203 Z M469.958971,531.797014 C469.958971,531.401819 470.273325,531.078045 470.644834,531.078045 L481.537671,531.078045 C481.918706,531.078045 482.223534,531.401819 482.223534,531.797014 L482.223534,543.152913 C482.223534,543.548108 481.918706,543.867121 481.537671,543.867121 L470.644834,543.867121 C470.273325,543.867121 469.958971,543.548108 469.958971,543.152913 L469.958971,531.797014 Z M487.648519,473.436737 L448.344762,473.436737 L468.001404,456.771895 L487.648519,473.436737 Z M482.223534,444.482764 C482.223534,444.877959 481.918706,445.196972 481.537671,445.196972 L470.644834,445.196972 C470.273325,445.196972 469.958971,444.877959 469.958971,444.482764 L469.958971,433.126865 C469.958971,432.73167 470.273325,432.403134 470.644834,432.403134 L481.537671,432.403134 C481.918706,432.403134 482.223534,432.73167 482.223534,433.126865 L482.223534,444.482764 Z M482.223534,427.098953 C482.223534,427.484625 481.918706,427.813161 481.537671,427.813161 L470.644834,427.813161 C470.273325,427.813161 469.958971,427.484625 469.958971,427.098953 L469.958971,415.738292 C469.958971,415.347859 470.273325,415.028846 470.644834,415.028846 L481.537671,415.028846 C481.918706,415.028846 482.223534,415.347859 482.223534,415.738292 L482.223534,427.098953 Z M482.223534,409.710381 C482.223534,410.110337 481.918706,410.42935 481.537671,410.42935 L470.644834,410.42935 C470.273325,410.42935 469.958971,410.110337 469.958971,409.710381 L469.958971,398.364004 C469.958971,397.964048 470.273325,397.649796 470.644834,397.649796 L481.537671,397.649796 C481.918706,397.649796 482.223534,397.964048 482.223534,398.364004 L482.223534,409.710381 Z M482.223534,392.331331 C482.223534,392.731287 481.918706,393.045539 481.537671,393.045539 L470.644834,393.045539 C470.273325,393.045539 469.958971,392.731287 469.958971,392.331331 L469.958971,380.980193 C469.958971,380.584998 470.273325,380.256463 470.644834,380.256463 L481.537671,380.256463 C481.918706,380.256463 482.223534,380.584998 482.223534,380.980193 L482.223534,392.331331 Z M465.548491,444.482764 C465.548491,444.877959 465.2389,445.196972 464.857865,445.196972 L453.965028,445.196972 C453.588756,445.196972 453.279165,444.877959 453.279165,444.482764 L453.279165,433.126865 C453.279165,432.73167 453.588756,432.403134 453.965028,432.403134 L464.857865,432.403134 C465.2389,432.403134 465.548491,432.73167 465.548491,433.126865 L465.548491,444.482764 Z M465.548491,427.098953 C465.548491,427.484625 465.2389,427.813161 464.857865,427.813161 L453.965028,427.813161 C453.588756,427.813161 453.279165,427.484625 453.279165,427.098953 L453.279165,415.738292 C453.279165,415.347859 453.588756,415.028846 453.965028,415.028846 L464.857865,415.028846 C465.2389,415.028846 465.548491,415.347859 465.548491,415.738292 L465.548491,427.098953 Z M465.548491,409.710381 C465.548491,410.110337 465.2389,410.42935 464.857865,410.42935 L453.965028,410.42935 C453.588756,410.42935 453.279165,410.110337 453.279165,409.710381 L453.279165,398.364004 C453.279165,397.964048 453.588756,397.649796 453.965028,397.649796 L464.857865,397.649796 C465.2389,397.649796 465.548491,397.964048 465.548491,398.364004 L465.548491,409.710381 Z M465.548491,392.331331 C465.548491,392.731287 465.2389,393.045539 464.857865,393.045539 L453.965028,393.045539 C453.588756,393.045539 453.279165,392.731287 453.279165,392.331331 L453.279165,380.980193 C453.279165,380.584998 453.588756,380.256463 453.965028,380.256463 L464.857865,380.256463 C465.2389,380.256463 465.548491,380.584998 465.548491,380.980193 L465.548491,392.331331 Z M464.305365,241.138361 L433.017631,241.309771 L432.488945,189.539248 C432.755669,183.34945 436.027807,176.98348 446.73489,176.440682 C461.247559,175.697906 463.405169,187.27283 463.405169,187.27283 L464.305365,241.138361 Z M456.95139,140.349396 L438.037767,140.349396 L437.590051,104.834236 L456.256001,104.834236 L456.95139,140.349396 Z M433.131941,380.256463 C433.512976,380.256463 433.822567,380.584998 433.822567,380.980193 L433.822567,392.331331 C433.822567,392.731287 433.512976,393.045539 433.131941,393.045539 L422.24863,393.045539 C421.862832,393.045539 421.548479,392.731287 421.548479,392.331331 L421.548479,380.980193 C421.548479,380.584998 421.862832,380.256463 422.24863,380.256463 L433.131941,380.256463 Z M433.822567,433.126865 L433.822567,444.482764 C433.822567,444.877959 433.512976,445.196972 433.131941,445.196972 L422.24863,445.196972 C421.862832,445.196972 421.548479,444.877959 421.548479,444.482764 L421.548479,433.126865 C421.548479,432.73167 421.862832,432.403134 422.24863,432.403134 L433.131941,432.403134 C433.512976,432.403134 433.822567,432.73167 433.822567,433.126865 L433.822567,433.126865 Z M433.131941,410.42935 L422.24863,410.42935 C421.862832,410.42935 421.548479,410.110337 421.548479,409.710381 L421.548479,398.364004 C421.548479,397.964048 421.862832,397.649796 422.24863,397.649796 L433.131941,397.649796 C433.512976,397.649796 433.822567,397.964048 433.822567,398.364004 L433.822567,409.710381 C433.822567,410.110337 433.512976,410.42935 433.131941,410.42935 L433.131941,410.42935 Z M433.822567,415.738292 L433.822567,427.098953 C433.822567,427.484625 433.512976,427.813161 433.131941,427.813161 L422.24863,427.813161 C421.862832,427.813161 421.548479,427.484625 421.548479,427.098953 L421.548479,415.738292 C421.548479,415.347859 421.862832,415.028846 422.24863,415.028846 L433.131941,415.028846 C433.512976,415.028846 433.822567,415.347859 433.822567,415.738292 L433.822567,415.738292 Z M439.68098,473.436737 L400.37246,473.436737 L420.029102,456.771895 L439.68098,473.436737 Z M417.142762,444.482764 C417.142762,444.877959 416.833171,445.196972 416.452136,445.196972 L405.568825,445.196972 C405.183027,445.196972 404.873436,444.877959 404.873436,444.482764 L404.873436,433.126865 C404.873436,432.73167 405.183027,432.403134 405.568825,432.403134 L416.452136,432.403134 C416.833171,432.403134 417.142762,432.73167 417.142762,433.126865 L417.142762,444.482764 Z M417.142762,427.098953 C417.142762,427.484625 416.833171,427.813161 416.452136,427.813161 L405.568825,427.813161 C405.183027,427.813161 404.873436,427.484625 404.873436,427.098953 L404.873436,415.738292 C404.873436,415.347859 405.183027,415.028846 405.568825,415.028846 L416.452136,415.028846 C416.833171,415.028846 417.142762,415.347859 417.142762,415.738292 L417.142762,427.098953 Z M417.142762,409.710381 C417.142762,410.110337 416.833171,410.42935 416.452136,410.42935 L405.568825,410.42935 C405.183027,410.42935 404.873436,410.110337 404.873436,409.710381 L404.873436,398.364004 C404.873436,397.964048 405.183027,397.649796 405.568825,397.649796 L416.452136,397.649796 C416.833171,397.649796 417.142762,397.964048 417.142762,398.364004 L417.142762,409.710381 Z M417.142762,392.331331 C417.142762,392.731287 416.833171,393.045539 416.452136,393.045539 L405.568825,393.045539 C405.183027,393.045539 404.873436,392.731287 404.873436,392.331331 L404.873436,380.980193 C404.873436,380.584998 405.183027,380.256463 405.568825,380.256463 L416.452136,380.256463 C416.833171,380.256463 417.142762,380.584998 417.142762,380.980193 L417.142762,392.331331 Z M394.742669,372.157349 C394.742669,374.580894 392.923227,376.59972 390.517944,377.061574 C387.788781,378.051942 386.821904,379.18039 386.550417,380.099337 L386.550417,381.337297 C386.655202,381.689639 386.821904,381.89914 386.821904,381.89914 L387.536345,382.627632 C387.874513,382.903792 388.093609,383.327555 388.093609,383.794171 C388.093609,384.655981 387.360116,385.355904 386.455158,385.355904 C386.307507,385.355904 386.169382,385.327336 386.031257,385.298768 L383.906987,385.298768 L387.607789,539.829468 L392.294519,539.829468 L392.294519,554.6707 L356.315293,554.6707 L356.315293,539.829468 L361.011548,539.829468 L364.712351,385.298768 L362.897672,385.298768 C362.759546,385.327336 362.616658,385.355904 362.469007,385.355904 C361.568812,385.355904 360.830557,384.655981 360.830557,383.794171 C360.830557,383.327555 361.049652,382.903792 361.392583,382.627632 L362.111787,381.89914 C362.111787,381.89914 364.19319,379.156583 358.406222,377.061574 C356.000939,376.59972 354.181497,374.580894 354.181497,372.157349 C354.181497,369.395747 356.539151,367.162658 359.439779,367.162658 C360.620988,367.162658 361.692648,367.54833 362.569029,368.181594 L362.569029,367.162658 L386.550417,367.162658 L386.550417,368.038753 C387.388694,367.495955 388.388911,367.162658 389.484386,367.162658 C392.389778,367.162658 394.742669,369.395747 394.742669,372.157349 L394.742669,372.157349 Z M331.667093,372.157349 C331.667093,374.580894 329.857177,376.59972 327.447131,377.061574 C324.713205,378.051942 323.751092,379.18039 323.479604,380.099337 L323.479604,381.337297 C323.589152,381.689639 323.746329,381.89914 323.746329,381.89914 L324.460769,382.627632 C324.808464,382.903792 325.027559,383.327555 325.027559,383.794171 C325.027559,384.655981 324.284541,385.355904 323.37482,385.355904 C323.231932,385.355904 323.098569,385.327336 322.960444,385.298768 L320.840937,385.298768 L324.532213,539.829468 L329.223707,539.829468 L329.223707,554.6707 L293.254006,554.6707 L293.254006,539.829468 L297.935973,539.829468 L301.636775,385.298768 L299.826859,385.298768 C299.683971,385.327336 299.550609,385.355904 299.402958,385.355904 C298.498,385.355904 297.764507,384.655981 297.764507,383.794171 C297.764507,383.327555 297.974076,382.903792 298.317008,382.627632 L299.036211,381.89914 C299.036211,381.89914 301.117615,379.156583 295.335409,377.061574 C292.925363,376.59972 291.110684,374.580894 291.110684,372.157349 C291.110684,369.395747 293.468338,367.162658 296.368967,367.162658 C297.554938,367.162658 298.621836,367.54833 299.493453,368.181594 L299.493453,367.162658 L323.479604,367.162658 L323.479604,368.038753 C324.317881,367.495955 325.322861,367.162658 326.413574,367.162658 C329.318965,367.162658 331.667093,369.395747 331.667093,372.157349 L331.667093,372.157349 Z M404.873436,479.659865 C404.873436,479.26467 405.183027,478.931373 405.568825,478.931373 L416.452136,478.931373 C416.833171,478.931373 417.142762,479.26467 417.142762,479.659865 L417.142762,490.996719 C417.142762,491.406198 416.833171,491.725211 416.452136,491.725211 L405.568825,491.725211 C405.183027,491.725211 404.873436,491.406198 404.873436,490.996719 L404.873436,479.659865 Z M404.873436,497.034153 C404.873436,496.64372 405.183027,496.324707 405.568825,496.324707 L416.452136,496.324707 C416.833171,496.324707 417.142762,496.64372 417.142762,497.034153 L417.142762,508.390053 C417.142762,508.780486 416.833171,509.10426 416.452136,509.10426 L405.568825,509.10426 C405.183027,509.10426 404.873436,508.780486 404.873436,508.390053 L404.873436,497.034153 Z M404.873436,514.413203 C404.873436,514.022769 405.183027,513.698995 405.568825,513.698995 L416.452136,513.698995 C416.833171,513.698995 417.142762,514.022769 417.142762,514.413203 L417.142762,525.769102 C417.142762,526.159536 416.833171,526.492833 416.452136,526.492833 L405.568825,526.492833 C405.183027,526.492833 404.873436,526.159536 404.873436,525.769102 L404.873436,514.413203 Z M404.873436,531.797014 C404.873436,531.401819 405.183027,531.078045 405.568825,531.078045 L416.452136,531.078045 C416.833171,531.078045 417.142762,531.401819 417.142762,531.797014 L417.142762,543.152913 C417.142762,543.548108 416.833171,543.867121 416.452136,543.867121 L405.568825,543.867121 C405.183027,543.867121 404.873436,543.548108 404.873436,543.152913 L404.873436,531.797014 Z M421.548479,479.659865 C421.548479,479.26467 421.862832,478.931373 422.24863,478.931373 L433.131941,478.931373 C433.512976,478.931373 433.822567,479.26467 433.822567,479.659865 L433.822567,490.996719 C433.822567,491.406198 433.512976,491.725211 433.131941,491.725211 L422.24863,491.725211 C421.862832,491.725211 421.548479,491.406198 421.548479,490.996719 L421.548479,479.659865 Z M421.548479,497.034153 C421.548479,496.64372 421.862832,496.324707 422.24863,496.324707 L433.131941,496.324707 C433.512976,496.324707 433.822567,496.64372 433.822567,497.034153 L433.822567,508.390053 C433.822567,508.780486 433.512976,509.10426 433.131941,509.10426 L422.24863,509.10426 C421.862832,509.10426 421.548479,508.780486 421.548479,508.390053 L421.548479,497.034153 Z M421.548479,514.413203 C421.548479,514.022769 421.862832,513.698995 422.24863,513.698995 L433.131941,513.698995 C433.512976,513.698995 433.822567,514.022769 433.822567,514.413203 L433.822567,525.769102 C433.822567,526.159536 433.512976,526.492833 433.131941,526.492833 L422.24863,526.492833 C421.862832,526.492833 421.548479,526.159536 421.548479,525.769102 L421.548479,514.413203 Z M421.548479,531.797014 C421.548479,531.401819 421.862832,531.078045 422.24863,531.078045 L433.131941,531.078045 C433.512976,531.078045 433.822567,531.401819 433.822567,531.797014 L433.822567,543.152913 C433.822567,543.548108 433.512976,543.867121 433.131941,543.867121 L422.24863,543.867121 C421.862832,543.867121 421.548479,543.548108 421.548479,543.152913 L421.548479,531.797014 Z M453.279165,479.659865 C453.279165,479.26467 453.588756,478.931373 453.965028,478.931373 L464.857865,478.931373 C465.2389,478.931373 465.548491,479.26467 465.548491,479.659865 L465.548491,490.996719 C465.548491,491.406198 465.2389,491.725211 464.857865,491.725211 L453.965028,491.725211 C453.588756,491.725211 453.279165,491.406198 453.279165,490.996719 L453.279165,479.659865 Z M453.279165,497.034153 C453.279165,496.64372 453.588756,496.324707 453.965028,496.324707 L464.857865,496.324707 C465.2389,496.324707 465.548491,496.64372 465.548491,497.034153 L465.548491,508.390053 C465.548491,508.780486 465.2389,509.10426 464.857865,509.10426 L453.965028,509.10426 C453.588756,509.10426 453.279165,508.780486 453.279165,508.390053 L453.279165,497.034153 Z M453.279165,514.413203 C453.279165,514.022769 453.588756,513.698995 453.965028,513.698995 L464.857865,513.698995 C465.2389,513.698995 465.548491,514.022769 465.548491,514.413203 L465.548491,525.769102 C465.548491,526.159536 465.2389,526.492833 464.857865,526.492833 L453.965028,526.492833 C453.588756,526.492833 453.279165,526.159536 453.279165,525.769102 L453.279165,514.413203 Z M276.116958,619.920699 L276.116958,631.095666 L451.554982,631.095666 L487.981925,631.095666 L555.810911,631.095666 L543.28915,470.651328 L523.965914,470.651328 L523.965914,355.411564 L511.972839,355.411564 L511.972839,470.651328 L509.15318,470.651328 L509.15318,355.597258 L487.981925,355.597258 L487.981925,340.836969 L529.629046,340.836969 L488.563003,311.302107 L487.981925,291.680446 L487.981925,285.785853 L487.810459,285.785853 L487.415135,272.344468 L488.624921,269.892355 L494.011803,269.892355 L493.454539,252.094304 L489.653716,252.094304 L489.429858,244.699876 L486.214875,244.699876 C485.433753,225.254385 483.795303,174.255207 483.795303,174.255207 L485.881469,174.255207 L485.352783,156.461917 L482.218771,156.461917 L482.352133,156.138143 L481.247132,156.138143 L481.047088,148.953216 L474.964818,148.953216 L474.802878,142.520587 L470.420976,142.520587 C470.311428,142.301563 470.178066,142.068255 470.082807,141.853993 L469.192138,105.615103 L470.921084,105.615103 L470.830588,101.88694 L471.106839,101.88694 L471.083024,100.796583 L472.521431,100.796583 L474.488524,95.41622 L475.588762,95.41622 L475.450637,89.9834814 L464.467304,89.9834814 L464.348231,84.812619 L459.285229,84.812619 L452.62188,35.2275717 L448.640065,35.2275717 C448.725797,34.846661 448.773427,34.4514662 448.763901,34.0562713 C448.740086,32.7278453 448.197111,31.5327381 447.330257,30.5709386 C449.33069,28.1521558 450.588106,24.3382877 450.507136,20.0197129 C450.421403,15.0535899 448.606724,10.720731 446.00616,8.473358 L447.09211,0.307585371 C447.09211,0.307585371 446.344329,4.36904546 440.152511,0.307585371 L440.771693,9.19708829 C438.652186,11.5873028 437.285223,15.5392511 437.351904,20.0197129 C437.39477,24.3382877 438.766496,28.1521558 440.843137,30.5709386 C440.009623,31.5327381 439.495225,32.7278453 439.51904,34.0562713 C439.528566,34.4514662 439.576195,34.846661 439.671454,35.2275717 L435.256211,35.2275717 L430.102713,84.812619 L426.387623,84.812619 L426.435252,89.9834814 L417.328516,89.9834814 L417.347568,94.0449415 L416.933193,94.0449415 L417.357094,95.1114914 L417.357094,95.41622 L417.476167,95.41622 L419.609963,100.796583 L421.067422,100.796583 L421.076948,101.88694 L421.338909,101.88694 L421.362724,105.615103 L423.377446,105.615103 L423.620356,139.720893 C423.286951,140.620795 422.920204,141.56831 422.524881,142.520587 L419.643304,142.520587 L419.676644,148.953216 L413.651529,148.953216 L413.675344,156.138143 L411.803509,156.138143 L411.955923,156.461917 L409.317256,156.461917 L409.350597,174.255207 L410.936655,174.255207 L411.360556,179.011829 C411.360556,179.011829 410.860448,226.101912 410.603249,244.699876 L407.402555,244.699876 L407.402555,251.218209 L404.487638,251.218209 L404.487638,269.706661 L405.116346,269.706661 L405.116346,269.892355 L409.117213,269.892355 L410.398443,272.344468 L410.422258,285.785853 L280.837029,285.785853 L409.155316,342.241577 L276.116958,342.241577 L276.116958,349.226527 L420.991215,349.226527 L420.991215,361.806102 L276.116958,361.806102 L276.116958,559.517788 L412.027367,559.517788 L412.027367,574.101906 L276.116958,574.101906 L276.116958,582.429566 L433.479636,582.429566 L433.479636,597.013683 L276.116958,597.013683 L276.116958,605.346104 L458.689862,605.346104 L458.689862,619.920699 L276.116958,619.920699 Z" id="Fill-324"></path>
                        <polyline id="Fill-325" points="278.587017 296.898446 356.31815 331.104225 200.851122 331.104225"></polyline>
                    </g>
                </g>
                <polygon id="Path-3" fill="#182430" opacity="0.803272192" mask="url(#mask-2)" points="859.601562 212.943359 1102.14453 168.607422 1401.82422 14.0878906 1401.82422 68.7324219 1102.14453 204.919922 871.847656 236.353516 1.375 255.912109"></polygon>
                <polygon id="Path-2" fill="#FFFFFF" mask="url(#mask-2)" points="2.7109375 256.03125 858.041707 235.53125 1102.78209 202.890625 1400.57269 69.375 1401 256.070312"></polygon>
            </g>
        </g>
    </g>
</svg>