<?xml version="1.0" encoding="utf-8"?>
<!-- Generator: Adobe Illustrator 16.0.3, SVG Export Plug-In . SVG Version: 6.00 Build 0)  -->
<!DOCTYPE svg PUBLIC "-//W3C//DTD SVG 1.1//EN" "http://www.w3.org/Graphics/SVG/1.1/DTD/svg11.dtd">
<svg version="1.1" id="Layer_1" xmlns="http://www.w3.org/2000/svg" xmlns:xlink="http://www.w3.org/1999/xlink" x="0px" y="0px"
	 width="660.756px" height="65px" viewBox="0 0 660.756 65" enable-background="new 0 0 660.756 65" xml:space="preserve">
<g>
	<g>
		<g>
			<g>
				<rect x="348.25" fill="#AC9155" width="297" height="65"/>
			</g>
		</g>
		<g>
			<g>
				<g>
					<path fill="#251610" d="M374.383,40.648V28.959h-1.594v-1.594c1.067-0.381,1.774-0.913,2.125-1.593h1.594v14.876H374.383z"/>
					<path fill="#251610" d="M382.087,40.799c-0.809,0-1.496-0.191-2.063-0.573c-0.568-0.382-0.986-0.897-1.254-1.548
						c-0.27-0.65-0.402-1.411-0.402-2.28v-6.375c0-1.367,0.311-2.442,0.93-3.226c0.619-0.782,1.549-1.175,2.789-1.175
						c1.232,0,2.162,0.394,2.786,1.179c0.621,0.786,0.935,1.859,0.935,3.222v6.375c0,1.335-0.317,2.401-0.951,3.202
						C384.222,40.398,383.298,40.799,382.087,40.799z M382.087,39.055c1.063,0,1.594-0.885,1.594-2.657v-6.375
						c0-0.299-0.012-0.565-0.033-0.802c-0.021-0.234-0.067-0.473-0.137-0.713c-0.07-0.242-0.16-0.441-0.275-0.603
						c-0.112-0.161-0.266-0.29-0.459-0.39c-0.194-0.1-0.424-0.15-0.688-0.15s-0.496,0.051-0.688,0.15
						c-0.193,0.099-0.348,0.229-0.461,0.39c-0.113,0.161-0.205,0.36-0.273,0.603c-0.068,0.24-0.115,0.479-0.137,0.713
						c-0.022,0.236-0.033,0.503-0.033,0.802v6.375c0,0.35,0.023,0.67,0.07,0.963c0.047,0.295,0.127,0.574,0.24,0.84
						c0.112,0.266,0.277,0.475,0.493,0.626C381.515,38.979,381.776,39.055,382.087,39.055z"/>
					<path fill="#251610" d="M387.135,40.648v-2.125h2.125v2.125H387.135z"/>
					<path fill="#251610" d="M394.157,40.799c-1.207,0-2.129-0.34-2.766-1.018c-0.637-0.678-0.955-1.628-0.955-2.853v-0.531h2.125
						c0,0.332,0.011,0.616,0.029,0.852c0.02,0.236,0.061,0.476,0.125,0.719c0.063,0.243,0.15,0.438,0.262,0.585
						c0.112,0.147,0.267,0.268,0.467,0.361c0.199,0.094,0.437,0.141,0.713,0.141c0.277,0,0.516-0.047,0.715-0.141
						c0.199-0.094,0.354-0.215,0.465-0.361c0.109-0.146,0.197-0.342,0.262-0.585c0.063-0.243,0.104-0.483,0.123-0.719
						c0.021-0.235,0.029-0.52,0.029-0.852c0-0.852-0.164-1.508-0.494-1.967c-0.328-0.459-0.872-0.689-1.631-0.689v-2.125
						c0.775,0,1.323-0.158,1.645-0.477c0.32-0.318,0.48-0.867,0.48-1.648c0-0.703-0.115-1.233-0.348-1.591
						c-0.232-0.355-0.648-0.535-1.246-0.535c-0.276,0-0.514,0.047-0.713,0.142c-0.2,0.095-0.354,0.214-0.467,0.36
						c-0.11,0.147-0.197,0.342-0.262,0.586c-0.064,0.244-0.105,0.482-0.125,0.719c-0.02,0.235-0.029,0.519-0.029,0.851h-2.125
						v-0.532c0-1.218,0.32-2.167,0.959-2.848c0.64-0.681,1.561-1.021,2.762-1.021c1.207,0,2.129,0.34,2.765,1.017
						c0.636,0.679,0.954,1.629,0.954,2.853c0,0.842-0.188,1.531-0.564,2.072c-0.375,0.539-0.896,0.911-1.561,1.115
						c0.691,0.232,1.219,0.668,1.582,1.304c0.361,0.636,0.543,1.441,0.543,2.415c0,1.396-0.299,2.478-0.896,3.247
						C396.383,40.414,395.44,40.799,394.157,40.799z"/>
					<path fill="#251610" d="M402.833,40.799c-0.809,0-1.495-0.191-2.063-0.573c-0.567-0.382-0.985-0.897-1.254-1.548
						c-0.27-0.651-0.402-1.411-0.402-2.28v-6.375c0-1.367,0.31-2.442,0.93-3.226c0.62-0.782,1.551-1.175,2.79-1.175
						c1.233,0,2.162,0.394,2.785,1.179c0.622,0.786,0.935,1.859,0.935,3.222v6.375c0,1.335-0.318,2.401-0.951,3.202
						C404.968,40.398,404.045,40.799,402.833,40.799z M402.833,39.055c1.063,0,1.594-0.885,1.594-2.657v-6.375
						c0-0.299-0.011-0.565-0.033-0.802c-0.021-0.234-0.066-0.473-0.137-0.713c-0.068-0.242-0.16-0.441-0.273-0.603
						c-0.113-0.162-0.268-0.29-0.461-0.39c-0.193-0.1-0.424-0.15-0.688-0.15s-0.495,0.051-0.688,0.15
						c-0.193,0.1-0.348,0.229-0.461,0.39c-0.112,0.161-0.205,0.36-0.274,0.603c-0.067,0.24-0.113,0.479-0.138,0.713
						c-0.021,0.236-0.032,0.503-0.032,0.802v6.375c0,0.35,0.022,0.67,0.069,0.963c0.049,0.295,0.129,0.574,0.242,0.84
						c0.113,0.266,0.277,0.475,0.494,0.626C402.26,38.979,402.522,39.055,402.833,39.055z"/>
					<path fill="#251610" d="M410.172,40.799c-0.593,0-1.096-0.256-1.508-0.768c-0.412-0.513-0.618-1.09-0.618-1.731
						c0-0.515,0.087-0.983,0.262-1.404c0.174-0.42,0.358-0.756,0.553-1.008c0.193-0.252,0.518-0.512,0.972-0.781
						c0.454-0.268,0.797-0.451,1.028-0.551c0.232-0.1,0.638-0.264,1.214-0.49c0.1-0.039,0.174-0.069,0.224-0.092V33.21
						c0-0.536-0.074-0.953-0.224-1.248c-0.15-0.297-0.431-0.445-0.839-0.445c-0.365,0-0.627,0.127-0.784,0.379
						c-0.158,0.251-0.248,0.598-0.271,1.041c-0.006,0.061-0.009,0.152-0.009,0.273h-2.126c0.012-1.018,0.296-1.828,0.854-2.432
						c0.562-0.604,1.338-0.904,2.334-0.904c0.992,0,1.771,0.305,2.338,0.916c0.566,0.612,0.851,1.419,0.851,2.42v4.782
						c0,1.107,0.091,1.992,0.274,2.656h-2.117l-0.282-1.594c-0.11,0.222-0.2,0.394-0.271,0.516c-0.068,0.121-0.17,0.271-0.303,0.451
						c-0.134,0.181-0.267,0.318-0.398,0.416c-0.133,0.097-0.299,0.182-0.498,0.253S410.409,40.799,410.172,40.799z M411.233,39.055
						c0.149,0,0.295-0.044,0.437-0.133c0.142-0.088,0.248-0.174,0.319-0.257c0.072-0.083,0.16-0.194,0.266-0.332
						c0.018-0.028,0.031-0.047,0.042-0.058v-2.94c-0.089,0.062-0.235,0.155-0.44,0.283c-0.203,0.127-0.366,0.23-0.488,0.311
						c-0.122,0.081-0.27,0.191-0.44,0.332c-0.171,0.141-0.304,0.277-0.397,0.406c-0.094,0.131-0.178,0.29-0.248,0.479
						c-0.072,0.188-0.108,0.386-0.108,0.59C410.172,38.615,410.526,39.055,411.233,39.055z"/>
					<path fill="#251610" d="M416.248,40.648V30.023h2.126v1.204c0.759-0.901,1.641-1.353,2.646-1.353
						c0.511,0,0.883,0.111,1.121,0.336s0.398,0.58,0.481,1.066c0.349-0.459,0.726-0.809,1.129-1.046s0.913-0.356,1.527-0.356
						c0.177,0,0.337,0.018,0.478,0.053c0.143,0.037,0.266,0.08,0.37,0.129c0.105,0.051,0.197,0.127,0.277,0.229
						c0.081,0.103,0.146,0.197,0.198,0.283c0.054,0.085,0.099,0.208,0.134,0.369c0.037,0.16,0.063,0.293,0.08,0.398
						c0.016,0.104,0.028,0.26,0.041,0.465c0.012,0.204,0.017,0.365,0.017,0.48c0,0.117,0,0.291,0,0.523c0,0.05,0,0.088,0,0.116
						v7.729h-2.126v-7.753c0-0.028,0-0.072,0-0.133c0-0.184-0.003-0.324-0.009-0.424s-0.023-0.215-0.053-0.344
						c-0.031-0.131-0.086-0.227-0.162-0.287c-0.078-0.061-0.181-0.092-0.309-0.092c-0.216,0-0.432,0.043-0.646,0.129
						s-0.383,0.169-0.502,0.25c-0.119,0.08-0.269,0.191-0.444,0.336v8.317h-2.125v-7.712c0-0.033,0-0.083,0-0.149
						c0-0.155,0-0.271,0-0.349s-0.011-0.178-0.028-0.303c-0.02-0.125-0.047-0.217-0.08-0.278s-0.086-0.116-0.156-0.166
						c-0.071-0.05-0.162-0.075-0.267-0.075c-0.521,0-1.052,0.225-1.594,0.673v8.359L416.248,40.648L416.248,40.648z"/>
				</g>
				<path fill="#251610" d="M435.573,40.799c-0.836,0-1.443-0.213-1.823-0.64c-0.379-0.427-0.573-1.071-0.584-1.935v-6.608h-1.063
					v-1.594h1.063v-3.719h2.126v3.719h1.594v1.594h-1.594v6.202c0,0.426,0.058,0.738,0.174,0.938c0.116,0.2,0.353,0.299,0.705,0.299
					c0.155,0,0.395-0.027,0.715-0.082V40.7C436.354,40.766,435.917,40.799,435.573,40.799z"/>
				<path fill="#251610" d="M443.817,39.803c-0.493,0.664-1.311,0.996-2.449,0.996c-1.142,0-1.957-0.332-2.449-0.996
					c-0.492-0.664-0.738-1.622-0.738-2.874v-3.188c0-1.25,0.246-2.207,0.738-2.871s1.309-0.996,2.449-0.996
					c1.14,0,1.956,0.332,2.449,0.996c0.492,0.664,0.738,1.621,0.738,2.871v3.188C444.557,38.181,444.311,39.139,443.817,39.803z
					 M440.974,38.988c0.113,0.045,0.244,0.066,0.396,0.066c0.147,0,0.28-0.021,0.394-0.066c0.114-0.044,0.208-0.098,0.282-0.162
					c0.075-0.063,0.137-0.156,0.188-0.281c0.049-0.125,0.088-0.234,0.114-0.328c0.028-0.094,0.047-0.229,0.06-0.406
					c0.012-0.178,0.018-0.318,0.021-0.421c0.003-0.102,0.005-0.256,0.005-0.461v-3.188c0-0.204-0.002-0.357-0.005-0.461
					c-0.003-0.102-0.009-0.241-0.021-0.418c-0.013-0.178-0.03-0.313-0.06-0.407c-0.026-0.095-0.065-0.204-0.114-0.327
					c-0.052-0.125-0.112-0.219-0.188-0.283c-0.074-0.063-0.168-0.117-0.282-0.162c-0.112-0.044-0.245-0.066-0.394-0.066
					c-0.15,0-0.281,0.022-0.396,0.066c-0.112,0.045-0.208,0.099-0.281,0.162c-0.075,0.064-0.139,0.158-0.188,0.283
					c-0.051,0.123-0.089,0.232-0.117,0.327c-0.026,0.095-0.047,0.229-0.058,0.407c-0.011,0.177-0.02,0.316-0.021,0.418
					c-0.003,0.104-0.004,0.257-0.004,0.461v3.188c0,0.205,0.001,0.359,0.004,0.461c0.002,0.103,0.011,0.243,0.021,0.421
					c0.011,0.177,0.03,0.313,0.058,0.406c0.028,0.094,0.066,0.203,0.117,0.328c0.049,0.125,0.111,0.219,0.188,0.281
					C440.766,38.891,440.86,38.944,440.974,38.988z"/>
				<path fill="#251610" d="M453.265,40.799c-1.194,0-2.113-0.34-2.757-1.018c-0.643-0.678-0.963-1.628-0.963-2.853h2.126
					c0,0.71,0.115,1.241,0.345,1.595s0.646,0.531,1.249,0.531c1.063,0,1.595-1.063,1.595-3.188v-2.125
					c-0.42,0.709-1.129,1.063-2.125,1.063c-0.599,0-1.108-0.104-1.532-0.311s-0.753-0.51-0.988-0.904
					c-0.233-0.396-0.405-0.84-0.51-1.333c-0.105-0.493-0.158-1.06-0.158-1.702c0-0.697,0.069-1.335,0.207-1.913
					c0.139-0.579,0.353-1.098,0.64-1.557c0.288-0.46,0.676-0.817,1.163-1.075c0.487-0.258,1.059-0.387,1.71-0.387
					c0.511,0,0.972,0.086,1.388,0.258c0.414,0.172,0.765,0.406,1.05,0.705c0.284,0.3,0.524,0.657,0.722,1.075
					s0.34,0.869,0.428,1.354c0.089,0.485,0.134,0.998,0.134,1.54v4.781c0,0.609-0.036,1.172-0.107,1.689
					c-0.072,0.519-0.197,1.015-0.374,1.487c-0.177,0.472-0.403,0.875-0.681,1.207c-0.278,0.332-0.633,0.596-1.066,0.789
					C454.32,40.701,453.823,40.799,453.265,40.799z M453.265,33.21c0.677,0,1.207-0.354,1.595-1.063v-2.125
					c0-0.354-0.025-0.678-0.074-0.972c-0.051-0.293-0.132-0.572-0.245-0.838c-0.114-0.266-0.278-0.474-0.494-0.623
					s-0.476-0.225-0.78-0.225c-0.304,0-0.563,0.075-0.779,0.225c-0.217,0.15-0.38,0.357-0.494,0.623
					c-0.113,0.266-0.194,0.546-0.245,0.842c-0.049,0.298-0.074,0.62-0.074,0.968c0,0.211,0,0.369,0,0.479
					c0,0.107,0.004,0.261,0.013,0.46s0.02,0.353,0.033,0.46c0.015,0.109,0.033,0.246,0.059,0.412
					c0.024,0.166,0.057,0.295,0.096,0.385c0.039,0.092,0.087,0.199,0.146,0.324c0.058,0.125,0.126,0.221,0.202,0.287
					c0.077,0.066,0.166,0.133,0.267,0.199c0.1,0.066,0.216,0.113,0.349,0.141S453.11,33.21,453.265,33.21z"/>
				<path fill="#251610" d="M458.304,40.648v-2.125h2.126v2.125H458.304z"/>
				<path fill="#251610" d="M465.326,40.799c-1.206,0-2.127-0.34-2.765-1.018c-0.637-0.678-0.954-1.628-0.954-2.853v-0.531h2.125
					c0,0.332,0.01,0.616,0.028,0.852c0.02,0.236,0.062,0.476,0.125,0.719c0.063,0.243,0.15,0.438,0.263,0.585
					c0.109,0.146,0.266,0.268,0.465,0.361c0.198,0.093,0.437,0.141,0.713,0.141s0.516-0.047,0.715-0.141
					c0.199-0.094,0.354-0.215,0.465-0.361c0.11-0.146,0.197-0.342,0.262-0.585c0.063-0.243,0.104-0.483,0.123-0.719
					c0.021-0.235,0.029-0.52,0.029-0.852c0-0.852-0.164-1.508-0.494-1.967c-0.328-0.459-0.872-0.689-1.631-0.689v-2.125
					c0.775,0,1.323-0.158,1.645-0.477c0.32-0.318,0.48-0.867,0.48-1.648c0-0.703-0.115-1.233-0.348-1.591
					c-0.232-0.355-0.648-0.535-1.246-0.535c-0.276,0-0.515,0.047-0.713,0.142c-0.199,0.095-0.354,0.214-0.465,0.36
					c-0.111,0.147-0.198,0.342-0.263,0.586c-0.063,0.244-0.104,0.482-0.125,0.719c-0.02,0.235-0.028,0.519-0.028,0.851h-2.125
					v-0.532c0-1.218,0.319-2.167,0.959-2.848c0.639-0.681,1.56-1.021,2.76-1.021c1.207,0,2.129,0.34,2.766,1.017
					c0.636,0.679,0.954,1.629,0.954,2.853c0,0.842-0.188,1.531-0.563,2.072c-0.376,0.539-0.897,0.911-1.563,1.115
					c0.693,0.232,1.22,0.668,1.583,1.304c0.362,0.636,0.543,1.441,0.543,2.415c0,1.396-0.299,2.478-0.896,3.247
					C467.551,40.414,466.61,40.799,465.326,40.799z"/>
				<path fill="#251610" d="M474.002,40.799c-0.808,0-1.495-0.191-2.063-0.573c-0.568-0.382-0.985-0.897-1.255-1.548
					c-0.269-0.651-0.401-1.411-0.401-2.28v-6.375c0-1.367,0.31-2.442,0.93-3.226c0.62-0.782,1.55-1.175,2.789-1.175
					c1.233,0,2.163,0.394,2.786,1.179c0.622,0.786,0.934,1.859,0.934,3.222v6.375c0,1.335-0.316,2.401-0.949,3.202
					C476.138,40.398,475.214,40.799,474.002,40.799z M474.002,39.055c1.063,0,1.594-0.885,1.594-2.657v-6.375
					c0-0.299-0.011-0.565-0.032-0.802c-0.022-0.234-0.067-0.473-0.138-0.713c-0.068-0.242-0.161-0.441-0.273-0.603
					c-0.113-0.162-0.268-0.29-0.461-0.39c-0.193-0.1-0.424-0.15-0.688-0.15s-0.495,0.051-0.688,0.15
					c-0.194,0.1-0.349,0.229-0.461,0.39c-0.113,0.161-0.205,0.36-0.274,0.603c-0.069,0.24-0.114,0.479-0.137,0.713
					c-0.022,0.236-0.033,0.503-0.033,0.802v6.375c0,0.35,0.023,0.67,0.07,0.963c0.048,0.295,0.128,0.574,0.24,0.84
					c0.113,0.266,0.277,0.475,0.494,0.626C473.429,38.979,473.692,39.055,474.002,39.055z"/>
				<path fill="#251610" d="M479.49,43.836V30.023h2.125v1.063c0.171-0.182,0.29-0.307,0.355-0.373
					c0.066-0.066,0.182-0.169,0.346-0.307c0.162-0.139,0.305-0.236,0.423-0.291c0.119-0.055,0.271-0.109,0.457-0.162
					c0.185-0.053,0.378-0.078,0.577-0.078c0.358,0,0.681,0.064,0.964,0.195c0.28,0.129,0.514,0.285,0.696,0.469
					c0.183,0.182,0.337,0.443,0.466,0.783c0.127,0.342,0.223,0.649,0.285,0.926c0.063,0.277,0.112,0.65,0.146,1.121
					c0.034,0.471,0.053,0.852,0.058,1.141c0.005,0.291,0.01,0.691,0.01,1.2v0.157c0,0.465-0.023,0.914-0.071,1.346
					c-0.047,0.433-0.133,0.87-0.257,1.315c-0.125,0.446-0.282,0.832-0.475,1.158c-0.189,0.327-0.444,0.594-0.764,0.801
					c-0.317,0.209-0.682,0.313-1.092,0.313c-0.721,0-1.429-0.369-2.125-1.104v4.142h-2.125V43.836z M483.209,39.055
					c0.227,0,0.416-0.082,0.568-0.248c0.151-0.166,0.264-0.402,0.332-0.711c0.067-0.307,0.116-0.611,0.142-0.913
					c0.025-0.302,0.037-0.654,0.037-1.059l-0.016-1.402c0-0.25-0.003-0.45-0.006-0.602c-0.003-0.152-0.013-0.355-0.027-0.607
					c-0.019-0.251-0.041-0.457-0.071-0.617c-0.031-0.161-0.076-0.338-0.137-0.531c-0.063-0.194-0.136-0.346-0.222-0.457
					c-0.086-0.111-0.196-0.205-0.332-0.282s-0.288-0.116-0.461-0.116c-0.083,0-0.161,0.006-0.235,0.017
					c-0.075,0.011-0.152,0.028-0.232,0.054s-0.146,0.047-0.199,0.066c-0.053,0.019-0.121,0.051-0.203,0.096
					c-0.084,0.045-0.143,0.076-0.179,0.096s-0.099,0.057-0.187,0.111c-0.089,0.056-0.146,0.089-0.166,0.1v6.575
					C482.102,38.911,482.633,39.055,483.209,39.055z"/>
				<path fill="#251610" d="M488.14,40.648V30.023h2.125v1.204c0.76-0.901,1.642-1.353,2.649-1.353c0.51,0,0.883,0.111,1.121,0.336
					c0.237,0.225,0.396,0.58,0.48,1.066c0.349-0.459,0.726-0.809,1.129-1.046s0.912-0.356,1.527-0.356
					c0.177,0,0.336,0.018,0.478,0.053c0.142,0.037,0.265,0.08,0.368,0.129c0.105,0.051,0.198,0.127,0.278,0.229
					c0.081,0.103,0.147,0.197,0.199,0.283c0.053,0.085,0.097,0.208,0.133,0.369c0.036,0.16,0.063,0.293,0.079,0.398
					c0.017,0.104,0.03,0.26,0.041,0.465c0.012,0.204,0.018,0.365,0.018,0.48c0,0.117,0,0.291,0,0.523c0,0.05,0,0.088,0,0.116v7.729
					h-2.125v-7.753c0-0.028,0-0.072,0-0.133c0-0.184-0.004-0.324-0.009-0.424s-0.022-0.215-0.054-0.344
					c-0.031-0.131-0.084-0.227-0.162-0.287s-0.18-0.092-0.307-0.092c-0.218,0-0.433,0.043-0.648,0.129
					c-0.215,0.086-0.383,0.169-0.502,0.25c-0.119,0.08-0.267,0.191-0.443,0.336v8.317h-2.126v-7.712c0-0.033,0-0.083,0-0.149
					c0-0.155,0-0.271,0-0.349s-0.01-0.178-0.028-0.303c-0.02-0.125-0.045-0.217-0.078-0.278s-0.086-0.116-0.158-0.166
					s-0.16-0.075-0.267-0.075c-0.521,0-1.052,0.225-1.595,0.673v8.359L488.14,40.648L488.14,40.648z"/>
				<path fill="#251610" d="M507.89,41.18c-0.441,0-0.844-0.059-1.204-0.178c-0.358-0.119-0.664-0.305-0.917-0.557
					c-0.251-0.252-0.47-0.516-0.654-0.793c-0.187-0.276-0.335-0.635-0.448-1.074c-0.114-0.439-0.206-0.838-0.278-1.196
					c-0.071-0.357-0.121-0.814-0.148-1.369c-0.028-0.557-0.046-1.016-0.055-1.379c-0.009-0.362-0.013-0.837-0.013-1.424
					c0-0.675,0.004-1.219,0.013-1.631s0.037-0.932,0.088-1.561c0.05-0.628,0.122-1.138,0.216-1.528
					c0.094-0.39,0.229-0.813,0.411-1.27c0.18-0.457,0.398-0.813,0.658-1.071c0.262-0.258,0.589-0.473,0.984-0.646
					c0.396-0.176,0.846-0.262,1.349-0.262v1.593c-0.275,0-0.517,0.088-0.718,0.262c-0.202,0.174-0.358,0.396-0.474,0.66
					c-0.113,0.266-0.203,0.601-0.271,1.004c-0.065,0.404-0.108,0.79-0.129,1.155c-0.019,0.365-0.027,0.78-0.027,1.245
					c0,0.266,0.004,0.63,0.012,1.091c0.009,0.463,0.013,0.782,0.013,0.959c0,0.178-0.004,0.502-0.013,0.972
					c-0.008,0.47-0.012,0.841-0.012,1.112c0,0.465,0.01,0.879,0.027,1.24c0.021,0.363,0.063,0.744,0.129,1.144
					c0.066,0.398,0.156,0.73,0.271,0.996c0.114,0.266,0.271,0.484,0.474,0.655c0.201,0.171,0.441,0.257,0.718,0.257L507.89,41.18
					L507.89,41.18z"/>
				<path fill="#251610" d="M509.999,40.648l2.723-13.108h-3.926v-1.768h5.951v1.021l-2.706,13.855H509.999z"/>
				<path fill="#251610" d="M515.81,40.648v-2.125h2.126v2.125H515.81z"/>
				<path fill="#251610" d="M522.833,40.799c-1.206,0-2.128-0.34-2.765-1.018c-0.637-0.678-0.954-1.628-0.954-2.853v-0.531h2.125
					c0,0.332,0.01,0.616,0.028,0.852c0.02,0.235,0.062,0.476,0.124,0.719c0.064,0.243,0.15,0.438,0.263,0.585
					c0.111,0.147,0.266,0.268,0.465,0.361c0.199,0.093,0.438,0.141,0.714,0.141s0.515-0.047,0.714-0.141
					c0.199-0.094,0.354-0.215,0.465-0.361c0.111-0.146,0.197-0.342,0.263-0.585c0.063-0.243,0.104-0.483,0.124-0.719
					c0.02-0.235,0.028-0.52,0.028-0.852c0-0.852-0.165-1.508-0.493-1.967c-0.329-0.459-0.872-0.689-1.632-0.689v-2.125
					c0.774,0,1.323-0.158,1.645-0.477c0.321-0.319,0.48-0.867,0.48-1.648c0-0.703-0.115-1.233-0.349-1.591
					c-0.232-0.355-0.646-0.535-1.245-0.535c-0.276,0-0.515,0.047-0.714,0.142c-0.199,0.095-0.354,0.214-0.465,0.36
					c-0.111,0.147-0.197,0.342-0.262,0.586c-0.063,0.244-0.105,0.482-0.125,0.719c-0.02,0.235-0.028,0.519-0.028,0.851h-2.125
					v-0.532c0-1.218,0.318-2.167,0.959-2.848c0.639-0.681,1.56-1.021,2.76-1.021c1.206,0,2.128,0.34,2.766,1.017
					c0.637,0.679,0.954,1.629,0.954,2.853c0,0.842-0.188,1.531-0.563,2.072c-0.376,0.539-0.896,0.911-1.563,1.115
					c0.693,0.232,1.22,0.668,1.582,1.304c0.363,0.636,0.544,1.441,0.544,2.415c0,1.396-0.299,2.478-0.896,3.247
					C525.06,40.414,524.117,40.799,522.833,40.799z"/>
				<path fill="#251610" d="M531.509,40.799c-0.809,0-1.496-0.191-2.063-0.573c-0.568-0.382-0.986-0.897-1.254-1.548
					c-0.27-0.65-0.402-1.411-0.402-2.28v-6.375c0-1.367,0.31-2.442,0.93-3.226c0.619-0.782,1.549-1.175,2.789-1.175
					c1.233,0,2.163,0.394,2.786,1.179c0.621,0.786,0.934,1.859,0.934,3.222v6.375c0,1.335-0.316,2.401-0.95,3.202
					C533.645,40.398,532.72,40.799,531.509,40.799z M531.509,39.055c1.063,0,1.595-0.885,1.595-2.657v-6.375
					c0-0.299-0.012-0.565-0.032-0.802c-0.023-0.234-0.068-0.473-0.138-0.713c-0.069-0.242-0.162-0.441-0.275-0.603
					c-0.113-0.161-0.267-0.29-0.46-0.39c-0.194-0.1-0.423-0.15-0.688-0.15c-0.265,0-0.496,0.051-0.688,0.15
					c-0.193,0.099-0.349,0.229-0.462,0.39c-0.112,0.161-0.204,0.36-0.272,0.603c-0.069,0.24-0.115,0.479-0.137,0.713
					c-0.022,0.236-0.033,0.503-0.033,0.802v6.375c0,0.35,0.022,0.67,0.069,0.963c0.048,0.295,0.128,0.574,0.24,0.84
					c0.113,0.266,0.278,0.475,0.494,0.626C530.936,38.979,531.198,39.055,531.509,39.055z"/>
				<path fill="#251610" d="M536.996,43.836V30.023h2.125v1.063c0.172-0.182,0.291-0.307,0.356-0.373
					c0.066-0.066,0.182-0.169,0.345-0.307c0.164-0.139,0.305-0.236,0.424-0.291c0.119-0.055,0.271-0.109,0.457-0.162
					c0.185-0.053,0.377-0.078,0.576-0.078c0.359,0,0.682,0.064,0.964,0.195c0.282,0.129,0.515,0.285,0.696,0.469
					c0.184,0.182,0.339,0.443,0.466,0.783c0.127,0.342,0.223,0.649,0.287,0.926c0.063,0.277,0.11,0.65,0.145,1.121
					c0.034,0.471,0.053,0.852,0.06,1.141c0.005,0.291,0.008,0.691,0.008,1.2v0.157c0,0.465-0.023,0.914-0.07,1.346
					c-0.047,0.433-0.133,0.87-0.258,1.315c-0.125,0.446-0.281,0.832-0.474,1.158c-0.19,0.327-0.444,0.594-0.764,0.801
					c-0.317,0.209-0.682,0.313-1.093,0.313c-0.719,0-1.428-0.369-2.125-1.104v4.142h-2.125V43.836z M540.715,39.055
					c0.228,0,0.416-0.082,0.568-0.248s0.265-0.402,0.333-0.711c0.068-0.307,0.117-0.611,0.141-0.913
					c0.025-0.302,0.038-0.654,0.038-1.059l-0.017-1.402c0-0.25-0.002-0.45-0.004-0.602c-0.003-0.152-0.014-0.355-0.029-0.607
					c-0.018-0.251-0.04-0.457-0.07-0.617c-0.031-0.161-0.076-0.338-0.137-0.531c-0.063-0.194-0.136-0.346-0.222-0.457
					c-0.086-0.111-0.195-0.205-0.332-0.282c-0.136-0.077-0.289-0.116-0.461-0.116c-0.082,0-0.162,0.006-0.236,0.017
					c-0.074,0.011-0.152,0.028-0.232,0.054s-0.146,0.047-0.198,0.066c-0.054,0.019-0.12,0.051-0.203,0.096
					c-0.083,0.045-0.144,0.076-0.179,0.096c-0.036,0.02-0.1,0.057-0.188,0.111c-0.088,0.056-0.146,0.089-0.166,0.1v6.575
					C539.607,38.911,540.139,39.055,540.715,39.055z"/>
				<path fill="#251610" d="M545.646,40.648V30.023h2.125v1.204c0.759-0.901,1.641-1.353,2.647-1.353
					c0.51,0,0.883,0.111,1.121,0.336s0.397,0.58,0.481,1.066c0.349-0.459,0.726-0.809,1.129-1.046
					c0.402-0.237,0.913-0.356,1.526-0.356c0.177,0,0.337,0.018,0.479,0.053c0.141,0.037,0.264,0.08,0.369,0.129
					c0.104,0.051,0.196,0.127,0.276,0.229c0.081,0.103,0.147,0.197,0.199,0.283c0.053,0.085,0.098,0.208,0.133,0.369
					c0.037,0.16,0.063,0.293,0.08,0.398c0.016,0.104,0.029,0.26,0.041,0.465c0.012,0.204,0.018,0.365,0.018,0.48
					c0,0.117,0,0.291,0,0.523c0,0.05,0,0.088,0,0.116v7.729h-2.125v-7.753c0-0.028,0-0.072,0-0.133c0-0.184-0.004-0.324-0.01-0.424
					c-0.005-0.1-0.022-0.215-0.053-0.344c-0.031-0.131-0.085-0.227-0.162-0.287c-0.078-0.061-0.18-0.092-0.308-0.092
					c-0.216,0-0.433,0.043-0.647,0.129s-0.383,0.169-0.502,0.25c-0.119,0.08-0.268,0.191-0.443,0.336v8.317h-2.125v-7.712
					c0-0.033,0-0.083,0-0.149c0-0.155,0-0.271,0-0.349s-0.011-0.178-0.028-0.303c-0.021-0.125-0.047-0.217-0.08-0.278
					s-0.086-0.116-0.157-0.166c-0.07-0.05-0.161-0.075-0.267-0.075c-0.521,0-1.052,0.225-1.594,0.673v8.359L545.646,40.648
					L545.646,40.648z"/>
				<path fill="#251610" d="M565.555,40.799c-1.341,0-2.361-0.394-3.066-1.18c-0.707-0.785-1.102-1.859-1.185-3.222l2.125-0.531
					c0.105,2.126,0.813,3.188,2.126,3.188c1.063,0,1.594-0.531,1.594-1.594c0-0.315-0.043-0.608-0.129-0.876
					c-0.086-0.269-0.217-0.516-0.395-0.738c-0.177-0.225-0.337-0.404-0.48-0.541c-0.145-0.135-0.342-0.303-0.59-0.502l-2.657-2.125
					c-0.485-0.381-0.875-0.867-1.166-1.457c-0.291-0.588-0.436-1.26-0.436-2.013c0-1.096,0.34-1.968,1.021-2.615
					c0.682-0.647,1.584-0.972,2.706-0.972c1.208,0,2.166,0.295,2.878,0.885c0.712,0.589,1.148,1.423,1.314,2.503
					c0.018,0.115,0.037,0.276,0.059,0.481l-2.125,0.531c-0.006-0.094-0.02-0.234-0.041-0.423c-0.095-0.676-0.307-1.217-0.635-1.623
					c-0.33-0.408-0.813-0.611-1.45-0.611c-0.51,0-0.901,0.143-1.179,0.428s-0.415,0.682-0.415,1.191
					c0,0.837,0.354,1.536,1.063,2.101l2.656,2.125c1.416,1.146,2.125,2.516,2.125,4.109c0,1.091-0.336,1.943-1.008,2.558
					C567.592,40.491,566.689,40.799,565.555,40.799z"/>
				<path fill="#251610" d="M572.254,40.799c-0.465,0-0.839-0.165-1.121-0.494c-0.281-0.33-0.424-0.738-0.424-1.225v-9.058h2.125
					v8.41c0,0.222,0.068,0.401,0.203,0.54c0.137,0.138,0.313,0.207,0.527,0.207c0.116,0,0.229-0.014,0.342-0.041
					c0.108-0.028,0.22-0.076,0.327-0.146c0.108-0.068,0.192-0.123,0.254-0.166c0.061-0.041,0.147-0.111,0.262-0.211
					c0.114-0.1,0.185-0.16,0.211-0.183v-8.41h2.125v10.626h-2.125v-1.145c-0.21,0.182-0.363,0.314-0.461,0.398
					c-0.096,0.082-0.244,0.195-0.444,0.336c-0.198,0.141-0.375,0.243-0.526,0.307c-0.152,0.064-0.342,0.122-0.568,0.174
					C572.732,40.772,572.497,40.799,572.254,40.799z"/>
				<path fill="#251610" d="M578.929,40.648V30.023h2.125v1.146c0.314-0.288,0.572-0.508,0.772-0.66
					c0.199-0.152,0.475-0.297,0.826-0.432c0.352-0.136,0.727-0.203,1.125-0.203c0.453,0,0.82,0.166,1.104,0.498
					s0.424,0.738,0.424,1.22v9.057h-2.125v-7.97c0-0.37-0.053-0.641-0.158-0.809c-0.104-0.169-0.317-0.254-0.639-0.254
					c-0.184,0-0.365,0.037-0.545,0.113c-0.181,0.074-0.313,0.143-0.403,0.207c-0.088,0.063-0.215,0.164-0.381,0.303v8.409H578.929z"
					/>
				<path fill="#251610" d="M589.646,40.799c-0.471,0-0.883-0.133-1.232-0.398c-0.352-0.266-0.623-0.626-0.813-1.08
					c-0.19-0.453-0.334-0.926-0.428-1.414c-0.094-0.491-0.151-1.019-0.174-1.583c-0.012-0.26-0.012-0.896,0-1.909
					c0.011-0.365,0.027-0.696,0.049-0.991c0.022-0.297,0.062-0.605,0.112-0.926c0.053-0.321,0.119-0.605,0.199-0.852
					c0.081-0.246,0.187-0.484,0.318-0.713c0.133-0.23,0.288-0.42,0.465-0.569c0.179-0.149,0.392-0.269,0.641-0.356
					c0.249-0.089,0.525-0.133,0.83-0.133c0.236,0,0.462,0.031,0.669,0.096c0.208,0.063,0.405,0.162,0.594,0.299
					c0.188,0.135,0.339,0.256,0.452,0.36s0.262,0.255,0.444,0.448v-5.297h2.125v14.868h-2.125v-0.963
					c-0.321,0.332-0.647,0.602-0.979,0.806C590.461,40.696,590.078,40.799,589.646,40.799z M590.178,39.055
					c0.516,0,1.046-0.11,1.594-0.332V32.04c-0.476-0.282-1.007-0.424-1.594-0.424c-0.211,0-0.389,0.052-0.531,0.154
					c-0.145,0.102-0.253,0.252-0.323,0.447c-0.072,0.197-0.125,0.398-0.158,0.607c-0.033,0.207-0.053,0.451-0.06,0.734
					c-0.021,1.239-0.021,2.221,0,2.946c0.007,0.354,0.025,0.669,0.06,0.947c0.033,0.277,0.087,0.543,0.162,0.801
					c0.074,0.258,0.184,0.455,0.328,0.594C589.798,38.986,589.973,39.055,590.178,39.055z"/>
				<path fill="#251610" d="M597.731,40.799c-0.593,0-1.095-0.256-1.508-0.768c-0.411-0.513-0.617-1.09-0.617-1.731
					c0-0.515,0.087-0.983,0.262-1.404c0.174-0.42,0.356-0.756,0.552-1.008c0.195-0.252,0.519-0.512,0.972-0.781
					c0.453-0.268,0.799-0.451,1.03-0.551c0.232-0.1,0.636-0.264,1.211-0.49c0.101-0.039,0.175-0.069,0.226-0.092V33.21
					c0-0.536-0.074-0.953-0.226-1.248c-0.147-0.297-0.428-0.445-0.838-0.445c-0.365,0-0.627,0.127-0.785,0.379
					c-0.158,0.251-0.248,0.598-0.271,1.041c-0.005,0.061-0.008,0.152-0.008,0.273h-2.125c0.012-1.018,0.296-1.828,0.854-2.432
					c0.56-0.604,1.336-0.904,2.333-0.904c0.99,0,1.771,0.305,2.337,0.916c0.567,0.612,0.852,1.419,0.852,2.42v4.782
					c0,1.107,0.092,1.992,0.272,2.656h-2.116l-0.281-1.594c-0.111,0.222-0.201,0.394-0.271,0.516
					c-0.069,0.121-0.17,0.271-0.303,0.451c-0.133,0.181-0.267,0.318-0.398,0.416c-0.133,0.097-0.299,0.182-0.498,0.253
					C598.189,40.761,597.97,40.799,597.731,40.799z M598.795,39.055c0.149,0,0.295-0.044,0.436-0.133
					c0.143-0.088,0.248-0.174,0.32-0.257c0.071-0.083,0.16-0.194,0.267-0.332c0.016-0.028,0.028-0.047,0.041-0.058v-2.94
					c-0.089,0.062-0.235,0.155-0.439,0.283c-0.205,0.127-0.369,0.23-0.49,0.311c-0.121,0.081-0.269,0.191-0.438,0.332
					c-0.172,0.141-0.306,0.277-0.398,0.406c-0.096,0.131-0.179,0.29-0.251,0.479c-0.071,0.188-0.106,0.386-0.106,0.59
					C597.731,38.615,598.086,39.055,598.795,39.055z"/>
				<path fill="#251610" d="M603.535,43.305v-1.594c0.42,0,0.756-0.027,1.008-0.082c0.252-0.056,0.441-0.154,0.568-0.295
					c0.128-0.141,0.209-0.297,0.246-0.465c0.034-0.169,0.053-0.402,0.053-0.701l-2.406-10.146h2.125
					c0.824,4.555,1.27,7.034,1.336,7.438c0.117-0.747,0.249-1.534,0.396-2.362c0.146-0.827,0.313-1.74,0.498-2.738
					c0.186-1,0.327-1.778,0.428-2.338h2.125l-2.656,11.157c-0.178,0.77-0.552,1.316-1.122,1.641
					c-0.57,0.322-1.364,0.484-2.383,0.484h-0.216V43.305z"/>
				<path fill="#251610" d="M613.837,40.799c-0.875,0-1.576-0.261-2.104-0.781c-0.529-0.52-0.892-1.195-1.084-2.025l1.594-0.531
					c0.382,1.063,0.913,1.594,1.594,1.594c0.338,0,0.601-0.092,0.786-0.277c0.185-0.185,0.277-0.447,0.277-0.785
					c0-0.492-0.179-0.902-0.531-1.229l-2.126-1.594c-0.238-0.16-0.438-0.311-0.599-0.451c-0.159-0.143-0.323-0.314-0.489-0.52
					c-0.166-0.206-0.291-0.435-0.377-0.689c-0.086-0.254-0.13-0.531-0.13-0.83c0-0.907,0.289-1.602,0.867-2.083
					s1.353-0.722,2.32-0.722c0.459,0,0.876,0.072,1.247,0.219c0.369,0.147,0.682,0.354,0.934,0.619
					c0.252,0.265,0.459,0.561,0.621,0.885c0.164,0.322,0.293,0.684,0.388,1.082l-1.595,0.531c-0.078-0.21-0.153-0.391-0.231-0.543
					s-0.183-0.316-0.312-0.494c-0.131-0.178-0.284-0.314-0.461-0.41c-0.179-0.098-0.375-0.146-0.591-0.146
					c-0.338,0-0.6,0.094-0.785,0.279c-0.185,0.185-0.276,0.446-0.276,0.783c0,0.332,0.178,0.631,0.53,0.896l2.126,1.594
					c0.238,0.188,0.441,0.369,0.609,0.545c0.17,0.174,0.334,0.375,0.494,0.605c0.16,0.229,0.283,0.485,0.365,0.768
					c0.084,0.282,0.125,0.585,0.125,0.905c0,0.908-0.289,1.603-0.867,2.084S614.807,40.799,613.837,40.799z"/>
				<path fill="#251610" d="M617.881,41.18v-1.594c0.276,0,0.516-0.086,0.718-0.262c0.202-0.174,0.36-0.394,0.475-0.659
					s0.203-0.601,0.27-1.005c0.067-0.404,0.109-0.789,0.129-1.154c0.021-0.365,0.029-0.78,0.029-1.245
					c0-0.266-0.005-0.629-0.013-1.092c-0.009-0.462-0.014-0.781-0.014-0.959c0-0.177,0.005-0.5,0.014-0.971
					c0.008-0.471,0.013-0.842,0.013-1.112c0-0.465-0.01-0.878-0.029-1.241c-0.02-0.362-0.063-0.743-0.129-1.142
					c-0.065-0.399-0.155-0.73-0.27-0.996s-0.271-0.484-0.475-0.656c-0.202-0.172-0.44-0.258-0.718-0.258v-1.593
					c0.442,0,0.844,0.059,1.203,0.178c0.36,0.119,0.666,0.305,0.918,0.557s0.47,0.516,0.655,0.792
					c0.186,0.277,0.335,0.635,0.448,1.076c0.112,0.439,0.205,0.838,0.277,1.195c0.072,0.356,0.122,0.813,0.149,1.37
					c0.026,0.557,0.046,1.016,0.054,1.377c0.009,0.363,0.013,0.838,0.013,1.424c0,0.676-0.004,1.219-0.013,1.631
					c-0.008,0.413-0.037,0.934-0.087,1.561c-0.05,0.629-0.122,1.14-0.216,1.528c-0.094,0.391-0.231,0.814-0.411,1.271
					c-0.18,0.455-0.399,0.813-0.66,1.07c-0.26,0.258-0.588,0.473-0.982,0.646C618.834,41.094,618.385,41.18,617.881,41.18z"/>
			</g>
		</g>
	</g>
	<g>
		<g>
			<g>
				<rect x="15.25" fill="#D02437" width="336" height="65"/>
			</g>
		</g>
		<g>
			<g>
				<path fill="#FFFFFF" d="M40.899,44.392v-24.5h9.625v2.625h-6.125v7.875h4.375v2.625h-4.375v11.375H40.899z"/>
				<path fill="#FFFFFF" d="M51.427,44.392v-17.5h3.5v2.338c0.355-0.692,0.873-1.296,1.552-1.812
					c0.679-0.515,1.433-0.772,2.263-0.772c0.027,0,0.214,0.019,0.561,0.055v3.869c-0.647-0.255-1.294-0.383-1.941-0.383
					c-0.729,0-1.317,0.219-1.764,0.656c-0.447,0.438-0.67,1.017-0.67,1.736v11.813H51.427z"/>
				<path fill="#FFFFFF" d="M61.052,24.267v-3.5h3.5v3.5H61.052z M61.052,44.392v-17.5h3.5v17.5H61.052z"/>
				<path fill="#FFFFFF" d="M75.489,44.392v-19.25h-2.625v-2.625c1.759-0.629,2.926-1.504,3.5-2.625h2.625v24.5H75.489z"/>
				<path fill="#FFFFFF" d="M84.239,44.392v-19.25h-2.625v-2.625c1.759-0.629,2.926-1.504,3.5-2.625h2.625v24.5H84.239z"/>
				<path fill="#FFFFFF" d="M96.927,44.392v-24.5h2.625l6.125,15.148V19.892h3.5v24.5h-2.488l-6.262-16.297v16.297H96.927z"/>
				<path fill="#FFFFFF" d="M121.481,42.998c-0.812,1.094-2.156,1.642-4.033,1.642c-1.878,0-3.222-0.548-4.033-1.642
					c-0.812-1.095-1.217-2.67-1.217-4.73v-5.25c0-2.06,0.405-3.637,1.217-4.73c0.811-1.094,2.155-1.641,4.033-1.641
					c1.877,0,3.222,0.547,4.033,1.641c0.811,1.094,1.217,2.671,1.217,4.73v5.25C122.698,40.327,122.292,41.903,121.481,42.998z
					 M116.799,41.658c0.187,0.073,0.403,0.108,0.649,0.108c0.246,0,0.462-0.035,0.649-0.108c0.187-0.073,0.342-0.162,0.465-0.267
					s0.226-0.261,0.308-0.466s0.146-0.385,0.191-0.54c0.045-0.154,0.077-0.378,0.096-0.67c0.018-0.292,0.029-0.521,0.034-0.69
					c0.004-0.168,0.007-0.421,0.007-0.759v-5.25c0-0.337-0.002-0.59-0.007-0.759c-0.005-0.168-0.016-0.398-0.034-0.69
					c-0.019-0.292-0.05-0.515-0.096-0.67s-0.109-0.335-0.191-0.54s-0.185-0.36-0.308-0.465c-0.123-0.104-0.278-0.193-0.465-0.267
					c-0.187-0.073-0.403-0.109-0.649-0.109c-0.246,0-0.463,0.037-0.649,0.109c-0.187,0.073-0.342,0.162-0.465,0.267
					s-0.226,0.26-0.308,0.465s-0.146,0.385-0.191,0.54c-0.046,0.155-0.078,0.378-0.096,0.67c-0.019,0.292-0.03,0.522-0.034,0.69
					c-0.005,0.169-0.007,0.422-0.007,0.759v5.25c0,0.337,0.002,0.59,0.007,0.759c0.004,0.169,0.016,0.399,0.034,0.69
					c0.018,0.292,0.05,0.516,0.096,0.67c0.045,0.155,0.109,0.335,0.191,0.54s0.185,0.36,0.308,0.466
					C116.457,41.496,116.612,41.585,116.799,41.658z"/>
				<path fill="#FFFFFF" d="M128.181,44.392l-3.938-17.5h3.363l2.434,13.138l2.215-13.138h3.363l-3.91,17.5H128.181z"/>
				<path fill="#FFFFFF" d="M141.579,38.267v-2.625h5.25v2.625H141.579z"/>
				<path fill="#FFFFFF" d="M160.651,44.638c-2.206,0-3.89-0.646-5.052-1.941c-1.162-1.293-1.812-3.063-1.948-5.304l3.5-0.875
					c0.173,3.5,1.34,5.25,3.5,5.25c1.75,0,2.625-0.875,2.625-2.625c0-0.52-0.071-1-0.212-1.442
					c-0.142-0.442-0.358-0.848-0.649-1.217c-0.292-0.369-0.556-0.665-0.793-0.889c-0.237-0.223-0.561-0.499-0.971-0.827l-4.375-3.5
					c-0.802-0.629-1.442-1.429-1.921-2.399c-0.479-0.97-0.718-2.076-0.718-3.315c0-1.805,0.561-3.24,1.682-4.307
					c1.121-1.067,2.606-1.6,4.457-1.6c1.987,0,3.566,0.485,4.737,1.456c1.171,0.971,1.894,2.345,2.167,4.122
					c0.027,0.191,0.059,0.456,0.096,0.793l-3.5,0.875c-0.009-0.155-0.032-0.387-0.068-0.697c-0.155-1.112-0.504-2.003-1.046-2.673
					s-1.338-1.005-2.386-1.005c-0.839,0-1.486,0.235-1.941,0.704c-0.456,0.47-0.684,1.124-0.684,1.962
					c0,1.376,0.583,2.529,1.75,3.459l4.375,3.5c2.333,1.887,3.5,4.143,3.5,6.768c0,1.796-0.554,3.198-1.661,4.211
					C164.008,44.133,162.52,44.638,160.651,44.638z"/>
				<path fill="#FFFFFF" d="M171.685,44.638c-0.766,0-1.381-0.271-1.846-0.813c-0.465-0.542-0.697-1.215-0.697-2.018V26.892h3.5
					v13.85c0,0.364,0.111,0.661,0.335,0.889c0.223,0.228,0.513,0.343,0.868,0.343c0.191,0,0.378-0.022,0.561-0.068
					c0.182-0.045,0.362-0.125,0.54-0.239c0.178-0.114,0.316-0.205,0.417-0.272c0.1-0.068,0.244-0.186,0.431-0.35
					s0.303-0.264,0.349-0.301v-13.85h3.5v17.5h-3.5v-1.888c-0.347,0.302-0.6,0.521-0.759,0.656c-0.16,0.137-0.403,0.321-0.731,0.554
					c-0.328,0.233-0.618,0.401-0.868,0.506c-0.251,0.105-0.563,0.2-0.937,0.287C172.473,44.595,172.085,44.638,171.685,44.638z"/>
				<path fill="#FFFFFF" d="M182.677,44.392v-17.5h3.5v1.887c0.52-0.474,0.943-0.836,1.271-1.087c0.328-0.25,0.781-0.487,1.36-0.711
					c0.579-0.223,1.196-0.335,1.853-0.335c0.747,0,1.354,0.273,1.818,0.82c0.464,0.547,0.697,1.217,0.697,2.01v14.916h-3.5V31.267
					c0-0.61-0.087-1.055-0.26-1.333c-0.173-0.278-0.524-0.417-1.053-0.417c-0.301,0-0.6,0.062-0.896,0.185
					c-0.296,0.123-0.518,0.237-0.663,0.342c-0.146,0.105-0.355,0.271-0.629,0.499v13.851h-3.498L182.677,44.392L182.677,44.392z"/>
				<path fill="#FFFFFF" d="M203.827,44.392v-19.25h-2.625v-2.625c1.759-0.629,2.926-1.504,3.5-2.625h2.625v24.5H203.827z"/>
				<path fill="#FFFFFF" d="M216.091,44.638c-2.151,0-3.712-0.621-4.683-1.865c-0.971-1.244-1.456-3.034-1.456-5.367
					c0-1.522,0.209-2.746,0.629-3.671c0.419-0.925,1.094-1.684,2.023-2.276c-0.784-0.592-1.363-1.321-1.736-2.188
					c-0.374-0.866-0.561-1.95-0.561-3.254c0-2.023,0.483-3.591,1.449-4.703c0.966-1.112,2.411-1.668,4.334-1.668
					c1.914,0,3.352,0.559,4.313,1.675c0.961,1.117,1.442,2.682,1.442,4.696c0,1.313-0.185,2.399-0.554,3.261
					c-0.369,0.862-0.946,1.588-1.729,2.181c0.92,0.602,1.59,1.367,2.01,2.297c0.419,0.93,0.629,2.146,0.629,3.65
					c0,2.333-0.483,4.123-1.449,5.367C219.787,44.017,218.232,44.638,216.091,44.638z M214.915,41.528
					c0.328,0.16,0.72,0.238,1.176,0.238s0.848-0.082,1.176-0.246s0.583-0.369,0.766-0.615c0.182-0.245,0.326-0.571,0.431-0.978
					c0.104-0.405,0.171-0.795,0.198-1.169c0.027-0.374,0.041-0.825,0.041-1.354c0-0.583-0.037-1.105-0.109-1.565
					c-0.073-0.46-0.201-0.9-0.383-1.319c-0.183-0.419-0.451-0.743-0.807-0.971c-0.355-0.228-0.793-0.342-1.313-0.342
					s-0.959,0.114-1.319,0.342s-0.634,0.549-0.82,0.964c-0.187,0.415-0.317,0.853-0.39,1.313c-0.073,0.46-0.109,0.987-0.109,1.579
					c0,0.529,0.016,0.982,0.048,1.36c0.032,0.378,0.1,0.771,0.205,1.176c0.104,0.407,0.25,0.731,0.438,0.978
					C214.329,41.166,214.587,41.369,214.915,41.528z M216.091,29.859c0.456,0,0.836-0.104,1.142-0.314
					c0.305-0.209,0.531-0.513,0.677-0.909s0.244-0.795,0.294-1.196c0.05-0.401,0.075-0.875,0.075-1.422c0-2.333-0.729-3.5-2.188-3.5
					c-1.477,0-2.215,1.167-2.215,3.5c0,0.547,0.027,1.023,0.082,1.429c0.055,0.406,0.155,0.805,0.301,1.196
					c0.146,0.392,0.371,0.693,0.677,0.902C215.241,29.754,215.626,29.859,216.091,29.859z"/>
				<path fill="#FFFFFF" d="M230.515,44.392v-24.5h5.428c2.561,0,4.368,0.524,5.421,1.572c1.053,1.048,1.579,2.857,1.579,5.428
					v9.625c0,2.689-0.536,4.673-1.606,5.954c-1.071,1.281-2.878,1.921-5.421,1.921H230.515z M234.015,41.767h1.928
					c0.574,0,1.066-0.052,1.477-0.156c0.41-0.104,0.743-0.297,0.998-0.574c0.255-0.278,0.456-0.542,0.602-0.793
					c0.146-0.25,0.248-0.64,0.308-1.169c0.059-0.528,0.093-0.964,0.103-1.306c0.009-0.342,0.014-0.873,0.014-1.593
					c0-0.237,0-0.415,0-0.533v-7.875c0-0.446-0.002-0.802-0.007-1.066c-0.005-0.264-0.019-0.576-0.041-0.937
					c-0.023-0.36-0.057-0.645-0.103-0.854s-0.109-0.444-0.191-0.704c-0.082-0.26-0.185-0.462-0.308-0.608s-0.273-0.298-0.451-0.458
					c-0.178-0.159-0.383-0.278-0.615-0.355c-0.232-0.077-0.504-0.141-0.813-0.191c-0.31-0.05-0.656-0.075-1.039-0.075h-1.859v19.248
					L234.015,41.767L234.015,41.767z"/>
				<path fill="#FFFFFF" d="M250.804,44.638c-0.848,0-1.584-0.146-2.208-0.438c-0.625-0.292-1.121-0.672-1.49-1.143
					c-0.369-0.469-0.668-1.07-0.896-1.805c-0.228-0.732-0.385-1.467-0.472-2.201c-0.087-0.733-0.139-1.588-0.157-2.563
					c-0.027-0.766-0.027-1.531,0-2.297c0.027-0.911,0.089-1.72,0.185-2.427c0.096-0.706,0.262-1.392,0.499-2.058
					c0.237-0.665,0.544-1.212,0.923-1.641c0.378-0.428,0.875-0.772,1.49-1.032c0.615-0.26,1.333-0.39,2.153-0.39
					c0.747,0,1.406,0.098,1.976,0.294c0.569,0.196,1.043,0.492,1.422,0.889c0.378,0.396,0.692,0.836,0.943,1.319
					c0.25,0.483,0.439,1.069,0.567,1.757c0.127,0.688,0.216,1.365,0.267,2.03c0.05,0.666,0.075,1.431,0.075,2.297v0.41h-7v0.875
					c0,0.119,0,0.306,0,0.561c-0.019,0.337-0.021,0.686-0.007,1.046c0.014,0.36,0.029,0.713,0.048,1.06
					c0.018,0.347,0.068,0.677,0.15,0.991s0.182,0.59,0.301,0.827c0.118,0.237,0.285,0.424,0.499,0.562
					c0.214,0.137,0.467,0.205,0.759,0.205c0.364,0,0.665-0.07,0.902-0.213c0.237-0.141,0.412-0.353,0.526-0.636
					c0.114-0.282,0.193-0.565,0.239-0.849c0.045-0.281,0.073-0.637,0.082-1.065v-0.738h3.473v0.697
					c-0.082,1.869-0.542,3.281-1.381,4.238C253.834,44.16,252.544,44.638,250.804,44.638z M249.081,33.892h3.473v-1.053
					c-0.009-0.465-0.037-0.87-0.082-1.217c-0.046-0.346-0.125-0.692-0.239-1.039c-0.114-0.346-0.29-0.61-0.526-0.793
					c-0.237-0.182-0.529-0.273-0.875-0.273c-0.355,0-0.654,0.096-0.896,0.287c-0.242,0.191-0.419,0.467-0.533,0.827
					c-0.114,0.36-0.194,0.713-0.239,1.06c-0.046,0.347-0.073,0.761-0.082,1.244L249.081,33.892L249.081,33.892z"/>
				<path fill="#FFFFFF" d="M262.985,44.638c-0.848,0-1.584-0.142-2.208-0.424c-0.625-0.281-1.124-0.65-1.497-1.107
					c-0.374-0.455-0.675-1.037-0.902-1.742c-0.228-0.706-0.385-1.413-0.472-2.119c-0.087-0.706-0.139-1.529-0.157-2.468
					c-0.027-0.756-0.027-1.518,0-2.283c0.018-0.93,0.07-1.75,0.157-2.461c0.086-0.711,0.246-1.419,0.479-2.126
					c0.232-0.706,0.533-1.285,0.902-1.736s0.866-0.818,1.49-1.101c0.624-0.282,1.36-0.424,2.208-0.424
					c1.841,0,3.163,0.497,3.965,1.49c0.802,0.994,1.23,2.466,1.285,4.416v0.465h-3.5v-0.492c-0.009-0.438-0.039-0.82-0.089-1.148
					s-0.132-0.656-0.246-0.984c-0.114-0.328-0.292-0.581-0.533-0.759c-0.242-0.178-0.536-0.267-0.882-0.267
					c-0.347,0-0.638,0.103-0.875,0.308c-0.237,0.205-0.417,0.499-0.54,0.882c-0.123,0.383-0.212,0.777-0.267,1.183
					c-0.055,0.406-0.087,0.873-0.096,1.401c-0.037,1.13-0.037,2.835,0,5.113c0.018,0.501,0.055,0.941,0.109,1.319
					c0.055,0.378,0.144,0.743,0.267,1.094s0.303,0.622,0.54,0.813s0.524,0.287,0.861,0.287c0.31,0,0.576-0.059,0.8-0.178
					c0.223-0.118,0.394-0.264,0.513-0.438c0.118-0.174,0.212-0.405,0.28-0.697c0.068-0.292,0.111-0.563,0.13-0.813
					c0.018-0.25,0.027-0.567,0.027-0.95v-0.424h3.5v0.451c-0.027,0.921-0.142,1.734-0.342,2.44
					c-0.201,0.706-0.504,1.323-0.909,1.853c-0.406,0.529-0.943,0.932-1.613,1.21C264.7,44.5,263.906,44.638,262.985,44.638z"/>
				<path fill="#FFFFFF" d="M275.468,44.392v-3.5l6.139-8.75c0.073-0.1,0.232-0.321,0.479-0.663c0.247-0.342,0.41-0.574,0.492-0.697
					c0.082-0.123,0.223-0.342,0.424-0.656c0.2-0.314,0.339-0.556,0.417-0.725c0.077-0.168,0.182-0.408,0.314-0.718
					c0.132-0.31,0.226-0.585,0.28-0.827c0.055-0.241,0.104-0.524,0.15-0.848c0.045-0.323,0.068-0.654,0.068-0.991
					c0-0.975-0.226-1.802-0.677-2.481c-0.451-0.679-1.101-1.019-1.948-1.019c-0.501,0-0.93,0.123-1.285,0.369
					c-0.355,0.246-0.627,0.588-0.813,1.025c-0.187,0.438-0.321,0.9-0.403,1.388c-0.082,0.488-0.123,1.019-0.123,1.593v0.875h-3.5
					v-0.875c0-2.297,0.492-4.079,1.477-5.346c0.984-1.267,2.534-1.9,4.648-1.9c1.987,0,3.504,0.559,4.553,1.675
					c1.048,1.117,1.572,2.682,1.572,4.696c0,0.757-0.066,1.463-0.198,2.119c-0.132,0.656-0.342,1.285-0.629,1.887
					c-0.287,0.602-0.552,1.099-0.793,1.49c-0.242,0.392-0.577,0.894-1.005,1.504l-6.125,7.875h8.75v3.5H275.468z"/>
				<path fill="#FFFFFF" d="M295.88,44.638c-1.331,0-2.463-0.313-3.397-0.943c-0.935-0.629-1.623-1.479-2.064-2.549
					c-0.442-1.071-0.663-2.323-0.663-3.753v-10.5c0-2.251,0.51-4.021,1.531-5.312c1.021-1.29,2.552-1.935,4.594-1.935
					c2.032,0,3.562,0.647,4.587,1.941c1.025,1.294,1.538,3.063,1.538,5.305v10.5c0,2.197-0.522,3.954-1.565,5.271
					C299.396,43.98,297.876,44.638,295.88,44.638z M295.88,41.767c1.75,0,2.625-1.457,2.625-4.375v-10.5
					c0-0.492-0.019-0.932-0.055-1.319c-0.037-0.387-0.112-0.779-0.226-1.176c-0.114-0.396-0.265-0.727-0.451-0.991
					c-0.187-0.264-0.44-0.479-0.759-0.643c-0.319-0.164-0.697-0.246-1.135-0.246s-0.816,0.082-1.135,0.246
					c-0.319,0.164-0.572,0.378-0.759,0.643c-0.187,0.265-0.337,0.595-0.451,0.991c-0.114,0.396-0.189,0.789-0.226,1.176
					c-0.037,0.388-0.055,0.827-0.055,1.319v10.5c0,0.574,0.039,1.103,0.116,1.586c0.077,0.483,0.209,0.943,0.396,1.38
					c0.187,0.438,0.458,0.783,0.813,1.033C294.937,41.642,295.369,41.767,295.88,41.767z"/>
				<path fill="#FFFFFF" d="M306.817,44.392v-19.25h-2.625v-2.625c1.759-0.629,2.926-1.504,3.5-2.625h2.625v24.5H306.817z"/>
				<path fill="#FFFFFF" d="M319.724,44.638c-0.839,0-1.6-0.142-2.283-0.424c-0.683-0.281-1.26-0.67-1.729-1.162
					c-0.469-0.492-0.866-1.082-1.189-1.771c-0.323-0.688-0.559-1.43-0.704-2.229c-0.146-0.797-0.219-1.643-0.219-2.536v-7.875
					c0-1.002,0.06-1.93,0.178-2.782c0.118-0.852,0.323-1.668,0.615-2.447c0.292-0.779,0.665-1.442,1.121-1.989
					s1.041-0.979,1.757-1.299c0.716-0.319,1.533-0.479,2.454-0.479c1.969,0,3.481,0.559,4.539,1.675
					c1.058,1.117,1.586,2.682,1.586,4.696h-3.5c0-1.167-0.189-2.042-0.567-2.625s-1.064-0.875-2.058-0.875
					c-1.75,0-2.625,1.75-2.625,5.25v3.5c0.675-1.167,1.841-1.75,3.5-1.75c0.984,0,1.825,0.171,2.522,0.513
					c0.697,0.342,1.239,0.839,1.627,1.49c0.388,0.652,0.668,1.383,0.841,2.194c0.173,0.812,0.26,1.746,0.26,2.803
					c0,1.148-0.114,2.199-0.342,3.151c-0.228,0.953-0.579,1.807-1.053,2.563c-0.474,0.758-1.112,1.348-1.914,1.771
					S320.799,44.638,319.724,44.638z M318.438,41.398c0.355,0.246,0.784,0.369,1.285,0.369s0.93-0.123,1.285-0.369
					s0.627-0.588,0.813-1.024c0.186-0.437,0.321-0.9,0.403-1.388c0.082-0.487,0.123-1.019,0.123-1.593c0-0.346,0-0.608,0-0.786
					s-0.007-0.431-0.021-0.759c-0.014-0.328-0.032-0.581-0.055-0.759c-0.023-0.178-0.055-0.403-0.096-0.677
					s-0.094-0.485-0.157-0.636s-0.144-0.328-0.239-0.533c-0.095-0.205-0.207-0.362-0.335-0.472s-0.273-0.219-0.438-0.328
					s-0.355-0.187-0.574-0.232c-0.219-0.045-0.456-0.068-0.711-0.068c-1.13,0-2.005,0.583-2.625,1.75v3.5
					c0,0.583,0.041,1.117,0.123,1.6c0.082,0.483,0.217,0.943,0.403,1.381S318.083,41.151,318.438,41.398z"/>
			</g>
		</g>
	</g>
</g>
</svg>
