<?xml version="1.0" encoding="utf-8"?>
<!-- Generator: Adobe Illustrator 16.0.3, SVG Export Plug-In . SVG Version: 6.00 Build 0)  -->
<!DOCTYPE svg PUBLIC "-//W3C//DTD SVG 1.1//EN" "http://www.w3.org/Graphics/SVG/1.1/DTD/svg11.dtd">
<svg version="1.1" id="Layer_1" xmlns="http://www.w3.org/2000/svg" xmlns:xlink="http://www.w3.org/1999/xlink" x="0px" y="0px"
	 width="366px" height="110.587px" viewBox="0 0 366 110.587" enable-background="new 0 0 366 110.587" xml:space="preserve">
<g>
	<g>
		<rect x="34" y="45.587" fill="#AB9055" width="298" height="65"/>
		<rect x="15" y="-0.413" fill="#CF2337" width="336" height="65"/>
		<g>
			<g>
				<path fill="#FFFFFF" d="M41.649,44.161v-24.5h9.625v2.625h-6.125v7.875h4.375v2.625h-4.375v11.375H41.649z"/>
				<path fill="#FFFFFF" d="M52.177,44.161v-17.5h3.5v2.338c0.355-0.692,0.873-1.296,1.552-1.812
					c0.679-0.515,1.433-0.772,2.263-0.772c0.027,0,0.214,0.019,0.561,0.055v3.869c-0.647-0.255-1.294-0.383-1.941-0.383
					c-0.729,0-1.317,0.219-1.764,0.656c-0.447,0.438-0.67,1.017-0.67,1.736v11.813H52.177z"/>
				<path fill="#FFFFFF" d="M61.802,24.036v-3.5h3.5v3.5H61.802z M61.802,44.161v-17.5h3.5v17.5H61.802z"/>
				<path fill="#FFFFFF" d="M76.239,44.161v-19.25h-2.625v-2.625c1.759-0.629,2.926-1.504,3.5-2.625h2.625v24.5H76.239z"/>
				<path fill="#FFFFFF" d="M84.989,44.161v-19.25h-2.625v-2.625c1.759-0.629,2.926-1.504,3.5-2.625h2.625v24.5H84.989z"/>
				<path fill="#FFFFFF" d="M97.677,44.161v-24.5h2.625l6.125,15.148V19.661h3.5v24.5h-2.488l-6.262-16.297v16.297H97.677z"/>
				<path fill="#FFFFFF" d="M122.231,42.767c-0.812,1.094-2.156,1.641-4.033,1.641c-1.878,0-3.222-0.547-4.033-1.641
					c-0.812-1.094-1.217-2.67-1.217-4.73v-5.25c0-2.06,0.405-3.637,1.217-4.73c0.811-1.094,2.155-1.641,4.033-1.641
					c1.877,0,3.222,0.547,4.033,1.641c0.811,1.094,1.217,2.671,1.217,4.73v5.25C123.448,40.096,123.042,41.673,122.231,42.767z
					 M117.549,41.427c0.187,0.073,0.403,0.109,0.649,0.109c0.246,0,0.462-0.036,0.649-0.109c0.187-0.073,0.342-0.162,0.465-0.267
					c0.123-0.104,0.226-0.26,0.308-0.465s0.146-0.385,0.191-0.54c0.045-0.155,0.077-0.378,0.096-0.67
					c0.018-0.292,0.029-0.521,0.034-0.69c0.004-0.168,0.007-0.421,0.007-0.759v-5.25c0-0.337-0.002-0.59-0.007-0.759
					c-0.005-0.168-0.016-0.398-0.034-0.69c-0.019-0.292-0.05-0.515-0.096-0.67s-0.109-0.335-0.191-0.54s-0.185-0.36-0.308-0.465
					c-0.123-0.104-0.278-0.193-0.465-0.267c-0.187-0.073-0.403-0.109-0.649-0.109c-0.246,0-0.463,0.037-0.649,0.109
					c-0.187,0.073-0.342,0.162-0.465,0.267s-0.226,0.26-0.308,0.465s-0.146,0.385-0.191,0.54c-0.046,0.155-0.078,0.378-0.096,0.67
					c-0.019,0.292-0.03,0.522-0.034,0.69c-0.005,0.169-0.007,0.422-0.007,0.759v5.25c0,0.337,0.002,0.59,0.007,0.759
					c0.004,0.169,0.016,0.399,0.034,0.69c0.018,0.292,0.05,0.515,0.096,0.67c0.045,0.155,0.109,0.335,0.191,0.54
					s0.185,0.36,0.308,0.465S117.362,41.354,117.549,41.427z"/>
				<path fill="#FFFFFF" d="M128.931,44.161l-3.938-17.5h3.363L130.79,39.8l2.215-13.139h3.363l-3.91,17.5H128.931z"/>
				<path fill="#FFFFFF" d="M142.329,38.036v-2.625h5.25v2.625H142.329z"/>
				<path fill="#FFFFFF" d="M161.401,44.407c-2.206,0-3.89-0.647-5.052-1.941c-1.162-1.294-1.812-3.063-1.948-5.305l3.5-0.875
					c0.173,3.5,1.34,5.25,3.5,5.25c1.75,0,2.625-0.875,2.625-2.625c0-0.52-0.071-1-0.212-1.442
					c-0.142-0.442-0.358-0.848-0.649-1.217c-0.292-0.369-0.556-0.665-0.793-0.889c-0.237-0.223-0.561-0.499-0.971-0.827l-4.375-3.5
					c-0.802-0.629-1.442-1.429-1.921-2.399c-0.479-0.97-0.718-2.076-0.718-3.315c0-1.805,0.561-3.24,1.682-4.307
					c1.121-1.067,2.606-1.6,4.457-1.6c1.987,0,3.566,0.485,4.737,1.456c1.171,0.971,1.894,2.345,2.167,4.122
					c0.027,0.191,0.059,0.456,0.096,0.793l-3.5,0.875c-0.009-0.155-0.032-0.387-0.068-0.697c-0.155-1.112-0.504-2.003-1.046-2.673
					s-1.338-1.005-2.386-1.005c-0.839,0-1.486,0.235-1.941,0.704c-0.456,0.47-0.684,1.124-0.684,1.962
					c0,1.376,0.583,2.529,1.75,3.459l4.375,3.5c2.333,1.887,3.5,4.143,3.5,6.768c0,1.796-0.554,3.199-1.661,4.211
					C164.758,43.902,163.27,44.407,161.401,44.407z"/>
				<path fill="#FFFFFF" d="M172.435,44.407c-0.766,0-1.381-0.271-1.846-0.813c-0.465-0.542-0.697-1.214-0.697-2.017V26.661h3.5
					v13.85c0,0.365,0.111,0.661,0.335,0.889c0.223,0.228,0.513,0.342,0.868,0.342c0.191,0,0.378-0.022,0.561-0.068
					c0.182-0.045,0.362-0.125,0.54-0.239c0.178-0.114,0.316-0.205,0.417-0.273c0.1-0.068,0.244-0.185,0.431-0.349
					s0.303-0.264,0.349-0.301v-13.85h3.5v17.5h-3.5v-1.887c-0.347,0.301-0.6,0.52-0.759,0.656c-0.16,0.137-0.403,0.321-0.731,0.554
					c-0.328,0.233-0.618,0.401-0.868,0.506c-0.251,0.105-0.563,0.2-0.937,0.287C173.223,44.364,172.835,44.407,172.435,44.407z"/>
				<path fill="#FFFFFF" d="M183.427,44.161v-17.5h3.5v1.887c0.521-0.474,0.943-0.836,1.271-1.087c0.327-0.25,0.78-0.487,1.36-0.711
					c0.578-0.223,1.195-0.335,1.853-0.335c0.747,0,1.354,0.273,1.817,0.82c0.465,0.547,0.697,1.217,0.697,2.01v14.916h-3.5V31.036
					c0-0.61-0.087-1.055-0.26-1.333c-0.173-0.278-0.523-0.417-1.053-0.417c-0.301,0-0.6,0.062-0.896,0.185s-0.518,0.237-0.662,0.342
					c-0.146,0.105-0.355,0.271-0.63,0.499v13.85L183.427,44.161L183.427,44.161z"/>
				<path fill="#FFFFFF" d="M204.577,44.161v-19.25h-2.625v-2.625c1.759-0.629,2.926-1.504,3.5-2.625h2.625v24.5H204.577z"/>
				<path fill="#FFFFFF" d="M216.841,44.407c-2.151,0-3.712-0.622-4.683-1.866s-1.456-3.033-1.456-5.366
					c0-1.522,0.21-2.746,0.629-3.671c0.419-0.925,1.094-1.684,2.022-2.276c-0.783-0.592-1.361-1.321-1.735-2.188
					c-0.374-0.866-0.562-1.95-0.562-3.254c0-2.023,0.483-3.591,1.449-4.703c0.967-1.112,2.411-1.668,4.334-1.668
					c1.914,0,3.352,0.559,4.313,1.675c0.962,1.117,1.443,2.682,1.443,4.696c0,1.313-0.186,2.399-0.555,3.261
					c-0.369,0.862-0.945,1.588-1.729,2.181c0.92,0.602,1.59,1.367,2.01,2.297c0.419,0.93,0.629,2.146,0.629,3.65
					c0,2.333-0.483,4.122-1.449,5.366S218.982,44.407,216.841,44.407z M215.665,41.297c0.328,0.16,0.72,0.239,1.176,0.239
					s0.849-0.082,1.177-0.246c0.327-0.164,0.582-0.369,0.766-0.615c0.183-0.246,0.324-0.572,0.431-0.978
					c0.104-0.405,0.171-0.795,0.198-1.169s0.041-0.825,0.041-1.354c0-0.583-0.036-1.105-0.109-1.565
					c-0.072-0.46-0.199-0.9-0.383-1.319s-0.451-0.743-0.807-0.971s-0.793-0.342-1.313-0.342s-0.96,0.114-1.319,0.342
					s-0.633,0.549-0.819,0.964c-0.188,0.415-0.316,0.853-0.39,1.313c-0.074,0.46-0.109,0.987-0.109,1.579
					c0,0.529,0.016,0.982,0.048,1.36c0.031,0.378,0.101,0.771,0.205,1.176c0.104,0.406,0.25,0.731,0.438,0.978
					C215.079,40.935,215.337,41.138,215.665,41.297z M216.841,29.628c0.456,0,0.836-0.104,1.142-0.314
					c0.306-0.209,0.531-0.513,0.678-0.909s0.242-0.795,0.294-1.196c0.05-0.401,0.075-0.875,0.075-1.422c0-2.333-0.729-3.5-2.188-3.5
					c-1.478,0-2.215,1.167-2.215,3.5c0,0.547,0.026,1.023,0.082,1.429c0.056,0.406,0.155,0.805,0.301,1.196
					c0.146,0.392,0.371,0.693,0.677,0.902C215.99,29.523,216.376,29.628,216.841,29.628z"/>
				<path fill="#FFFFFF" d="M231.266,44.161v-24.5h5.428c2.562,0,4.367,0.524,5.42,1.572c1.054,1.048,1.58,2.857,1.58,5.428v9.625
					c0,2.689-0.536,4.674-1.606,5.954c-1.071,1.281-2.878,1.921-5.421,1.921H231.266z M234.766,41.536h1.928
					c0.574,0,1.065-0.052,1.477-0.157c0.41-0.104,0.743-0.296,0.998-0.574c0.255-0.278,0.456-0.542,0.602-0.793
					c0.146-0.25,0.248-0.64,0.309-1.169c0.059-0.528,0.094-0.964,0.104-1.306c0.008-0.342,0.014-0.873,0.014-1.593
					c0-0.237,0-0.415,0-0.533v-7.875c0-0.446-0.004-0.802-0.008-1.066c-0.004-0.264-0.019-0.576-0.041-0.937
					c-0.022-0.36-0.057-0.645-0.103-0.854s-0.108-0.444-0.19-0.704c-0.082-0.26-0.186-0.462-0.309-0.608s-0.273-0.298-0.451-0.458
					c-0.178-0.159-0.383-0.278-0.615-0.355c-0.231-0.077-0.504-0.141-0.813-0.191c-0.311-0.05-0.656-0.075-1.039-0.075h-1.859
					v19.248H234.766z"/>
				<path fill="#FFFFFF" d="M251.555,44.407c-0.849,0-1.584-0.146-2.209-0.438s-1.121-0.672-1.49-1.142
					c-0.369-0.469-0.668-1.071-0.896-1.805c-0.228-0.733-0.386-1.467-0.472-2.201c-0.088-0.733-0.139-1.588-0.157-2.563
					c-0.026-0.766-0.026-1.531,0-2.297c0.026-0.911,0.089-1.72,0.185-2.427c0.096-0.706,0.262-1.392,0.5-2.058
					c0.236-0.665,0.543-1.212,0.922-1.641c0.379-0.428,0.875-0.772,1.49-1.032c0.615-0.26,1.334-0.39,2.153-0.39
					c0.747,0,1.405,0.098,1.976,0.294c0.569,0.196,1.043,0.492,1.422,0.889c0.379,0.396,0.692,0.836,0.943,1.319
					c0.25,0.483,0.439,1.069,0.566,1.757c0.129,0.688,0.217,1.365,0.268,2.03c0.051,0.666,0.075,1.431,0.075,2.297v0.41h-7v0.875
					c0,0.119,0,0.306,0,0.561c-0.019,0.337-0.021,0.686-0.007,1.046c0.014,0.36,0.029,0.713,0.048,1.06
					c0.019,0.347,0.067,0.677,0.149,0.991s0.184,0.59,0.302,0.827s0.284,0.424,0.499,0.561c0.214,0.137,0.467,0.205,0.759,0.205
					c0.364,0,0.665-0.07,0.901-0.212c0.238-0.141,0.412-0.353,0.526-0.636c0.113-0.282,0.193-0.565,0.239-0.848
					c0.046-0.282,0.072-0.638,0.082-1.066v-0.738h3.473v0.697c-0.082,1.869-0.541,3.281-1.381,4.238
					C254.583,43.927,253.295,44.407,251.555,44.407z M249.831,33.661h3.474v-1.053c-0.01-0.465-0.037-0.87-0.082-1.217
					c-0.047-0.346-0.127-0.692-0.24-1.039c-0.113-0.346-0.289-0.61-0.525-0.793c-0.236-0.182-0.527-0.273-0.875-0.273
					c-0.355,0-0.654,0.096-0.896,0.287c-0.242,0.191-0.42,0.467-0.533,0.827c-0.113,0.36-0.192,0.713-0.238,1.06
					s-0.073,0.761-0.082,1.244L249.831,33.661L249.831,33.661z"/>
				<path fill="#FFFFFF" d="M263.734,44.407c-0.848,0-1.584-0.142-2.207-0.424c-0.625-0.282-1.123-0.651-1.498-1.107
					c-0.373-0.456-0.674-1.037-0.901-1.743c-0.228-0.706-0.386-1.413-0.472-2.119c-0.088-0.706-0.139-1.529-0.157-2.468
					c-0.026-0.756-0.026-1.518,0-2.283c0.019-0.93,0.069-1.75,0.157-2.461c0.086-0.711,0.246-1.419,0.479-2.126
					c0.232-0.706,0.533-1.285,0.902-1.736s0.865-0.818,1.49-1.101c0.623-0.282,1.359-0.424,2.207-0.424
					c1.842,0,3.164,0.497,3.966,1.49c0.802,0.994,1.229,2.466,1.284,4.416v0.465h-3.5v-0.492c-0.008-0.438-0.039-0.82-0.088-1.148
					c-0.051-0.328-0.133-0.656-0.246-0.984c-0.114-0.328-0.293-0.581-0.533-0.759c-0.242-0.178-0.535-0.267-0.883-0.267
					c-0.346,0-0.637,0.103-0.875,0.308c-0.236,0.205-0.416,0.499-0.539,0.882c-0.123,0.383-0.213,0.777-0.268,1.183
					c-0.055,0.406-0.087,0.873-0.096,1.401c-0.036,1.13-0.036,2.835,0,5.113c0.02,0.501,0.055,0.941,0.109,1.319
					c0.055,0.378,0.144,0.743,0.267,1.094s0.304,0.622,0.54,0.813s0.523,0.287,0.861,0.287c0.31,0,0.576-0.059,0.8-0.178
					c0.223-0.118,0.396-0.264,0.513-0.438c0.118-0.173,0.212-0.405,0.28-0.697c0.067-0.292,0.11-0.563,0.13-0.813
					s0.027-0.567,0.027-0.95v-0.424h3.5v0.451c-0.027,0.921-0.143,1.734-0.342,2.44c-0.201,0.707-0.504,1.324-0.91,1.853
					c-0.405,0.529-0.942,0.932-1.612,1.21C265.45,44.268,264.656,44.407,263.734,44.407z"/>
				<path fill="#FFFFFF" d="M276.218,44.161v-3.5l6.14-8.75c0.072-0.1,0.231-0.321,0.479-0.663c0.247-0.342,0.41-0.574,0.492-0.697
					c0.082-0.123,0.224-0.342,0.424-0.656s0.339-0.556,0.417-0.725c0.077-0.168,0.183-0.408,0.313-0.718
					c0.133-0.31,0.227-0.585,0.281-0.827c0.055-0.241,0.104-0.524,0.149-0.848c0.046-0.323,0.067-0.654,0.067-0.991
					c0-0.975-0.226-1.802-0.676-2.481c-0.451-0.679-1.102-1.019-1.949-1.019c-0.5,0-0.93,0.123-1.285,0.369
					c-0.354,0.246-0.627,0.588-0.813,1.025c-0.188,0.438-0.32,0.9-0.402,1.388c-0.082,0.488-0.123,1.019-0.123,1.593v0.875h-3.5
					v-0.875c0-2.297,0.492-4.079,1.477-5.346s2.534-1.9,4.648-1.9c1.986,0,3.504,0.559,4.553,1.675
					c1.048,1.117,1.572,2.682,1.572,4.696c0,0.757-0.066,1.463-0.198,2.119c-0.134,0.656-0.343,1.285-0.63,1.887
					c-0.286,0.602-0.551,1.099-0.793,1.49c-0.241,0.392-0.575,0.894-1.004,1.504l-6.125,7.875h8.75v3.5H276.218z"/>
				<path fill="#FFFFFF" d="M296.63,44.407c-1.331,0-2.464-0.314-3.397-0.943c-0.935-0.629-1.623-1.479-2.063-2.55
					c-0.442-1.071-0.663-2.322-0.663-3.753v-10.5c0-2.251,0.512-4.021,1.531-5.312c1.021-1.29,2.552-1.935,4.594-1.935
					c2.032,0,3.563,0.647,4.587,1.941c1.025,1.294,1.538,3.063,1.538,5.305v10.5c0,2.197-0.521,3.954-1.564,5.271
					C300.146,43.749,298.626,44.407,296.63,44.407z M296.63,41.536c1.75,0,2.625-1.458,2.625-4.375v-10.5
					c0-0.492-0.019-0.932-0.055-1.319c-0.036-0.387-0.112-0.779-0.226-1.176c-0.115-0.396-0.266-0.727-0.451-0.991
					c-0.188-0.264-0.439-0.479-0.76-0.643c-0.32-0.164-0.697-0.246-1.135-0.246s-0.814,0.082-1.135,0.246
					c-0.32,0.164-0.572,0.378-0.76,0.643c-0.188,0.265-0.338,0.595-0.45,0.991c-0.114,0.396-0.188,0.789-0.226,1.176
					c-0.037,0.388-0.056,0.827-0.056,1.319v10.5c0,0.574,0.038,1.103,0.116,1.586c0.076,0.483,0.209,0.943,0.396,1.381
					c0.187,0.438,0.457,0.782,0.813,1.032C295.688,41.411,296.119,41.536,296.63,41.536z"/>
				<path fill="#FFFFFF" d="M307.566,44.161v-19.25h-2.625v-2.625c1.76-0.629,2.927-1.504,3.5-2.625h2.625v24.5H307.566z"/>
				<path fill="#FFFFFF" d="M320.475,44.407c-0.84,0-1.601-0.142-2.283-0.424c-0.684-0.282-1.26-0.67-1.729-1.162
					c-0.469-0.492-0.866-1.082-1.188-1.771c-0.323-0.688-0.56-1.431-0.705-2.229c-0.146-0.797-0.219-1.643-0.219-2.536V28.41
					c0-1.002,0.061-1.93,0.178-2.782c0.119-0.852,0.324-1.668,0.615-2.447c0.293-0.779,0.666-1.442,1.121-1.989
					c0.457-0.547,1.041-0.979,1.758-1.299c0.715-0.319,1.533-0.479,2.453-0.479c1.969,0,3.481,0.559,4.539,1.675
					c1.059,1.117,1.586,2.682,1.586,4.696h-3.5c0-1.167-0.188-2.042-0.566-2.625s-1.064-0.875-2.059-0.875
					c-1.75,0-2.625,1.75-2.625,5.25v3.5c0.676-1.167,1.842-1.75,3.5-1.75c0.984,0,1.825,0.171,2.522,0.513
					c0.696,0.342,1.239,0.839,1.627,1.49c0.388,0.652,0.668,1.383,0.841,2.194c0.174,0.812,0.26,1.746,0.26,2.803
					c0,1.148-0.113,2.199-0.342,3.151c-0.228,0.953-0.578,1.807-1.053,2.563c-0.475,0.757-1.112,1.347-1.914,1.771
					S321.549,44.407,320.475,44.407z M319.188,41.167c0.355,0.246,0.785,0.369,1.285,0.369c0.502,0,0.93-0.123,1.285-0.369
					s0.627-0.588,0.813-1.025c0.187-0.437,0.322-0.9,0.404-1.388c0.082-0.487,0.123-1.019,0.123-1.593c0-0.346,0-0.608,0-0.786
					s-0.008-0.431-0.021-0.759c-0.014-0.328-0.032-0.581-0.055-0.759c-0.023-0.178-0.056-0.403-0.097-0.677
					c-0.041-0.274-0.094-0.485-0.157-0.636c-0.063-0.151-0.144-0.328-0.238-0.533c-0.096-0.205-0.207-0.362-0.336-0.472
					c-0.127-0.11-0.272-0.219-0.438-0.328s-0.355-0.187-0.574-0.232s-0.455-0.068-0.711-0.068c-1.13,0-2.005,0.583-2.625,1.75v3.5
					c0,0.583,0.041,1.117,0.123,1.6c0.082,0.483,0.217,0.943,0.403,1.381S318.833,40.921,319.188,41.167z"/>
			</g>
		</g>
		<g>
			<g>
				<g>
					<path fill="#251610" d="M60.204,95.417V83.729H58.61v-1.594c1.067-0.382,1.775-0.913,2.125-1.593h1.594v14.873h-2.125V95.417z"
						/>
					<path fill="#251610" d="M67.907,95.567c-0.808,0-1.496-0.19-2.063-0.573c-0.566-0.382-0.984-0.896-1.254-1.548
						c-0.268-0.649-0.401-1.409-0.401-2.278v-6.375c0-1.366,0.31-2.441,0.93-3.226c0.62-0.782,1.549-1.175,2.789-1.175
						c1.234,0,2.162,0.395,2.785,1.179c0.622,0.786,0.934,1.859,0.934,3.222v6.375c0,1.334-0.316,2.399-0.95,3.201
						C70.042,95.167,69.119,95.567,67.907,95.567z M67.907,93.823c1.063,0,1.594-0.885,1.594-2.655v-6.375
						c0-0.299-0.011-0.565-0.033-0.801c-0.021-0.234-0.067-0.474-0.137-0.714c-0.069-0.241-0.161-0.44-0.273-0.603
						c-0.113-0.161-0.268-0.29-0.461-0.391c-0.192-0.1-0.423-0.149-0.688-0.149s-0.495,0.051-0.689,0.149
						c-0.193,0.1-0.347,0.229-0.46,0.391c-0.113,0.16-0.205,0.359-0.273,0.603c-0.069,0.24-0.115,0.479-0.137,0.714
						c-0.022,0.234-0.033,0.502-0.033,0.801v6.375c0,0.35,0.022,0.67,0.069,0.963c0.048,0.293,0.127,0.572,0.241,0.839
						c0.113,0.266,0.278,0.475,0.494,0.626C67.334,93.748,67.597,93.823,67.907,93.823z"/>
					<path fill="#251610" d="M72.954,95.417v-2.125h2.125v2.125H72.954z"/>
					<path fill="#251610" d="M79.977,95.567c-1.207,0-2.128-0.34-2.765-1.019c-0.636-0.678-0.955-1.627-0.955-2.852v-0.531h2.125
						c0,0.332,0.011,0.617,0.029,0.853c0.019,0.233,0.061,0.476,0.124,0.718c0.064,0.243,0.151,0.438,0.262,0.585
						c0.111,0.147,0.267,0.269,0.465,0.361c0.199,0.093,0.438,0.141,0.715,0.141c0.276,0,0.515-0.047,0.714-0.141
						c0.198-0.095,0.354-0.216,0.465-0.361s0.198-0.342,0.262-0.585c0.063-0.242,0.105-0.482,0.124-0.718
						c0.021-0.235,0.029-0.521,0.029-0.853c0-0.852-0.165-1.508-0.494-1.967s-0.873-0.688-1.631-0.688v-2.125
						c0.774,0,1.323-0.158,1.644-0.478c0.321-0.318,0.481-0.867,0.481-1.647c0-0.702-0.116-1.232-0.35-1.591
						c-0.231-0.354-0.646-0.534-1.244-0.534c-0.277,0-0.516,0.047-0.715,0.142c-0.198,0.096-0.354,0.215-0.465,0.36
						c-0.11,0.147-0.197,0.342-0.262,0.586c-0.063,0.243-0.105,0.481-0.124,0.719c-0.02,0.233-0.029,0.519-0.029,0.851h-2.125V84.26
						c0-1.218,0.319-2.166,0.959-2.847c0.64-0.682,1.56-1.021,2.761-1.021c1.207,0,2.128,0.34,2.764,1.018s0.955,1.629,0.955,2.852
						c0,0.842-0.188,1.531-0.564,2.072c-0.376,0.539-0.896,0.91-1.561,1.114c0.691,0.232,1.219,0.669,1.581,1.304
						c0.362,0.637,0.544,1.441,0.544,2.416c0,1.395-0.299,2.477-0.896,3.246C82.202,95.182,81.26,95.567,79.977,95.567z"/>
					<path fill="#251610" d="M88.65,95.567c-0.809,0-1.496-0.19-2.063-0.573c-0.566-0.382-0.984-0.896-1.254-1.548
						c-0.268-0.649-0.402-1.409-0.402-2.278v-6.375c0-1.366,0.311-2.441,0.931-3.226c0.62-0.782,1.549-1.175,2.789-1.175
						c1.233,0,2.162,0.395,2.785,1.179c0.622,0.786,0.934,1.859,0.934,3.222v6.375c0,1.334-0.317,2.399-0.95,3.201
						C90.785,95.167,89.862,95.567,88.65,95.567z M88.65,93.823c1.063,0,1.594-0.885,1.594-2.655v-6.375
						c0-0.299-0.011-0.565-0.033-0.801c-0.021-0.234-0.067-0.474-0.137-0.714c-0.069-0.241-0.161-0.44-0.274-0.603
						c-0.112-0.161-0.267-0.29-0.46-0.391c-0.192-0.1-0.423-0.149-0.688-0.149c-0.267,0-0.495,0.051-0.689,0.149
						c-0.193,0.1-0.347,0.229-0.46,0.391c-0.114,0.16-0.205,0.359-0.273,0.603c-0.069,0.24-0.115,0.479-0.138,0.714
						c-0.021,0.234-0.032,0.502-0.032,0.801v6.375c0,0.35,0.022,0.67,0.069,0.963s0.127,0.572,0.241,0.839
						c0.113,0.266,0.278,0.475,0.494,0.626C88.078,93.748,88.34,93.823,88.65,93.823z"/>
					<path fill="#251610" d="M95.988,95.567c-0.592,0-1.094-0.256-1.507-0.769c-0.412-0.512-0.618-1.09-0.618-1.73
						c0-0.515,0.087-0.982,0.262-1.402c0.174-0.42,0.358-0.756,0.552-1.009c0.194-0.252,0.519-0.512,0.972-0.78
						c0.454-0.269,0.797-0.451,1.028-0.551c0.232-0.101,0.637-0.265,1.212-0.49c0.101-0.039,0.175-0.069,0.225-0.092v-0.765
						c0-0.536-0.075-0.953-0.225-1.248c-0.148-0.297-0.429-0.444-0.838-0.444c-0.364,0-0.627,0.127-0.783,0.379
						c-0.158,0.25-0.248,0.598-0.271,1.041c-0.005,0.061-0.008,0.151-0.008,0.272h-2.125c0.011-1.019,0.296-1.828,0.854-2.433
						c0.56-0.604,1.336-0.903,2.333-0.903c0.991,0,1.771,0.305,2.338,0.916c0.566,0.612,0.851,1.419,0.851,2.42v4.781
						c0,1.106,0.091,1.991,0.274,2.655h-2.117l-0.282-1.594c-0.111,0.223-0.201,0.395-0.271,0.516
						c-0.068,0.121-0.17,0.271-0.303,0.451c-0.133,0.182-0.266,0.318-0.397,0.416c-0.134,0.098-0.3,0.183-0.498,0.254
						C96.447,95.529,96.227,95.567,95.988,95.567z M97.051,93.823c0.149,0,0.295-0.044,0.437-0.133
						c0.142-0.088,0.248-0.174,0.32-0.257c0.071-0.083,0.16-0.194,0.266-0.332c0.017-0.028,0.03-0.047,0.042-0.059v-2.938
						c-0.088,0.062-0.235,0.155-0.44,0.283c-0.205,0.127-0.367,0.229-0.489,0.311s-0.27,0.191-0.44,0.332
						c-0.171,0.142-0.304,0.277-0.398,0.406c-0.094,0.131-0.177,0.29-0.249,0.479c-0.071,0.188-0.107,0.385-0.107,0.588
						C95.988,93.382,96.342,93.823,97.051,93.823z"/>
					<path fill="#251610" d="M102.065,95.417V84.792h2.125v1.203c0.758-0.9,1.641-1.353,2.647-1.353c0.509,0,0.883,0.11,1.121,0.336
						s0.398,0.58,0.481,1.065c0.349-0.459,0.725-0.809,1.129-1.045c0.404-0.237,0.913-0.356,1.526-0.356
						c0.178,0,0.337,0.019,0.478,0.053c0.142,0.037,0.265,0.08,0.37,0.13c0.104,0.051,0.198,0.127,0.277,0.229
						c0.081,0.103,0.147,0.197,0.199,0.283c0.054,0.084,0.098,0.207,0.133,0.369c0.036,0.16,0.063,0.293,0.079,0.397
						c0.018,0.104,0.03,0.26,0.042,0.465c0.012,0.204,0.018,0.365,0.018,0.479c0,0.117,0,0.291,0,0.523c0,0.051,0,0.088,0,0.116
						v7.728h-2.125v-7.752c0-0.027,0-0.072,0-0.133c0-0.184-0.003-0.324-0.008-0.424c-0.006-0.1-0.023-0.215-0.055-0.344
						c-0.03-0.131-0.084-0.227-0.162-0.287s-0.18-0.092-0.307-0.092c-0.216,0-0.432,0.043-0.647,0.129
						c-0.215,0.086-0.383,0.169-0.502,0.25c-0.118,0.08-0.267,0.191-0.443,0.336v8.316h-2.125v-7.711c0-0.033,0-0.084,0-0.149
						c0-0.155,0-0.271,0-0.349s-0.01-0.179-0.029-0.304s-0.046-0.217-0.079-0.278c-0.033-0.061-0.086-0.115-0.158-0.166
						c-0.071-0.049-0.16-0.074-0.266-0.074c-0.52,0-1.051,0.225-1.594,0.673v8.358h-2.126V95.417z"/>
				</g>
				<path fill="#251610" d="M121.386,95.567c-0.835,0-1.442-0.213-1.821-0.64c-0.379-0.428-0.574-1.071-0.585-1.936v-6.606h-1.063
					v-1.595h1.063v-3.718h2.125v3.718h1.594v1.595h-1.594v6.2c0,0.427,0.058,0.738,0.174,0.938s0.352,0.299,0.706,0.299
					c0.154,0,0.393-0.026,0.714-0.081v1.727C122.167,95.535,121.73,95.567,121.386,95.567z"/>
				<path fill="#251610" d="M129.629,94.571c-0.493,0.664-1.309,0.996-2.449,0.996c-1.14,0-1.955-0.332-2.448-0.996
					s-0.739-1.622-0.739-2.873V88.51c0-1.25,0.246-2.207,0.739-2.871s1.309-0.996,2.448-0.996c1.141,0,1.956,0.332,2.449,0.996
					s0.739,1.621,0.739,2.871v3.188C130.368,92.949,130.122,93.907,129.629,94.571z M126.786,93.755
					c0.113,0.045,0.245,0.066,0.394,0.066c0.149,0,0.281-0.021,0.395-0.066c0.114-0.043,0.208-0.098,0.282-0.161
					s0.137-0.156,0.187-0.281s0.088-0.233,0.116-0.328c0.028-0.094,0.047-0.229,0.058-0.405c0.012-0.179,0.019-0.317,0.021-0.42
					s0.004-0.257,0.004-0.462V88.51c0-0.204-0.001-0.357-0.004-0.462c-0.002-0.102-0.009-0.24-0.021-0.418
					c-0.011-0.178-0.029-0.313-0.058-0.406s-0.066-0.204-0.116-0.327c-0.05-0.125-0.112-0.219-0.187-0.283
					c-0.074-0.063-0.168-0.116-0.282-0.161c-0.113-0.045-0.245-0.066-0.395-0.066c-0.148,0-0.28,0.021-0.394,0.066
					c-0.114,0.045-0.208,0.098-0.282,0.161c-0.075,0.064-0.137,0.158-0.187,0.283c-0.05,0.123-0.088,0.231-0.116,0.327
					c-0.028,0.095-0.047,0.229-0.058,0.406c-0.012,0.178-0.019,0.316-0.021,0.418c-0.003,0.104-0.004,0.258-0.004,0.462v3.188
					c0,0.205,0.001,0.359,0.004,0.462c0.002,0.103,0.009,0.241,0.021,0.42c0.011,0.176,0.029,0.313,0.058,0.405
					s0.066,0.203,0.116,0.328s0.111,0.22,0.187,0.281C126.578,93.66,126.672,93.712,126.786,93.755z"/>
				<path fill="#251610" d="M139.075,95.567c-1.195,0-2.114-0.34-2.756-1.019c-0.643-0.678-0.963-1.627-0.963-2.852h2.125
					c0,0.709,0.114,1.24,0.345,1.594c0.229,0.354,0.646,0.531,1.249,0.531c1.063,0,1.594-1.063,1.594-3.188V88.51
					c-0.42,0.709-1.129,1.063-2.125,1.063c-0.598,0-1.107-0.104-1.531-0.311s-0.753-0.511-0.987-0.904
					c-0.235-0.396-0.405-0.84-0.511-1.333c-0.104-0.492-0.157-1.061-0.157-1.702c0-0.696,0.068-1.334,0.208-1.911
					c0.138-0.58,0.352-1.099,0.639-1.558c0.288-0.46,0.675-0.817,1.162-1.075s1.057-0.387,1.71-0.387
					c0.509,0,0.971,0.086,1.386,0.258s0.766,0.406,1.05,0.705c0.285,0.3,0.525,0.657,0.723,1.075
					c0.196,0.418,0.339,0.868,0.428,1.354c0.089,0.484,0.133,0.996,0.133,1.538v4.781c0,0.608-0.036,1.172-0.107,1.688
					c-0.072,0.518-0.196,1.015-0.374,1.486c-0.179,0.473-0.404,0.875-0.682,1.207c-0.276,0.332-0.632,0.596-1.065,0.789
					C140.131,95.469,139.634,95.567,139.075,95.567z M139.075,87.979c0.675,0,1.207-0.354,1.594-1.063v-2.125
					c0-0.354-0.024-0.678-0.075-0.971c-0.05-0.293-0.131-0.572-0.244-0.838c-0.114-0.266-0.278-0.475-0.494-0.623
					c-0.217-0.148-0.477-0.225-0.78-0.225s-0.564,0.074-0.78,0.225s-0.38,0.357-0.494,0.623c-0.112,0.266-0.194,0.546-0.245,0.842
					c-0.05,0.297-0.074,0.619-0.074,0.967c0,0.211,0,0.369,0,0.479c0,0.106,0.004,0.261,0.013,0.46
					c0.008,0.199,0.019,0.354,0.033,0.46c0.014,0.108,0.033,0.246,0.058,0.412c0.025,0.166,0.058,0.295,0.096,0.385
					c0.039,0.093,0.088,0.199,0.146,0.324c0.058,0.125,0.125,0.221,0.203,0.287c0.078,0.065,0.166,0.133,0.266,0.198
					c0.101,0.066,0.216,0.113,0.35,0.142C138.778,87.966,138.921,87.979,139.075,87.979z"/>
				<path fill="#251610" d="M144.114,95.417v-2.125h2.125v2.125H144.114z"/>
				<path fill="#251610" d="M151.136,95.567c-1.207,0-2.128-0.34-2.764-1.019c-0.636-0.678-0.955-1.627-0.955-2.852v-0.531h2.125
					c0,0.332,0.01,0.617,0.029,0.853c0.019,0.233,0.061,0.476,0.124,0.718c0.063,0.243,0.15,0.438,0.262,0.585
					s0.267,0.269,0.465,0.361c0.199,0.093,0.438,0.141,0.714,0.141c0.277,0,0.516-0.047,0.715-0.141
					c0.198-0.095,0.354-0.216,0.465-0.361c0.11-0.146,0.197-0.342,0.262-0.585c0.063-0.242,0.105-0.482,0.124-0.718
					c0.02-0.235,0.029-0.521,0.029-0.853c0-0.852-0.165-1.508-0.494-1.967s-0.873-0.688-1.631-0.688v-2.125
					c0.774,0,1.322-0.158,1.644-0.478c0.321-0.318,0.481-0.867,0.481-1.647c0-0.702-0.116-1.232-0.35-1.591
					c-0.231-0.354-0.646-0.534-1.245-0.534c-0.276,0-0.515,0.047-0.714,0.142c-0.199,0.096-0.354,0.215-0.465,0.36
					c-0.111,0.147-0.198,0.342-0.262,0.586c-0.063,0.243-0.105,0.481-0.124,0.719c-0.021,0.233-0.029,0.519-0.029,0.851h-2.125
					V84.26c0-1.218,0.319-2.166,0.959-2.847c0.64-0.682,1.56-1.021,2.76-1.021c1.207,0,2.128,0.34,2.765,1.018
					c0.636,0.678,0.955,1.629,0.955,2.852c0,0.842-0.188,1.531-0.564,2.072c-0.376,0.539-0.896,0.91-1.561,1.114
					c0.691,0.232,1.219,0.669,1.581,1.304c0.362,0.637,0.544,1.441,0.544,2.416c0,1.395-0.3,2.477-0.896,3.246
					C153.362,95.182,152.42,95.567,151.136,95.567z"/>
				<path fill="#251610" d="M159.812,95.567c-0.809,0-1.496-0.19-2.063-0.573c-0.567-0.382-0.985-0.896-1.254-1.548
					c-0.268-0.649-0.402-1.409-0.402-2.278v-6.375c0-1.366,0.311-2.441,0.931-3.226c0.62-0.782,1.549-1.175,2.789-1.175
					c1.233,0,2.162,0.395,2.784,1.179c0.622,0.786,0.935,1.859,0.935,3.222v6.375c0,1.334-0.317,2.399-0.95,3.201
					C161.945,95.167,161.023,95.567,159.812,95.567z M159.812,93.823c1.063,0,1.594-0.885,1.594-2.655v-6.375
					c0-0.299-0.011-0.565-0.033-0.801c-0.021-0.234-0.068-0.474-0.137-0.714c-0.069-0.241-0.161-0.44-0.274-0.603
					c-0.113-0.161-0.267-0.29-0.46-0.391c-0.192-0.1-0.423-0.149-0.688-0.149c-0.267,0-0.495,0.051-0.689,0.149
					c-0.194,0.1-0.347,0.229-0.46,0.391c-0.114,0.16-0.205,0.359-0.274,0.603c-0.068,0.24-0.114,0.479-0.137,0.714
					c-0.021,0.234-0.033,0.502-0.033,0.801v6.375c0,0.35,0.023,0.67,0.07,0.963s0.127,0.572,0.241,0.839
					c0.113,0.266,0.278,0.475,0.494,0.626C159.238,93.748,159.501,93.823,159.812,93.823z"/>
				<path fill="#251610" d="M165.297,98.604V84.792h2.125v1.063c0.171-0.182,0.291-0.307,0.357-0.373
					c0.065-0.066,0.181-0.169,0.345-0.307c0.163-0.139,0.304-0.236,0.423-0.291s0.271-0.109,0.457-0.162s0.377-0.078,0.577-0.078
					c0.36,0,0.681,0.064,0.963,0.195c0.282,0.129,0.516,0.285,0.697,0.469c0.183,0.182,0.337,0.443,0.465,0.783
					c0.127,0.342,0.223,0.648,0.287,0.926c0.063,0.277,0.112,0.65,0.145,1.121c0.033,0.471,0.054,0.852,0.059,1.141
					c0.005,0.291,0.008,0.691,0.008,1.2v0.157c0,0.465-0.023,0.914-0.071,1.346c-0.047,0.432-0.133,0.869-0.257,1.314
					c-0.125,0.445-0.282,0.832-0.474,1.158c-0.19,0.326-0.445,0.594-0.765,0.801c-0.317,0.209-0.682,0.313-1.091,0.313
					c-0.719,0-1.428-0.369-2.125-1.104v4.142h-2.125V98.604z M169.017,93.823c0.227,0,0.417-0.081,0.568-0.247
					c0.152-0.166,0.263-0.402,0.332-0.712c0.069-0.307,0.116-0.61,0.142-0.911c0.024-0.303,0.037-0.654,0.037-1.06l-0.017-1.401
					c0-0.25-0.001-0.451-0.004-0.603c-0.002-0.152-0.012-0.354-0.029-0.607c-0.017-0.251-0.04-0.456-0.07-0.616
					c-0.03-0.162-0.076-0.338-0.138-0.531c-0.061-0.194-0.134-0.346-0.22-0.457s-0.197-0.205-0.332-0.282
					c-0.136-0.077-0.29-0.116-0.461-0.116c-0.083,0-0.162,0.006-0.236,0.018c-0.075,0.011-0.151,0.027-0.231,0.054
					c-0.081,0.024-0.147,0.047-0.199,0.065c-0.053,0.021-0.121,0.051-0.204,0.097c-0.083,0.045-0.143,0.075-0.178,0.096
					c-0.036,0.021-0.1,0.058-0.188,0.111c-0.088,0.056-0.144,0.089-0.166,0.1v6.574C167.909,93.679,168.441,93.823,169.017,93.823z"
					/>
				<path fill="#251610" d="M173.947,95.417V84.792h2.125v1.203c0.758-0.9,1.641-1.353,2.647-1.353c0.51,0,0.884,0.11,1.121,0.336
					c0.238,0.226,0.397,0.58,0.481,1.065c0.349-0.459,0.726-0.809,1.129-1.045c0.404-0.237,0.912-0.356,1.527-0.356
					c0.178,0,0.336,0.019,0.478,0.053c0.142,0.037,0.265,0.08,0.368,0.13c0.105,0.051,0.199,0.127,0.279,0.229
					c0.08,0.103,0.146,0.197,0.198,0.283c0.054,0.084,0.097,0.207,0.134,0.369c0.035,0.16,0.063,0.293,0.078,0.397
					c0.018,0.104,0.03,0.26,0.041,0.465c0.012,0.204,0.018,0.365,0.018,0.479c0,0.117,0,0.291,0,0.523c0,0.051,0,0.088,0,0.116
					v7.728h-2.125v-7.752c0-0.027,0-0.072,0-0.133c0-0.184-0.004-0.324-0.008-0.424c-0.006-0.1-0.023-0.215-0.055-0.344
					c-0.031-0.131-0.084-0.227-0.162-0.287s-0.18-0.092-0.307-0.092c-0.217,0-0.432,0.043-0.648,0.129
					c-0.215,0.086-0.383,0.169-0.502,0.25c-0.119,0.08-0.267,0.191-0.443,0.336v8.316h-2.124v-7.711c0-0.033,0-0.084,0-0.149
					c0-0.155,0-0.271,0-0.349s-0.01-0.179-0.029-0.304s-0.046-0.217-0.079-0.278c-0.032-0.061-0.086-0.115-0.158-0.166
					c-0.071-0.049-0.16-0.074-0.266-0.074c-0.52,0-1.051,0.225-1.594,0.673v8.358h-2.125V95.417z"/>
				<path fill="#251610" d="M193.693,95.948c-0.441,0-0.844-0.059-1.203-0.178s-0.666-0.306-0.918-0.558
					c-0.25-0.252-0.469-0.516-0.654-0.793c-0.186-0.275-0.335-0.635-0.448-1.073c-0.114-0.439-0.206-0.839-0.278-1.195
					c-0.071-0.356-0.121-0.813-0.148-1.369c-0.027-0.557-0.046-1.016-0.055-1.379c-0.008-0.362-0.012-0.837-0.012-1.424
					c0-0.675,0.004-1.219,0.012-1.631c0.009-0.412,0.037-0.933,0.088-1.562c0.05-0.627,0.121-1.137,0.216-1.526
					c0.094-0.39,0.229-0.813,0.411-1.271c0.18-0.457,0.398-0.813,0.658-1.07c0.262-0.258,0.588-0.474,0.984-0.646
					c0.396-0.176,0.846-0.262,1.35-0.262v1.593c-0.276,0-0.518,0.088-0.719,0.263c-0.201,0.174-0.359,0.395-0.474,0.659
					c-0.113,0.267-0.203,0.601-0.271,1.004c-0.065,0.404-0.108,0.789-0.129,1.154c-0.019,0.364-0.027,0.78-0.027,1.245
					c0,0.266,0.004,0.63,0.012,1.091c0.009,0.463,0.014,0.782,0.014,0.959c0,0.179-0.005,0.502-0.014,0.972
					c-0.008,0.471-0.012,0.842-0.012,1.112c0,0.465,0.01,0.879,0.027,1.24c0.021,0.362,0.063,0.743,0.129,1.143
					c0.066,0.399,0.156,0.73,0.271,0.996c0.114,0.267,0.271,0.484,0.474,0.655c0.201,0.171,0.441,0.257,0.719,0.257v1.594H193.693z"
					/>
				<path fill="#251610" d="M195.803,95.417l2.723-13.106H194.6v-1.769h5.951v1.021l-2.706,13.854H195.803L195.803,95.417z"/>
				<path fill="#251610" d="M201.613,95.417v-2.125h2.125v2.125H201.613z"/>
				<path fill="#251610" d="M208.636,95.567c-1.206,0-2.128-0.34-2.765-1.019c-0.637-0.678-0.954-1.627-0.954-2.852v-0.531h2.125
					c0,0.332,0.01,0.617,0.028,0.853c0.02,0.233,0.062,0.476,0.125,0.718c0.063,0.243,0.149,0.438,0.262,0.585
					c0.111,0.147,0.266,0.269,0.465,0.361s0.438,0.141,0.714,0.141s0.515-0.047,0.714-0.141c0.199-0.095,0.354-0.216,0.465-0.361
					c0.111-0.146,0.197-0.342,0.263-0.585c0.063-0.242,0.104-0.482,0.124-0.718s0.029-0.521,0.029-0.853
					c0-0.852-0.166-1.508-0.494-1.967c-0.33-0.459-0.873-0.688-1.631-0.688v-2.125c0.773,0,1.322-0.158,1.644-0.478
					c0.321-0.318,0.481-0.867,0.481-1.647c0-0.702-0.117-1.232-0.35-1.591c-0.232-0.354-0.646-0.534-1.245-0.534
					c-0.276,0-0.515,0.047-0.714,0.142c-0.199,0.096-0.354,0.215-0.465,0.36c-0.111,0.147-0.197,0.342-0.262,0.586
					c-0.063,0.243-0.105,0.481-0.125,0.719c-0.02,0.233-0.028,0.519-0.028,0.851h-2.125V84.26c0-1.218,0.319-2.166,0.959-2.847
					c0.64-0.682,1.56-1.021,2.76-1.021c1.206,0,2.128,0.34,2.765,1.018s0.955,1.629,0.955,2.852c0,0.842-0.188,1.531-0.564,2.072
					c-0.376,0.539-0.896,0.91-1.561,1.114c0.691,0.232,1.219,0.669,1.58,1.304c0.363,0.637,0.545,1.441,0.545,2.416
					c0,1.395-0.3,2.477-0.896,3.246C210.861,95.182,209.92,95.567,208.636,95.567z"/>
				<path fill="#251610" d="M217.311,95.567c-0.809,0-1.496-0.19-2.063-0.573c-0.568-0.382-0.986-0.896-1.254-1.548
					c-0.27-0.649-0.402-1.409-0.402-2.278v-6.375c0-1.366,0.311-2.441,0.93-3.226c0.619-0.782,1.549-1.175,2.789-1.175
					c1.233,0,2.162,0.395,2.785,1.179c0.621,0.786,0.934,1.859,0.934,3.222v6.375c0,1.334-0.316,2.399-0.95,3.201
					C219.445,95.167,218.521,95.567,217.311,95.567z M217.311,93.823c1.063,0,1.594-0.885,1.594-2.655v-6.375
					c0-0.299-0.012-0.565-0.032-0.801c-0.022-0.234-0.068-0.474-0.138-0.714c-0.069-0.241-0.16-0.44-0.274-0.603
					c-0.113-0.161-0.267-0.29-0.46-0.391c-0.194-0.1-0.423-0.149-0.688-0.149c-0.266,0-0.496,0.051-0.689,0.149
					c-0.193,0.1-0.348,0.229-0.461,0.391c-0.113,0.16-0.205,0.359-0.273,0.603c-0.068,0.24-0.115,0.479-0.137,0.714
					s-0.033,0.502-0.033,0.801v6.375c0,0.35,0.023,0.67,0.07,0.963s0.127,0.572,0.24,0.839c0.113,0.266,0.277,0.475,0.494,0.626
					C216.736,93.748,217,93.823,217.311,93.823z"/>
				<path fill="#251610" d="M222.797,98.604V84.792h2.125v1.063c0.172-0.182,0.291-0.307,0.357-0.373
					c0.065-0.066,0.181-0.169,0.344-0.307c0.164-0.139,0.305-0.236,0.424-0.291s0.271-0.109,0.457-0.162s0.377-0.078,0.576-0.078
					c0.359,0,0.681,0.064,0.963,0.195c0.281,0.129,0.516,0.285,0.697,0.469c0.183,0.182,0.338,0.443,0.465,0.783
					c0.127,0.342,0.223,0.648,0.287,0.926c0.063,0.277,0.111,0.65,0.145,1.121c0.034,0.471,0.053,0.852,0.059,1.141
					c0.006,0.291,0.009,0.691,0.009,1.2v0.157c0,0.465-0.023,0.914-0.07,1.346s-0.133,0.869-0.258,1.314s-0.281,0.832-0.474,1.158
					c-0.19,0.326-0.444,0.594-0.764,0.801c-0.318,0.209-0.682,0.313-1.092,0.313c-0.719,0-1.428-0.369-2.125-1.104v4.142h-2.125
					V98.604z M226.516,93.823c0.227,0,0.416-0.081,0.568-0.247s0.264-0.402,0.332-0.712c0.068-0.307,0.117-0.61,0.141-0.911
					c0.025-0.303,0.038-0.654,0.038-1.06l-0.017-1.401c0-0.25-0.002-0.451-0.004-0.603c-0.004-0.152-0.014-0.354-0.029-0.607
					c-0.018-0.251-0.04-0.456-0.07-0.616c-0.031-0.162-0.076-0.338-0.137-0.531c-0.063-0.194-0.135-0.346-0.221-0.457
					s-0.196-0.205-0.332-0.282c-0.135-0.077-0.289-0.116-0.461-0.116c-0.082,0-0.162,0.006-0.236,0.018
					c-0.074,0.011-0.152,0.027-0.232,0.054s-0.146,0.047-0.199,0.065c-0.053,0.02-0.119,0.051-0.202,0.097
					c-0.083,0.045-0.144,0.075-0.179,0.096c-0.037,0.021-0.1,0.058-0.188,0.111c-0.088,0.056-0.145,0.089-0.166,0.1v6.574
					C225.408,93.679,225.939,93.823,226.516,93.823z"/>
				<path fill="#251610" d="M231.445,95.417V84.792h2.125v1.203c0.76-0.9,1.642-1.353,2.647-1.353c0.511,0,0.884,0.11,1.121,0.336
					c0.238,0.226,0.397,0.58,0.481,1.065c0.349-0.459,0.726-0.809,1.129-1.045c0.402-0.237,0.912-0.356,1.527-0.356
					c0.176,0,0.336,0.019,0.478,0.053c0.141,0.037,0.264,0.08,0.368,0.13c0.105,0.051,0.197,0.127,0.277,0.229
					c0.081,0.103,0.147,0.197,0.199,0.283c0.053,0.084,0.098,0.207,0.133,0.369c0.037,0.16,0.063,0.293,0.08,0.397
					c0.016,0.104,0.029,0.26,0.041,0.465c0.012,0.204,0.018,0.365,0.018,0.479c0,0.117,0,0.291,0,0.523c0,0.051,0,0.088,0,0.116
					v7.728h-2.125v-7.752c0-0.027,0-0.072,0-0.133c0-0.184-0.004-0.324-0.01-0.424c-0.005-0.1-0.022-0.215-0.053-0.344
					c-0.031-0.131-0.085-0.227-0.162-0.287c-0.078-0.061-0.18-0.092-0.308-0.092c-0.216,0-0.433,0.043-0.647,0.129
					s-0.383,0.169-0.502,0.25c-0.119,0.08-0.268,0.191-0.443,0.336v8.316h-2.125v-7.711c0-0.033,0-0.084,0-0.149
					c0-0.155,0-0.271,0-0.349s-0.01-0.179-0.028-0.304c-0.021-0.125-0.047-0.217-0.08-0.278c-0.033-0.061-0.086-0.115-0.157-0.166
					c-0.07-0.049-0.16-0.074-0.266-0.074c-0.521,0-1.053,0.225-1.594,0.673v8.358h-2.125V95.417z"/>
				<path fill="#251610" d="M251.352,95.567c-1.34,0-2.361-0.394-3.065-1.18c-0.707-0.785-1.101-1.859-1.185-3.222l2.125-0.53
					c0.105,2.125,0.813,3.188,2.125,3.188c1.063,0,1.594-0.53,1.594-1.594c0-0.313-0.043-0.606-0.129-0.875
					s-0.217-0.517-0.395-0.737c-0.177-0.226-0.337-0.404-0.48-0.541c-0.145-0.136-0.34-0.304-0.59-0.503l-2.656-2.125
					c-0.485-0.381-0.875-0.866-1.166-1.456c-0.291-0.589-0.436-1.261-0.436-2.013c0-1.097,0.34-1.968,1.021-2.615
					c0.681-0.647,1.582-0.972,2.705-0.972c1.207,0,2.166,0.295,2.877,0.885s1.148,1.424,1.314,2.503
					c0.018,0.115,0.037,0.276,0.059,0.48l-2.125,0.53c-0.006-0.094-0.02-0.233-0.041-0.422c-0.094-0.676-0.307-1.217-0.635-1.623
					c-0.33-0.408-0.813-0.61-1.449-0.61c-0.51,0-0.901,0.143-1.178,0.428c-0.277,0.285-0.416,0.683-0.416,1.19
					c0,0.836,0.354,1.535,1.063,2.101l2.655,2.125c1.416,1.146,2.125,2.517,2.125,4.108c0,1.091-0.336,1.942-1.008,2.558
					C253.389,95.259,252.486,95.567,251.352,95.567z"/>
				<path fill="#251610" d="M258.051,95.567c-0.465,0-0.839-0.165-1.121-0.494c-0.281-0.329-0.424-0.737-0.424-1.225v-9.058h2.125
					v8.41c0,0.221,0.068,0.4,0.203,0.539c0.137,0.139,0.313,0.207,0.527,0.207c0.117,0,0.229-0.014,0.341-0.041
					c0.11-0.027,0.22-0.076,0.327-0.146c0.108-0.068,0.192-0.123,0.254-0.166c0.061-0.041,0.147-0.111,0.262-0.212
					c0.113-0.1,0.184-0.159,0.211-0.182v-8.41h2.125v10.625h-2.125v-1.145c-0.21,0.182-0.363,0.314-0.461,0.398
					c-0.096,0.082-0.244,0.194-0.443,0.336c-0.199,0.141-0.375,0.242-0.527,0.307c-0.151,0.064-0.342,0.122-0.567,0.174
					C258.529,95.541,258.294,95.567,258.051,95.567z"/>
				<path fill="#251610" d="M264.725,95.417V84.792h2.125v1.146c0.314-0.288,0.572-0.508,0.771-0.66
					c0.199-0.151,0.475-0.297,0.826-0.432c0.352-0.136,0.727-0.203,1.125-0.203c0.453,0,0.82,0.166,1.104,0.498
					s0.424,0.737,0.424,1.22v9.057h-2.125v-7.97c0-0.37-0.053-0.641-0.158-0.809c-0.104-0.169-0.317-0.254-0.639-0.254
					c-0.184,0-0.363,0.036-0.544,0.112c-0.181,0.074-0.313,0.144-0.403,0.207c-0.088,0.063-0.215,0.164-0.381,0.303v8.408h-2.125
					V95.417z"/>
				<path fill="#251610" d="M275.441,95.567c-0.471,0-0.883-0.133-1.232-0.397c-0.352-0.267-0.623-0.627-0.813-1.08
					c-0.191-0.453-0.334-0.926-0.429-1.414c-0.094-0.49-0.151-1.019-0.174-1.582c-0.013-0.26-0.013-0.896,0-1.909
					c0.011-0.365,0.026-0.696,0.049-0.991c0.022-0.297,0.062-0.605,0.112-0.926c0.053-0.321,0.119-0.605,0.199-0.852
					s0.187-0.484,0.318-0.713c0.133-0.23,0.288-0.42,0.465-0.57c0.178-0.148,0.392-0.269,0.641-0.355
					c0.249-0.089,0.525-0.133,0.83-0.133c0.236,0,0.461,0.031,0.668,0.096c0.208,0.063,0.404,0.162,0.594,0.299
					c0.188,0.135,0.339,0.256,0.452,0.36c0.112,0.104,0.262,0.255,0.444,0.448V80.55h2.125v14.865h-2.125v-0.963
					c-0.321,0.332-0.647,0.603-0.979,0.807C276.255,95.462,275.872,95.567,275.441,95.567z M275.972,93.823
					c0.515,0,1.046-0.11,1.595-0.331v-6.683c-0.477-0.282-1.008-0.424-1.595-0.424c-0.21,0-0.388,0.052-0.53,0.153
					c-0.145,0.103-0.252,0.252-0.324,0.447c-0.071,0.197-0.125,0.398-0.157,0.607c-0.033,0.207-0.054,0.451-0.06,0.734
					c-0.021,1.238-0.021,2.221,0,2.945c0.006,0.354,0.025,0.669,0.06,0.946c0.034,0.276,0.087,0.543,0.162,0.801
					c0.073,0.258,0.184,0.455,0.327,0.594C275.593,93.753,275.768,93.823,275.972,93.823z"/>
				<path fill="#251610" d="M283.525,95.567c-0.592,0-1.095-0.256-1.508-0.769c-0.412-0.512-0.617-1.09-0.617-1.73
					c0-0.515,0.086-0.982,0.262-1.402c0.174-0.42,0.357-0.756,0.552-1.009c0.194-0.252,0.519-0.512,0.972-0.78
					s0.797-0.451,1.029-0.551c0.232-0.101,0.637-0.265,1.211-0.49c0.1-0.039,0.176-0.069,0.225-0.092v-0.765
					c0-0.536-0.074-0.953-0.225-1.248c-0.148-0.297-0.428-0.444-0.838-0.444c-0.365,0-0.627,0.127-0.784,0.379
					c-0.157,0.25-0.248,0.598-0.271,1.041c-0.006,0.061-0.008,0.151-0.008,0.272H281.4c0.012-1.019,0.295-1.828,0.854-2.433
					c0.56-0.604,1.336-0.903,2.332-0.903c0.989,0,1.771,0.305,2.337,0.916c0.566,0.612,0.852,1.419,0.852,2.42v4.781
					c0,1.106,0.092,1.991,0.272,2.655h-2.116l-0.281-1.594c-0.111,0.223-0.201,0.395-0.271,0.516s-0.17,0.271-0.303,0.451
					c-0.134,0.182-0.267,0.318-0.398,0.416c-0.133,0.098-0.299,0.183-0.498,0.254C283.982,95.529,283.764,95.567,283.525,95.567z
					 M284.588,93.823c0.148,0,0.295-0.044,0.436-0.133c0.143-0.088,0.248-0.174,0.32-0.257c0.071-0.083,0.16-0.194,0.266-0.332
					c0.017-0.028,0.029-0.047,0.041-0.059v-2.938c-0.088,0.062-0.234,0.155-0.438,0.283c-0.205,0.127-0.369,0.229-0.49,0.311
					c-0.12,0.081-0.269,0.191-0.438,0.332c-0.172,0.142-0.305,0.277-0.398,0.406c-0.095,0.131-0.178,0.29-0.25,0.479
					c-0.07,0.188-0.107,0.385-0.107,0.588C283.525,93.382,283.879,93.823,284.588,93.823z"/>
				<path fill="#251610" d="M289.328,98.073v-1.594c0.42,0,0.756-0.026,1.008-0.082s0.441-0.153,0.568-0.295
					s0.209-0.297,0.246-0.465c0.035-0.169,0.053-0.402,0.053-0.701l-2.406-10.146h2.125c0.824,4.556,1.27,7.035,1.336,7.438
					c0.116-0.746,0.248-1.533,0.395-2.36c0.146-0.828,0.313-1.74,0.498-2.738c0.187-1,0.328-1.778,0.429-2.338h2.125l-2.656,11.155
					c-0.178,0.771-0.551,1.316-1.121,1.642c-0.569,0.322-1.364,0.483-2.383,0.483H289.328z"/>
				<path fill="#251610" d="M299.629,95.567c-0.875,0-1.576-0.261-2.104-0.78c-0.529-0.521-0.892-1.195-1.084-2.025l1.594-0.531
					c0.382,1.063,0.912,1.594,1.594,1.594c0.338,0,0.6-0.092,0.785-0.277c0.185-0.185,0.277-0.446,0.277-0.784
					c0-0.492-0.179-0.901-0.531-1.229l-2.125-1.594c-0.238-0.16-0.438-0.311-0.598-0.451c-0.16-0.143-0.324-0.314-0.49-0.52
					c-0.166-0.206-0.291-0.436-0.377-0.689s-0.129-0.531-0.129-0.83c0-0.906,0.289-1.602,0.867-2.082
					c0.577-0.481,1.352-0.723,2.319-0.723c0.459,0,0.875,0.072,1.246,0.219c0.368,0.147,0.682,0.354,0.935,0.619
					c0.252,0.266,0.459,0.561,0.62,0.885c0.164,0.322,0.293,0.685,0.388,1.082l-1.595,0.531c-0.077-0.21-0.153-0.391-0.231-0.543
					s-0.182-0.316-0.312-0.494c-0.131-0.178-0.284-0.314-0.461-0.41c-0.178-0.098-0.374-0.146-0.59-0.146
					c-0.338,0-0.601,0.094-0.785,0.278c-0.185,0.186-0.276,0.446-0.276,0.783c0,0.332,0.178,0.631,0.53,0.896l2.125,1.594
					c0.238,0.188,0.441,0.369,0.609,0.545c0.17,0.174,0.334,0.375,0.493,0.605c0.16,0.229,0.283,0.484,0.365,0.768
					c0.084,0.282,0.125,0.584,0.125,0.904c0,0.908-0.289,1.603-0.867,2.084C301.37,95.326,300.598,95.567,299.629,95.567z"/>
				<path fill="#251610" d="M303.672,95.948v-1.594c0.275,0,0.516-0.086,0.718-0.263c0.202-0.174,0.36-0.394,0.474-0.658
					c0.115-0.266,0.203-0.602,0.271-1.005c0.065-0.403,0.108-0.788,0.129-1.153s0.029-0.779,0.029-1.245
					c0-0.266-0.005-0.629-0.013-1.092c-0.01-0.462-0.014-0.781-0.014-0.959c0-0.177,0.004-0.5,0.014-0.972
					c0.008-0.471,0.013-0.842,0.013-1.111c0-0.465-0.011-0.878-0.029-1.241c-0.021-0.362-0.063-0.741-0.129-1.141
					s-0.155-0.729-0.271-0.996c-0.113-0.267-0.271-0.483-0.474-0.656c-0.202-0.172-0.44-0.258-0.718-0.258v-1.593
					c0.441,0,0.844,0.059,1.203,0.178s0.666,0.305,0.918,0.557s0.47,0.517,0.654,0.793c0.187,0.276,0.336,0.635,0.449,1.075
					c0.112,0.439,0.205,0.839,0.277,1.195c0.072,0.354,0.122,0.813,0.148,1.369c0.027,0.556,0.047,1.016,0.055,1.377
					c0.009,0.362,0.013,0.838,0.013,1.424c0,0.676-0.004,1.219-0.013,1.631c-0.008,0.413-0.037,0.935-0.087,1.562
					c-0.05,0.629-0.122,1.139-0.216,1.526c-0.094,0.392-0.231,0.814-0.411,1.271c-0.181,0.454-0.399,0.813-0.66,1.069
					c-0.261,0.258-0.588,0.474-0.983,0.646C304.625,95.862,304.176,95.948,303.672,95.948z"/>
			</g>
		</g>
	</g>
</g>
</svg>
