<?xml version="1.0" encoding="utf-8"?>
<!-- Generator: Adobe Illustrator 16.0.3, SVG Export Plug-In . SVG Version: 6.00 Build 0)  -->
<!DOCTYPE svg PUBLIC "-//W3C//DTD SVG 1.1//EN" "http://www.w3.org/Graphics/SVG/1.1/DTD/svg11.dtd">
<svg version="1.1" id="Layer_1" xmlns="http://www.w3.org/2000/svg" xmlns:xlink="http://www.w3.org/1999/xlink" x="0px" y="0px"
	 width="537.051px" height="123.176px" viewBox="0 0 537.051 123.176" enable-background="new 0 0 537.051 123.176"
	 xml:space="preserve">
<g>
	<path fill="#FFFFFF" d="M132.697,90.944c-0.001,0.354-0.014,0.381-0.173,0.473c-0.858,0.442-2.148,0.58-3.173,0.576
		c-3.223-0.016-6.071-1.555-6.054-5.187c0.011-2.104,1.11-3.573,2.31-4.289c1.266-0.759,2.439-0.845,3.542-0.841
		c0.908,0.006,2.065,0.168,2.328,0.223c0.277,0.053,0.736,0.134,1.04,0.147c0.158,0.017,0.183,0.068,0.183,0.16
		c-0.001,0.146-0.095,0.514-0.103,2.157c0,0.211-0.04,0.277-0.146,0.276c-0.091-0.001-0.118-0.067-0.13-0.172
		c-0.038-0.303-0.102-0.725-0.442-1.095c-0.392-0.422-1.441-1.032-2.928-1.04c-0.724-0.002-1.685,0.047-2.61,0.805
		c-0.739,0.613-1.218,1.597-1.226,3.215c-0.014,2.83,1.78,4.957,4.555,4.971c0.341,0.001,0.803,0.003,1.119-0.141
		c0.198-0.092,0.251-0.26,0.251-0.485l0.006-1.236c0.004-0.657,0.007-1.156-0.005-1.553c-0.011-0.447-0.128-0.659-0.562-0.752
		c-0.104-0.028-0.328-0.041-0.512-0.042c-0.119-0.001-0.196-0.027-0.196-0.106c0-0.104,0.092-0.132,0.276-0.132
		c0.685,0.004,1.513,0.048,1.908,0.049c0.407,0.004,1.105-0.032,1.54-0.031c0.17,0.001,0.262,0.027,0.262,0.134
		c-0.001,0.078-0.08,0.104-0.172,0.104c-0.105-0.001-0.197,0.013-0.355,0.037c-0.355,0.064-0.488,0.288-0.503,0.749
		c-0.015,0.394-0.018,0.921-0.021,1.577L132.697,90.944z"/>
	<path fill="#FFFFFF" d="M144.286,85.749c0.01-2,0.011-2.368-0.013-2.791c-0.024-0.446-0.128-0.656-0.563-0.751
		c-0.104-0.028-0.328-0.041-0.512-0.042c-0.145,0-0.223-0.028-0.223-0.121c0-0.092,0.093-0.115,0.289-0.115
		c0.697,0.004,1.527,0.047,1.896,0.048c0.42,0.002,3.038,0.016,3.289,0.002c0.25-0.024,0.46-0.049,0.566-0.075
		c0.066-0.014,0.145-0.054,0.21-0.054c0.066,0.001,0.079,0.057,0.079,0.122c0,0.093-0.066,0.249-0.108,0.854
		c-0.015,0.131-0.043,0.711-0.07,0.867c-0.014,0.067-0.04,0.146-0.132,0.145c-0.092,0-0.118-0.065-0.117-0.185
		c0-0.091-0.012-0.314-0.077-0.474c-0.091-0.237-0.222-0.395-0.879-0.478c-0.224-0.028-1.604-0.061-1.868-0.063
		c-0.066,0-0.093,0.04-0.093,0.132l-0.017,3.33c-0.001,0.091,0.014,0.144,0.092,0.145c0.29,0.002,1.802,0.007,2.105-0.017
		c0.315-0.024,0.513-0.063,0.632-0.195c0.092-0.104,0.145-0.169,0.211-0.169c0.053,0,0.091,0.026,0.091,0.105
		c0,0.08-0.067,0.288-0.11,0.96c-0.027,0.263-0.057,0.79-0.057,0.882c0,0.106-0.001,0.25-0.119,0.25
		c-0.092,0-0.118-0.056-0.117-0.12c-0.014-0.132-0.013-0.302-0.051-0.474c-0.065-0.262-0.248-0.463-0.735-0.518
		c-0.25-0.027-1.552-0.045-1.867-0.046c-0.066-0.001-0.081,0.052-0.081,0.13l-0.004,1.039c-0.002,0.445-0.021,1.656-0.009,2.038
		c0.021,0.91,0.231,1.107,1.573,1.113c0.342,0.002,0.894,0.005,1.237-0.15c0.343-0.157,0.502-0.432,0.596-0.971
		c0.027-0.146,0.054-0.197,0.146-0.196c0.104,0,0.104,0.104,0.104,0.236c-0.001,0.301-0.11,1.197-0.177,1.459
		c-0.094,0.342-0.212,0.341-0.712,0.34c-1.986-0.01-2.867-0.093-3.644-0.097c-0.303-0.002-1.132,0.033-1.658,0.031
		c-0.172,0-0.263-0.041-0.263-0.133c0-0.065,0.053-0.104,0.212-0.104c0.196,0,0.354-0.025,0.473-0.053
		c0.264-0.05,0.331-0.339,0.386-0.72c0.068-0.553,0.073-1.591,0.079-2.803L144.286,85.749z"/>
	<path fill="#FFFFFF" d="M160.494,85.827c0.01-2.001,0.011-2.368-0.013-2.791c-0.024-0.445-0.129-0.657-0.563-0.753
		c-0.104-0.026-0.328-0.041-0.512-0.042c-0.145-0.001-0.224-0.025-0.223-0.118c0-0.093,0.093-0.118,0.291-0.116
		c0.697,0.002,1.525,0.047,1.801,0.047c0.448,0.001,1.448-0.033,1.855-0.03c0.829,0.004,1.71,0.087,2.418,0.578
		c0.367,0.252,0.889,0.924,0.886,1.805c-0.005,0.975-0.417,1.866-1.75,2.938c1.164,1.479,2.066,2.656,2.837,3.475
		c0.734,0.767,1.272,0.86,1.471,0.902c0.143,0.026,0.263,0.039,0.368,0.04c0.104,0,0.158,0.041,0.157,0.107
		c0,0.104-0.092,0.13-0.25,0.129l-1.25-0.005c-0.737-0.002-1.065-0.07-1.406-0.258c-0.564-0.306-1.062-0.924-1.793-1.943
		c-0.523-0.724-1.124-1.623-1.295-1.82c-0.065-0.079-0.144-0.093-0.236-0.093l-1.144-0.031c-0.066-0.001-0.105,0.025-0.107,0.104
		v0.184c-0.006,1.224-0.011,2.263,0.053,2.813c0.037,0.386,0.114,0.675,0.508,0.729c0.198,0.027,0.486,0.056,0.644,0.057
		c0.106,0,0.16,0.038,0.158,0.104c0,0.094-0.093,0.133-0.264,0.132c-0.763-0.003-1.736-0.047-1.933-0.049
		c-0.25-0.002-1.079,0.034-1.605,0.031c-0.171,0-0.263-0.041-0.263-0.131c0-0.066,0.052-0.106,0.211-0.104
		c0.196,0.002,0.356-0.026,0.474-0.051c0.264-0.052,0.331-0.341,0.385-0.721c0.068-0.552,0.073-1.592,0.079-2.804L160.494,85.827z
		 M162.042,86.872c0,0.147,0.025,0.197,0.117,0.239c0.276,0.094,0.67,0.134,1,0.137c0.526,0,0.697-0.05,0.936-0.22
		c0.396-0.29,0.779-0.893,0.785-1.97c0.009-1.868-1.226-2.414-2.001-2.417c-0.329-0.004-0.567,0.01-0.697,0.048
		c-0.093,0.026-0.12,0.078-0.12,0.183L162.042,86.872z"/>
	<path fill="#FFFFFF" d="M179.615,82.153c0.041-0.222,0.12-0.342,0.226-0.341c0.104,0,0.184,0.068,0.353,0.411l3.557,7.438
		l3.614-7.496c0.092-0.212,0.172-0.316,0.291-0.316c0.119,0.001,0.197,0.134,0.235,0.409l1.159,8.14
		c0.114,0.828,0.244,1.208,0.638,1.331c0.381,0.119,0.645,0.134,0.815,0.135c0.119,0.001,0.211,0.013,0.21,0.092
		c0,0.106-0.159,0.144-0.343,0.144c-0.329-0.002-2.144-0.048-2.67-0.092c-0.302-0.027-0.381-0.066-0.381-0.145
		c0-0.067,0.054-0.106,0.146-0.144c0.079-0.028,0.119-0.196,0.069-0.566l-0.762-5.793l-0.054-0.001l-2.896,5.959
		c-0.307,0.617-0.372,0.737-0.491,0.737c-0.118-0.002-0.249-0.267-0.457-0.662c-0.313-0.607-1.343-2.625-1.499-2.994
		c-0.117-0.276-0.899-1.939-1.354-2.928h-0.053l-0.708,5.234c-0.028,0.236-0.042,0.408-0.042,0.618
		c-0.002,0.249,0.169,0.367,0.392,0.422c0.236,0.053,0.42,0.067,0.552,0.068c0.105,0,0.198,0.027,0.197,0.093
		c0,0.119-0.12,0.146-0.317,0.146c-0.552-0.005-1.144-0.047-1.381-0.048c-0.249-0.001-0.882,0.035-1.302,0.032
		c-0.132-0.001-0.236-0.025-0.236-0.146c0-0.064,0.079-0.091,0.211-0.091c0.105,0,0.198,0.001,0.394-0.038
		c0.369-0.076,0.478-0.589,0.544-1.036L179.615,82.153z"/>
	<path fill="#FFFFFF" d="M202.157,88.721c-0.065,0-0.092,0.025-0.118,0.104l-0.72,1.881c-0.133,0.326-0.2,0.642-0.201,0.799
		c-0.001,0.238,0.117,0.41,0.525,0.411l0.196,0.002c0.158,0,0.198,0.026,0.197,0.105c0,0.106-0.08,0.132-0.224,0.132
		c-0.422-0.002-0.988-0.045-1.395-0.047c-0.144-0.001-0.868,0.035-1.552,0.031c-0.171,0-0.25-0.027-0.25-0.132
		c0.001-0.078,0.053-0.106,0.158-0.105c0.119,0.001,0.303-0.011,0.409-0.024c0.606-0.076,0.857-0.521,1.125-1.179l3.34-8.245
		c0.16-0.382,0.24-0.524,0.372-0.524c0.118,0,0.196,0.118,0.326,0.421c0.313,0.726,2.392,6.104,3.225,8.107
		c0.494,1.187,0.874,1.371,1.15,1.438c0.198,0.043,0.396,0.058,0.553,0.058c0.105,0,0.171,0.015,0.171,0.105
		c0,0.105-0.119,0.133-0.606,0.131c-0.474-0.002-1.434-0.009-2.486-0.039c-0.237-0.014-0.395-0.015-0.395-0.107
		c0-0.079,0.052-0.105,0.185-0.116c0.092-0.028,0.184-0.146,0.12-0.303l-1.04-2.796c-0.026-0.063-0.065-0.092-0.131-0.093
		L202.157,88.721z M204.844,88.076c0.066,0,0.079-0.04,0.066-0.081l-1.169-3.252c-0.013-0.054-0.025-0.12-0.065-0.12
		c-0.039,0-0.065,0.065-0.08,0.119l-1.226,3.23c-0.013,0.053,0,0.092,0.052,0.092L204.844,88.076z"/>
	<path fill="#FFFFFF" d="M219.726,90.448c0.022,1.029,0.19,1.37,0.455,1.463c0.222,0.081,0.471,0.095,0.683,0.096
		c0.145,0,0.224,0.026,0.223,0.106c-0.001,0.105-0.119,0.131-0.304,0.13c-0.855-0.003-1.38-0.045-1.63-0.045
		c-0.119-0.002-0.737,0.034-1.421,0.032c-0.171-0.001-0.289-0.017-0.289-0.135c0-0.079,0.08-0.104,0.211-0.103
		c0.171,0,0.408-0.014,0.593-0.063c0.342-0.104,0.396-0.487,0.415-1.631l0.156-7.789c0.001-0.263,0.041-0.445,0.172-0.443
		c0.145,0,0.262,0.171,0.485,0.408c0.157,0.171,2.146,2.324,4.059,4.242c0.891,0.899,2.657,2.801,2.88,3.013h0.065l-0.103-5.906
		c-0.009-0.804-0.127-1.055-0.442-1.188c-0.197-0.079-0.512-0.082-0.697-0.082c-0.158,0-0.209-0.041-0.209-0.119
		c0-0.104,0.145-0.116,0.342-0.115c0.684,0.002,1.315,0.042,1.592,0.046c0.144,0,0.644-0.036,1.29-0.034
		c0.171,0.001,0.303,0.015,0.303,0.119c-0.001,0.08-0.08,0.119-0.237,0.118c-0.132-0.001-0.237-0.001-0.396,0.038
		c-0.369,0.104-0.476,0.38-0.492,1.115l-0.185,8.301c-0.001,0.29-0.054,0.407-0.172,0.407c-0.145,0-0.302-0.146-0.446-0.291
		c-0.825-0.793-2.501-2.524-3.863-3.887c-1.426-1.427-2.879-3.078-3.115-3.33h-0.039L219.726,90.448z"/>
	<path fill="#FFFFFF" d="M249.714,91.146c-1.284-1.137-1.619-2.612-1.612-3.889c0.003-0.896,0.287-2.447,1.556-3.598
		c0.952-0.865,2.203-1.383,4.164-1.377c0.817,0.006,1.303,0.06,1.908,0.142c0.5,0.071,0.92,0.19,1.315,0.231
		c0.144,0.013,0.197,0.08,0.196,0.158c0,0.105-0.041,0.263-0.069,0.725c-0.028,0.434-0.019,1.155-0.047,1.419
		c-0.013,0.197-0.04,0.305-0.158,0.302c-0.106-0.001-0.131-0.105-0.13-0.289c-0.011-0.408-0.181-0.871-0.508-1.212
		c-0.431-0.463-1.456-0.824-2.667-0.828c-1.145-0.006-1.895,0.279-2.478,0.803c-0.964,0.877-1.22,2.125-1.227,3.4
		c-0.014,3.132,2.36,4.697,4.123,4.703c1.171,0.006,1.882-0.12,2.411-0.724c0.224-0.248,0.398-0.629,0.451-0.867
		c0.041-0.21,0.068-0.261,0.172-0.261c0.092,0,0.119,0.093,0.119,0.197c-0.001,0.157-0.165,1.3-0.297,1.749
		c-0.067,0.223-0.12,0.287-0.344,0.377c-0.527,0.21-1.527,0.298-2.37,0.293C252.417,92.594,250.906,92.191,249.714,91.146z"/>
	<path fill="#FFFFFF" d="M275.496,86.758c0.037,0,0.078-0.027,0.078-0.093l0.001-0.277c0.01-1.999,0.011-2.367-0.011-2.788
		c-0.025-0.448-0.131-0.66-0.564-0.753c-0.104-0.027-0.329-0.041-0.512-0.042c-0.146,0-0.224-0.027-0.224-0.119
		s0.093-0.12,0.275-0.118c0.712,0.003,1.54,0.048,1.896,0.05c0.316,0.001,1.144-0.034,1.657-0.032
		c0.187,0.001,0.278,0.027,0.276,0.119c0,0.094-0.078,0.119-0.237,0.117c-0.105,0-0.224,0.012-0.381,0.039
		c-0.356,0.064-0.462,0.286-0.491,0.746c-0.029,0.421-0.029,0.791-0.039,2.79l-0.011,2.315c-0.007,1.211-0.011,2.249,0.053,2.815
		c0.036,0.367,0.114,0.66,0.507,0.713c0.187,0.028,0.475,0.055,0.672,0.056c0.146,0,0.212,0.042,0.211,0.106
		c0,0.092-0.105,0.131-0.263,0.131c-0.856-0.005-1.685-0.049-2.054-0.05c-0.302-0.001-1.131,0.034-1.644,0.032
		c-0.187-0.001-0.276-0.041-0.276-0.133c0.001-0.065,0.053-0.105,0.211-0.104c0.196,0.001,0.354-0.024,0.474-0.05
		c0.264-0.053,0.33-0.341,0.386-0.724c0.066-0.551,0.073-1.592,0.078-2.802l0.006-1.158c0-0.051-0.04-0.078-0.078-0.078
		l-5.027-0.023c-0.039,0-0.078,0.012-0.078,0.078l-0.006,1.158c-0.004,1.211-0.012,2.25,0.052,2.814
		c0.039,0.37,0.116,0.66,0.51,0.714c0.186,0.026,0.475,0.056,0.672,0.056c0.144,0.001,0.21,0.041,0.209,0.106
		c0,0.094-0.104,0.132-0.264,0.131c-0.854-0.005-1.683-0.048-2.052-0.05c-0.302-0.001-1.132,0.033-1.658,0.032
		c-0.17-0.001-0.262-0.042-0.262-0.134c0-0.065,0.053-0.105,0.212-0.104c0.196,0.001,0.354-0.025,0.473-0.051
		c0.264-0.052,0.332-0.339,0.385-0.722c0.069-0.55,0.074-1.59,0.079-2.803l0.011-2.315c0.009-1.999,0.012-2.366-0.013-2.789
		c-0.025-0.446-0.129-0.657-0.563-0.751c-0.104-0.025-0.328-0.042-0.512-0.043c-0.145,0-0.224-0.025-0.224-0.118
		c0.001-0.094,0.094-0.118,0.276-0.117c0.711,0.004,1.541,0.047,1.896,0.049c0.314,0.001,1.144-0.035,1.657-0.033
		c0.186,0.001,0.275,0.029,0.275,0.119c0,0.093-0.078,0.12-0.236,0.119c-0.105,0-0.225,0.011-0.384,0.037
		c-0.354,0.065-0.461,0.288-0.49,0.748c-0.028,0.421-0.03,0.789-0.039,2.789l-0.001,0.276c0,0.066,0.039,0.092,0.079,0.092
		L275.496,86.758z"/>
	<path fill="#FFFFFF" d="M289.43,86.453c0.008-1.999,0.01-2.367-0.014-2.788c-0.024-0.446-0.129-0.656-0.563-0.752
		c-0.105-0.027-0.328-0.041-0.513-0.041c-0.146-0.001-0.224-0.029-0.224-0.122c0.001-0.092,0.094-0.117,0.29-0.116
		c0.698,0.003,1.525,0.047,1.802,0.049c0.447,0.003,1.447-0.034,1.855-0.031c0.829,0.005,1.71,0.087,2.418,0.577
		c0.367,0.253,0.891,0.926,0.887,1.808c-0.006,0.972-0.417,1.866-1.75,2.937c1.162,1.48,2.065,2.654,2.839,3.474
		c0.733,0.768,1.271,0.861,1.469,0.902c0.144,0.027,0.263,0.041,0.367,0.041c0.104,0.001,0.159,0.041,0.159,0.106
		c0,0.105-0.095,0.131-0.252,0.13l-1.25-0.005c-0.736-0.003-1.065-0.072-1.406-0.257c-0.564-0.306-1.061-0.925-1.793-1.943
		c-0.523-0.726-1.123-1.624-1.295-1.822c-0.066-0.078-0.144-0.091-0.235-0.092l-1.146-0.031c-0.064,0-0.104,0.026-0.105,0.104v0.184
		c-0.005,1.224-0.012,2.264,0.051,2.816c0.039,0.381,0.115,0.672,0.511,0.726c0.196,0.028,0.485,0.055,0.646,0.055
		c0.104,0,0.156,0.041,0.156,0.107c0,0.092-0.092,0.131-0.265,0.13c-0.763-0.003-1.735-0.049-1.933-0.05
		c-0.25-0.001-1.078,0.037-1.605,0.034c-0.172-0.001-0.262-0.04-0.262-0.134c0-0.065,0.053-0.104,0.211-0.104
		c0.197,0.001,0.355-0.025,0.473-0.052c0.262-0.052,0.33-0.34,0.385-0.722c0.068-0.551,0.074-1.592,0.081-2.803L289.43,86.453z
		 M290.977,87.501c-0.002,0.145,0.025,0.197,0.117,0.237c0.275,0.095,0.67,0.136,0.999,0.137c0.526,0.003,0.697-0.049,0.937-0.219
		c0.396-0.289,0.777-0.894,0.784-1.971c0.009-1.869-1.226-2.413-2.001-2.416c-0.33-0.002-0.566,0.01-0.697,0.049
		c-0.094,0.025-0.12,0.079-0.122,0.184L290.977,87.501z"/>
	<path fill="#FFFFFF" d="M308.047,86.542c0.008-1.997,0.01-2.366-0.016-2.79c-0.023-0.446-0.153-0.671-0.442-0.738
		c-0.146-0.041-0.317-0.055-0.476-0.055c-0.129-0.001-0.211-0.025-0.209-0.132c0-0.079,0.105-0.104,0.316-0.104
		c0.501,0.003,1.328,0.045,1.709,0.046c0.332,0.003,1.107-0.033,1.607-0.03c0.17,0.001,0.275,0.027,0.275,0.105
		c-0.002,0.106-0.08,0.131-0.211,0.13c-0.133-0.001-0.238,0.015-0.395,0.039c-0.355,0.063-0.463,0.287-0.491,0.747
		c-0.029,0.421-0.03,0.788-0.039,2.79l-0.013,2.314c-0.004,1.278-0.01,2.315,0.04,2.882c0.038,0.355,0.129,0.593,0.523,0.646
		c0.184,0.029,0.476,0.058,0.67,0.059c0.145,0,0.212,0.04,0.212,0.106c-0.002,0.092-0.109,0.131-0.251,0.13
		c-0.868-0.004-1.698-0.048-2.054-0.049c-0.303-0.002-1.131,0.033-1.657,0.03c-0.171-0.001-0.264-0.042-0.263-0.132
		c0-0.066,0.054-0.106,0.211-0.105c0.197,0.001,0.357-0.023,0.475-0.05c0.264-0.051,0.344-0.274,0.383-0.654
		c0.07-0.554,0.074-1.593,0.08-2.868L308.047,86.542z"/>
	<path fill="#FFFFFF" d="M321.923,92.584c-0.211-0.096-0.25-0.161-0.249-0.449c0.004-0.725,0.061-1.514,0.074-1.726
		c0.015-0.195,0.056-0.34,0.161-0.339c0.118,0,0.13,0.116,0.13,0.223c-0.001,0.171,0.049,0.448,0.115,0.673
		c0.283,0.975,1.059,1.332,1.875,1.335c1.183,0.006,1.766-0.793,1.77-1.489c0.004-0.647-0.19-1.265-1.28-2.111l-0.602-0.477
		c-1.441-1.138-1.939-2.062-1.933-3.128c0.008-1.446,1.222-2.48,3.051-2.473c0.855,0.004,1.408,0.139,1.749,0.231
		c0.117,0.028,0.183,0.068,0.181,0.159c0,0.172-0.053,0.553-0.06,1.58c-0.001,0.289-0.04,0.394-0.146,0.392
		c-0.092,0-0.131-0.077-0.13-0.234c0.001-0.121-0.063-0.529-0.34-0.872c-0.194-0.251-0.573-0.647-1.43-0.651
		c-0.974-0.005-1.567,0.559-1.571,1.349c-0.002,0.605,0.298,1.067,1.386,1.9l0.367,0.278c1.573,1.23,2.148,2.115,2.144,3.366
		c-0.006,0.763-0.301,1.668-1.249,2.281c-0.661,0.419-1.397,0.533-2.095,0.531C323.079,92.929,322.486,92.834,321.923,92.584z"/>
	<path fill="#FFFFFF" d="M340.778,83.619l-1.962,0.044c-0.762,0.022-1.076,0.087-1.276,0.374c-0.132,0.196-0.2,0.354-0.225,0.459
		c-0.029,0.106-0.066,0.16-0.146,0.158c-0.092,0-0.118-0.065-0.118-0.209c0.001-0.212,0.256-1.408,0.283-1.513
		c0.041-0.172,0.08-0.25,0.16-0.249c0.104,0,0.236,0.132,0.565,0.16c0.381,0.042,0.881,0.071,1.314,0.072l5.21,0.023
		c0.42,0.003,0.709-0.035,0.908-0.061c0.197-0.039,0.304-0.063,0.355-0.063c0.094,0,0.104,0.078,0.104,0.276
		c0,0.274-0.046,1.183-0.048,1.524c-0.014,0.132-0.039,0.211-0.117,0.211c-0.106-0.001-0.133-0.065-0.146-0.264l-0.012-0.145
		c-0.024-0.343-0.377-0.711-1.547-0.743l-1.66-0.048l-0.023,5.394c-0.008,1.212-0.012,2.25,0.051,2.815
		c0.037,0.368,0.117,0.658,0.51,0.712c0.184,0.028,0.475,0.057,0.672,0.058c0.145,0,0.209,0.041,0.207,0.106
		c0,0.092-0.104,0.132-0.248,0.129c-0.869-0.004-1.697-0.047-2.064-0.049c-0.304-0.001-1.133,0.033-1.658,0.031
		c-0.172,0-0.266-0.04-0.266-0.133c0.002-0.065,0.055-0.105,0.213-0.104c0.197,0.001,0.355-0.023,0.476-0.05
		c0.261-0.052,0.342-0.339,0.383-0.722c0.069-0.552,0.073-1.591,0.079-2.801L340.778,83.619z"/>
	<path fill="#FFFFFF" d="M357.543,83.015c0.041-0.223,0.118-0.34,0.224-0.34c0.106,0,0.185,0.065,0.354,0.408l3.558,7.438
		l3.613-7.495c0.095-0.21,0.173-0.315,0.292-0.314c0.117,0.001,0.197,0.133,0.234,0.408l1.158,8.139
		c0.114,0.828,0.245,1.21,0.638,1.33c0.382,0.119,0.645,0.136,0.816,0.136c0.118,0.001,0.211,0.015,0.209,0.093
		c0,0.105-0.159,0.145-0.343,0.144c-0.328-0.001-2.144-0.049-2.671-0.091c-0.301-0.028-0.38-0.069-0.38-0.146
		c0-0.068,0.053-0.104,0.145-0.146c0.081-0.024,0.122-0.195,0.069-0.564l-0.764-5.793h-0.051l-2.895,5.958
		c-0.307,0.618-0.374,0.735-0.491,0.735c-0.121,0-0.249-0.264-0.459-0.659c-0.312-0.608-1.342-2.624-1.498-2.996
		c-0.117-0.276-0.899-1.936-1.354-2.926h-0.053l-0.707,5.232c-0.029,0.237-0.043,0.408-0.043,0.618
		c-0.002,0.25,0.168,0.37,0.392,0.424c0.237,0.055,0.421,0.067,0.552,0.068c0.105,0,0.197,0.027,0.197,0.093
		c0,0.119-0.117,0.145-0.316,0.145c-0.555-0.004-1.145-0.045-1.382-0.047c-0.248-0.003-0.882,0.034-1.302,0.033
		c-0.133-0.001-0.238-0.026-0.238-0.146c0.002-0.065,0.082-0.091,0.213-0.091c0.105,0,0.197,0.001,0.396-0.039
		c0.367-0.078,0.475-0.59,0.543-1.036L357.543,83.015z"/>
	<path fill="#FFFFFF" d="M380.086,89.581c-0.066-0.001-0.093,0.028-0.12,0.105l-0.719,1.877c-0.133,0.329-0.202,0.646-0.202,0.803
		c0,0.236,0.117,0.409,0.523,0.41l0.197,0.002c0.159,0.001,0.199,0.026,0.199,0.105c-0.002,0.106-0.082,0.131-0.224,0.131
		c-0.423-0.001-0.987-0.043-1.396-0.046c-0.146-0.002-0.869,0.035-1.554,0.03c-0.171,0-0.25-0.025-0.249-0.13
		c0-0.08,0.054-0.106,0.157-0.105c0.12,0,0.306-0.013,0.409-0.025c0.605-0.075,0.859-0.522,1.124-1.178l3.341-8.247
		c0.158-0.381,0.239-0.523,0.372-0.523c0.118,0,0.197,0.118,0.327,0.421c0.313,0.726,2.393,6.104,3.223,8.106
		c0.496,1.187,0.877,1.372,1.152,1.439c0.195,0.04,0.395,0.055,0.551,0.056c0.107,0,0.172,0.014,0.172,0.107
		c0,0.104-0.119,0.132-0.607,0.128c-0.473-0.003-1.433-0.009-2.485-0.039c-0.236-0.014-0.396-0.014-0.396-0.107
		c0-0.078,0.057-0.104,0.187-0.116c0.093-0.026,0.187-0.144,0.121-0.303l-1.04-2.793c-0.025-0.066-0.066-0.093-0.133-0.094
		L380.086,89.581z M382.772,88.938c0.064,0,0.078-0.039,0.064-0.079l-1.167-3.255c-0.014-0.053-0.025-0.118-0.064-0.118
		c-0.04-0.002-0.066,0.063-0.081,0.116l-1.227,3.232c-0.011,0.052,0,0.091,0.056,0.091L382.772,88.938z"/>
	<path fill="#FFFFFF" d="M396.583,92.937c-0.21-0.092-0.249-0.16-0.249-0.451c0.004-0.722,0.06-1.511,0.076-1.722
		c0.012-0.196,0.054-0.341,0.159-0.34c0.116,0,0.131,0.117,0.131,0.223c-0.001,0.172,0.048,0.448,0.114,0.674
		c0.285,0.975,1.059,1.333,1.875,1.338c1.184,0.005,1.766-0.795,1.771-1.492c0.002-0.646-0.193-1.264-1.282-2.111l-0.603-0.478
		c-1.441-1.137-1.936-2.061-1.932-3.126c0.008-1.449,1.221-2.481,3.052-2.475c0.854,0.007,1.406,0.141,1.747,0.233
		c0.119,0.027,0.185,0.066,0.184,0.157c0,0.174-0.056,0.555-0.061,1.579c-0.002,0.292-0.039,0.396-0.145,0.395
		c-0.093,0-0.132-0.077-0.131-0.237c0.002-0.118-0.063-0.526-0.338-0.87c-0.197-0.25-0.576-0.646-1.432-0.649
		c-0.974-0.006-1.568,0.557-1.574,1.347c-0.001,0.604,0.3,1.067,1.389,1.901l0.366,0.277c1.573,1.23,2.147,2.116,2.142,3.366
		c-0.004,0.762-0.297,1.669-1.246,2.282c-0.661,0.419-1.398,0.533-2.096,0.53C397.74,93.283,397.146,93.19,396.583,92.937z"/>
	<path fill="#FFFFFF" d="M423.568,83.344c0.041-0.223,0.119-0.341,0.225-0.341c0.104,0.001,0.184,0.067,0.354,0.408l3.555,7.439
		l3.615-7.496c0.096-0.21,0.172-0.315,0.293-0.314c0.117,0,0.195,0.133,0.232,0.408l1.16,8.138c0.113,0.83,0.244,1.211,0.639,1.332
		c0.379,0.118,0.643,0.137,0.813,0.137c0.121,0,0.213,0.014,0.211,0.092c0,0.105-0.158,0.144-0.344,0.143
		c-0.328-0.001-2.143-0.051-2.668-0.092c-0.303-0.027-0.383-0.066-0.381-0.144c0-0.068,0.053-0.107,0.145-0.146
		c0.08-0.026,0.121-0.197,0.068-0.564l-0.762-5.793h-0.051l-2.898,5.956c-0.307,0.618-0.372,0.736-0.489,0.736
		c-0.119-0.001-0.248-0.264-0.457-0.658c-0.313-0.61-1.345-2.626-1.499-2.994c-0.119-0.278-0.9-1.938-1.355-2.931h-0.052
		l-0.709,5.234c-0.028,0.239-0.041,0.407-0.043,0.619c-0.002,0.25,0.169,0.368,0.392,0.422c0.237,0.054,0.422,0.068,0.553,0.069
		c0.104,0,0.197,0.026,0.197,0.093c0,0.119-0.118,0.145-0.316,0.143c-0.553-0.002-1.145-0.043-1.381-0.044
		c-0.25-0.002-0.881,0.034-1.303,0.031c-0.132,0-0.236-0.026-0.236-0.146c0.001-0.065,0.08-0.089,0.211-0.089
		c0.107,0.001,0.197,0.001,0.395-0.038c0.367-0.078,0.478-0.59,0.545-1.038L423.568,83.344z"/>
	<path fill="#FFFFFF" d="M445.191,89.907c-0.064,0-0.092,0.026-0.119,0.104l-0.719,1.878c-0.135,0.328-0.201,0.644-0.201,0.801
		c0,0.238,0.117,0.407,0.525,0.41h0.197c0.158,0.001,0.197,0.03,0.197,0.109c-0.002,0.105-0.08,0.13-0.225,0.13
		c-0.424-0.003-0.986-0.046-1.393-0.046c-0.146-0.001-0.871,0.035-1.555,0.032c-0.172-0.002-0.252-0.028-0.252-0.133
		c0.002-0.08,0.055-0.106,0.16-0.106c0.119,0.001,0.303-0.01,0.406-0.022c0.609-0.076,0.859-0.522,1.125-1.179l3.342-8.247
		c0.16-0.38,0.24-0.524,0.371-0.523c0.119,0.001,0.197,0.117,0.326,0.421c0.313,0.726,2.393,6.103,3.227,8.106
		c0.494,1.188,0.873,1.372,1.15,1.438c0.195,0.041,0.395,0.056,0.553,0.057c0.105,0,0.17,0.015,0.17,0.106
		c-0.002,0.104-0.121,0.13-0.605,0.129c-0.475-0.003-1.434-0.007-2.488-0.039c-0.236-0.014-0.395-0.015-0.395-0.107
		c0-0.079,0.053-0.104,0.186-0.117c0.094-0.025,0.186-0.144,0.123-0.302l-1.041-2.794c-0.027-0.066-0.066-0.093-0.133-0.093
		L445.191,89.907z M447.881,89.262c0.064,0.001,0.076-0.039,0.064-0.078l-1.17-3.256c-0.012-0.053-0.023-0.119-0.064-0.119
		s-0.064,0.065-0.08,0.118l-1.225,3.231c-0.012,0.054,0,0.092,0.053,0.094L447.881,89.262z"/>
	<path fill="#FFFFFF" d="M461.781,87.289c0.01-2,0.012-2.367-0.012-2.79c-0.025-0.445-0.129-0.657-0.563-0.751
		c-0.105-0.027-0.33-0.042-0.512-0.044c-0.146,0-0.225-0.025-0.225-0.118c0-0.094,0.092-0.119,0.289-0.118
		c0.699,0.003,1.525,0.047,1.803,0.049c0.447,0.004,1.447-0.032,1.855-0.031c0.83,0.003,1.709,0.088,2.418,0.577
		c0.365,0.252,0.891,0.926,0.887,1.807c-0.006,0.974-0.418,1.866-1.752,2.938c1.164,1.48,2.068,2.654,2.84,3.475
		c0.732,0.767,1.273,0.86,1.469,0.902c0.145,0.026,0.262,0.039,0.369,0.04c0.105,0,0.156,0.041,0.156,0.106
		c0,0.104-0.092,0.132-0.25,0.132l-1.252-0.008c-0.734-0.003-1.064-0.07-1.404-0.256c-0.564-0.308-1.063-0.926-1.793-1.942
		c-0.523-0.727-1.125-1.625-1.295-1.822c-0.064-0.079-0.145-0.093-0.236-0.093l-1.145-0.032c-0.064-0.001-0.105,0.025-0.105,0.104
		l-0.002,0.184c-0.006,1.226-0.012,2.265,0.055,2.815c0.035,0.383,0.113,0.673,0.51,0.726c0.195,0.028,0.484,0.058,0.643,0.058
		c0.105,0,0.158,0.039,0.158,0.105c-0.002,0.092-0.094,0.131-0.264,0.13c-0.762-0.003-1.736-0.047-1.934-0.048
		c-0.25-0.001-1.08,0.035-1.607,0.03c-0.17-0.001-0.262-0.04-0.262-0.132c0-0.066,0.053-0.104,0.211-0.104
		c0.197,0,0.355-0.023,0.477-0.052c0.262-0.05,0.328-0.339,0.383-0.722c0.068-0.551,0.072-1.591,0.08-2.801L461.781,87.289z
		 M463.33,88.335c-0.002,0.146,0.025,0.198,0.117,0.238c0.275,0.092,0.67,0.133,0.998,0.135c0.527,0.004,0.697-0.048,0.936-0.217
		c0.396-0.289,0.783-0.894,0.787-1.972c0.008-1.868-1.227-2.413-2.004-2.417c-0.328-0.001-0.564,0.013-0.697,0.05
		c-0.09,0.026-0.117,0.079-0.119,0.184L463.33,88.335z"/>
	<path fill="#FFFFFF" d="M482.002,87.965h0.064c0.449-0.486,2.379-2.437,2.762-2.884c0.371-0.431,0.662-0.757,0.664-0.982
		c0-0.144-0.051-0.235-0.184-0.264c-0.117-0.026-0.172-0.053-0.17-0.133c0-0.092,0.064-0.117,0.211-0.116
		c0.275,0.001,0.998,0.042,1.357,0.044c0.406,0.003,1.129-0.034,1.537-0.03c0.131,0.001,0.223,0.027,0.223,0.12
		s-0.064,0.116-0.197,0.116c-0.184,0-0.514,0.05-0.764,0.142c-0.408,0.155-0.857,0.43-1.426,0.979
		c-0.41,0.393-2.406,2.356-2.855,2.827c0.473,0.621,3.035,3.411,3.547,3.898c0.576,0.557,1.168,1.15,1.875,1.431
		c0.393,0.161,0.656,0.201,0.814,0.202c0.092,0,0.172,0.026,0.17,0.105c0,0.092-0.064,0.129-0.316,0.129l-1.145-0.005
		c-0.396-0.001-0.631-0.003-0.908-0.03c-0.709-0.068-1.063-0.359-1.627-0.863c-0.576-0.516-3.154-3.566-3.428-3.949l-0.143-0.198
		l-0.066-0.001l-0.006,1.198c-0.006,1.209-0.01,2.25,0.025,2.815c0.025,0.367,0.143,0.658,0.471,0.71
		c0.184,0.029,0.473,0.057,0.645,0.058c0.105,0,0.172,0.04,0.172,0.107c0,0.092-0.107,0.132-0.252,0.129
		c-0.736-0.004-1.564-0.047-1.896-0.048c-0.299-0.001-1.129,0.033-1.654,0.031c-0.172-0.001-0.266-0.04-0.264-0.133
		c0-0.066,0.053-0.105,0.211-0.104c0.197,0.001,0.355-0.024,0.473-0.051c0.266-0.052,0.33-0.34,0.387-0.722
		c0.068-0.552,0.072-1.59,0.08-2.802l0.012-2.315c0.008-1.999,0.01-2.369-0.018-2.788c-0.021-0.448-0.127-0.659-0.561-0.753
		c-0.105-0.027-0.328-0.042-0.514-0.044c-0.145,0-0.221-0.027-0.221-0.12c0-0.09,0.092-0.116,0.289-0.114
		c0.697,0.003,1.523,0.047,1.84,0.048s1.145-0.036,1.594-0.032c0.184,0.002,0.275,0.029,0.275,0.118c0,0.094-0.08,0.121-0.184,0.12
		c-0.131,0-0.211,0.011-0.369,0.037c-0.355,0.064-0.463,0.287-0.49,0.747c-0.029,0.422-0.029,0.79-0.039,2.789L482.002,87.965z"/>
	<path fill="#FFFFFF" d="M499.184,87.467c0.012-2,0.014-2.367-0.014-2.791c-0.023-0.445-0.129-0.657-0.559-0.75
		c-0.107-0.029-0.33-0.043-0.514-0.045c-0.145,0-0.225-0.025-0.225-0.119c0.002-0.092,0.092-0.116,0.289-0.115
		c0.699,0.004,1.527,0.046,1.896,0.047c0.42,0.003,3.039,0.018,3.289,0.003c0.248-0.025,0.459-0.05,0.564-0.075
		c0.066-0.014,0.145-0.055,0.213-0.055c0.064,0.001,0.076,0.058,0.076,0.123c0,0.092-0.066,0.249-0.107,0.854
		c-0.016,0.13-0.045,0.71-0.07,0.867c-0.014,0.064-0.041,0.144-0.135,0.144c-0.092-0.001-0.117-0.066-0.115-0.185
		c0-0.093-0.012-0.314-0.076-0.475c-0.094-0.236-0.223-0.394-0.881-0.478c-0.223-0.027-1.605-0.06-1.867-0.063
		c-0.066,0-0.092,0.04-0.092,0.132l-0.016,3.33c0,0.09,0.012,0.144,0.09,0.144c0.291,0.001,1.801,0.009,2.107-0.018
		c0.314-0.023,0.512-0.063,0.631-0.192c0.094-0.105,0.145-0.17,0.209-0.17c0.053,0,0.092,0.025,0.092,0.104
		s-0.066,0.289-0.107,0.961c-0.029,0.264-0.057,0.789-0.057,0.881c0,0.105-0.002,0.251-0.121,0.25c-0.092,0-0.117-0.055-0.117-0.12
		c-0.014-0.131-0.012-0.302-0.049-0.474c-0.066-0.262-0.25-0.462-0.736-0.517c-0.25-0.027-1.553-0.046-1.867-0.048
		c-0.064,0-0.08,0.051-0.08,0.133l-0.006,1.037c-0.002,0.447-0.021,1.657-0.01,2.039c0.023,0.909,0.232,1.106,1.574,1.112
		c0.344,0.003,0.895,0.006,1.238-0.149c0.342-0.158,0.502-0.433,0.598-0.971c0.025-0.145,0.051-0.197,0.145-0.196
		c0.104,0,0.104,0.104,0.104,0.235c-0.002,0.302-0.109,1.198-0.176,1.46c-0.096,0.342-0.215,0.341-0.715,0.339
		c-1.986-0.009-2.867-0.092-3.643-0.098c-0.305-0.001-1.131,0.035-1.658,0.031c-0.172,0-0.264-0.041-0.264-0.13
		c0.002-0.067,0.055-0.108,0.211-0.105c0.197,0.001,0.357-0.024,0.475-0.052c0.262-0.05,0.332-0.34,0.387-0.719
		c0.068-0.553,0.07-1.594,0.078-2.804L499.184,87.467z"/>
	<path fill="#FFFFFF" d="M517.945,84.477l-1.959,0.043c-0.762,0.025-1.08,0.089-1.279,0.376c-0.131,0.196-0.197,0.354-0.225,0.461
		c-0.027,0.104-0.064,0.157-0.145,0.157c-0.092,0-0.119-0.069-0.119-0.212c0.002-0.213,0.258-1.407,0.285-1.512
		c0.039-0.172,0.078-0.25,0.158-0.249c0.105,0,0.236,0.131,0.566,0.159c0.379,0.043,0.879,0.07,1.314,0.073l5.209,0.024
		c0.422,0.001,0.711-0.037,0.908-0.061c0.197-0.04,0.303-0.065,0.354-0.065c0.094,0,0.107,0.079,0.105,0.276
		c-0.002,0.275-0.047,1.185-0.047,1.526c-0.014,0.133-0.039,0.211-0.117,0.211c-0.105-0.001-0.133-0.067-0.146-0.265l-0.012-0.144
		c-0.023-0.342-0.375-0.713-1.549-0.744l-1.656-0.049l-0.027,5.396c-0.006,1.209-0.01,2.249,0.053,2.813
		c0.039,0.371,0.117,0.66,0.51,0.715c0.186,0.025,0.475,0.055,0.672,0.056c0.145,0.001,0.209,0.04,0.209,0.105
		c0,0.092-0.105,0.132-0.25,0.131c-0.869-0.005-1.695-0.049-2.064-0.051c-0.303,0-1.135,0.036-1.658,0.033
		c-0.172,0-0.264-0.04-0.264-0.133c0-0.065,0.055-0.104,0.213-0.104c0.197,0.001,0.355-0.024,0.473-0.051
		c0.264-0.052,0.344-0.339,0.385-0.722c0.07-0.552,0.072-1.592,0.08-2.802L517.945,84.477z"/>
	<polygon fill="#FFFFFF" points="250.913,0 255.445,9.296 265.672,10.83 258.232,18.016 259.932,28.216 250.802,23.359 
		241.625,28.129 243.421,17.944 236.05,10.689 246.291,9.252 	"/>
	<path fill="#FFFFFF" d="M78.313,71.806c-2.061,1.427-7.054,3.012-11.097,3.012c-10.304,0-18.706-6.5-18.706-16.406
		c0-9.276,7.847-17.28,18.706-17.28c6.5,0,8.64,3.171,10.7,1.902l0.555,6.974l-1.03-0.079c-1.665-5.389-5.47-6.895-10.859-6.895
		c-8.005,0-13.554,7.213-13.158,15.378c0.396,8.718,6.896,14.424,14.426,14.424c5.628,0,9.273-1.506,9.987-8.007h1.348
		L78.313,71.806z"/>
	<path fill="#FFFFFF" d="M91.408,68.625c0,2.353,0.392,3.202,3.266,3.463c0.262,0.065,0.392,0.065,0.654,0.065l0.065,0.85
		l-0.85-0.065c-2.024-0.196-2.874-0.327-3.984-0.327H88.6c-1.111,0-1.894,0.131-3.985,0.327l-0.849,0.065l0.065-0.85
		c0.261,0,0.392,0,0.653-0.065c2.874-0.261,3.267-1.11,3.267-3.463V50.729c0-2.352-0.393-3.136-3.267-3.462
		c-0.261-0.065-0.392-0.065-0.653-0.065l-0.065-0.783l0.849,0.065c2.091,0.13,2.874,0.261,3.985,0.261h1.959
		c1.11,0,1.96-0.131,3.984-0.261l0.85-0.065l-0.065,0.783c-0.262,0-0.392,0-0.654,0.065c-2.874,0.326-3.266,1.11-3.266,3.462v5.095
		h14.174v-5.095c0-2.352-0.326-3.136-3.2-3.462c-0.327-0.065-0.392-0.065-0.654-0.065l-0.065-0.783l0.85,0.065
		c2.024,0.13,2.873,0.261,3.984,0.261h1.959c1.11,0,1.894-0.131,3.984-0.261l0.784-0.065l-0.065,0.783c-0.196,0-0.327,0-0.587,0.065
		c-2.939,0.326-3.267,1.11-3.267,3.462v17.896c0,2.353,0.327,3.202,3.267,3.463c0.261,0.065,0.392,0.065,0.587,0.065l0.065,0.85
		l-0.784-0.065c-2.09-0.196-2.874-0.327-3.984-0.327h-1.959c-1.111,0-1.96,0.131-3.984,0.327l-0.85,0.065l0.065-0.85
		c0.262,0,0.327,0,0.654-0.065c2.874-0.261,3.2-1.11,3.2-3.463v-7.511H91.408V68.625z M91.408,59.415h14.174v-1.894H91.408V59.415z"
		/>
	<path fill="#FFFFFF" d="M125.897,68.625c0,2.353,0.392,3.202,3.266,3.463c0.261,0.065,0.392,0.065,0.654,0.065l0.065,0.784h-0.85
		c-2.025-0.196-2.874-0.327-3.985-0.327h-1.959c-1.11,0-1.894,0.131-3.984,0.327h-0.849l0.065-0.784c0.261,0,0.392,0,0.653-0.065
		c2.874-0.261,3.266-1.11,3.266-3.463V50.729c0-2.352-0.392-3.136-3.266-3.462c-0.261-0.065-0.392-0.065-0.653-0.065l-0.065-0.783
		l0.849,0.065c2.091,0.13,2.874,0.261,3.984,0.261h0.458c0.653,0,2.221-0.195,6.532-0.195c5.944,0,9.471,3.003,9.471,6.597
		c0,3.658-2.612,6.466-6.271,7.772c2.613,3.069,8.165,9.732,8.688,10.387c0.653,0.783,1.894,2.284,1.502,2.611
		c-0.392,0.392-1.306-0.131-3.005-1.567c-3.266-2.679-10.125-8.819-12.345-10.842h-2.221V68.625z M135.825,54.124
		c0-3.265-2.351-6.271-7.055-6.271c-2.351,0-2.874,0.065-2.874,1.829v10.517h3.658C132.886,59.611,135.825,57.652,135.825,54.124z"
		/>
	<path fill="#FFFFFF" d="M157.185,72.938c-2.025-0.196-2.874-0.327-3.984-0.327h-1.959c-1.111,0-1.895,0.131-3.985,0.327
		l-0.784,0.065v-0.85c0.261,0,0.392,0,0.653-0.065c2.875-0.261,3.266-1.11,3.266-3.463V50.729c0-2.352-0.391-3.136-3.266-3.462
		c-0.261-0.065-0.392-0.065-0.653-0.065v-0.783l0.784,0.065c2.09,0.13,2.874,0.261,3.985,0.261h1.959
		c1.11,0,1.959-0.131,3.984-0.261l0.85-0.065l-0.065,0.783c-0.262,0-0.327,0-0.653,0.065c-2.874,0.326-3.201,1.11-3.201,3.462
		v17.896c0,2.353,0.327,3.202,3.201,3.463c0.326,0.065,0.392,0.065,0.653,0.065l0.065,0.85L157.185,72.938z"/>
	<path fill="#FFFFFF" d="M171.881,73.589c-3.396,0-5.617-1.566-6.531-1.893l-0.98-5.553h0.85c0.914,3.984,2.938,5.944,6.662,5.944
		c3.332,0,5.944-1.764,5.944-4.965c0-3.07-2.221-4.572-6.924-7.055c-3.2-1.828-6.075-4.114-6.075-7.315
		c0-4.376,3.005-6.924,7.643-6.924c3.135,0,3.789,1.438,6.531,1.438l0.785,4.245h-0.719c-1.436-3.593-4.375-4.311-6.792-4.311
		c-2.613,0-4.507,1.894-4.507,4.311c0,2.547,2.482,3.657,5.291,5.227c4.376,2.415,8.165,4.507,8.165,9.209
		C181.222,69.801,177.368,73.589,171.881,73.589z"/>
	<path fill="#FFFFFF" d="M188.045,48.702c-1.567,0-2.352,0.262-3.461,2.615h-0.915l2.286-6.011H187
		c-0.392,1.242-0.065,1.438,1.568,1.438h18.551c1.503,0,2.286-0.261,3.461-2.614h0.85l-2.352,6.011h-0.913
		c0.327-1.242,0.065-1.438-1.634-1.438h-7.969v19.923c0,2.353,0.327,3.202,3.201,3.463c0.327,0.065,0.458,0.065,0.653,0.065
		l0.065,0.85l-0.784-0.065c-2.09-0.196-2.874-0.327-4.05-0.327h-1.894c-1.11,0-1.959,0.131-3.985,0.327l-0.849,0.065l0.065-0.85
		c0.196,0,0.327,0,0.653-0.065c2.874-0.261,3.201-1.11,3.201-3.463V48.702H188.045z"/>
	<path fill="#FFFFFF" d="M225.834,72.088c0.262,0.065,0.392,0.065,0.654,0.065l0.065,0.85l-0.85-0.065
		c-2.023-0.196-2.873-0.327-3.984-0.327h-1.959c-1.109,0-1.894,0.131-3.985,0.327l-0.849,0.065l0.065-0.85
		c0.262,0,0.392,0,0.652-0.065c2.875-0.261,3.268-1.11,3.268-3.463V50.729c0-2.352-0.392-3.136-3.268-3.462
		c-0.26-0.065-0.391-0.065-0.652-0.065l-0.065-0.783l0.849,0.065c2.091,0.13,2.875,0.261,3.985,0.261h1.959
		c1.111,0,1.96-0.131,3.984-0.261l0.85-0.065l-0.065,0.783c-0.262,0-0.392,0-0.654,0.065c-2.873,0.326-3.265,1.11-3.265,3.462v8.687
		c3.919-0.262,10.778-8.033,10.778-10.451c0-1.045-0.849-1.437-3.201-1.697c-0.327-0.065-0.654-0.065-0.654-0.065l-0.065-0.783
		l0.784,0.065c2.09,0.13,2.939,0.261,4.049,0.261h0.719c1.11,0,1.959-0.131,4.05-0.261l0.784-0.065l-0.065,0.783
		c0,0-0.326,0-0.653,0.065c-2.875,0.326-3.984,2.939-4.638,3.92c-2.481,3.592-4.703,5.813-7.12,7.574
		c2.744,1.308,8.099,13.653,17.049,16.724c2.547,0.915,5.877,0.915,8.296-0.131c-0.458,1.177-3.07,2.155-6.467,2.155
		c-11.039,0-19.857-15.479-21.359-16.525c-0.588-0.392-1.502-0.522-2.287-0.392v8.033C222.569,70.978,222.961,71.827,225.834,72.088
		z"/>
	<path fill="#FFFFFF" d="M256.927,72.938c-2.026-0.196-2.875-0.327-3.984-0.327h-1.96c-1.111,0-1.894,0.131-3.984,0.327
		l-0.784,0.065v-0.85c0.261,0,0.392,0,0.653-0.065c2.875-0.261,3.265-1.11,3.265-3.463V50.729c0-2.352-0.39-3.136-3.265-3.462
		c-0.261-0.065-0.392-0.065-0.653-0.065v-0.783l0.784,0.065c2.09,0.13,2.874,0.261,3.984,0.261h1.96
		c1.109,0,1.958-0.131,3.984-0.261l0.85-0.065l-0.065,0.783c-0.261,0-0.326,0-0.653,0.065c-2.875,0.326-3.201,1.11-3.201,3.462
		v17.896c0,2.353,0.327,3.202,3.201,3.463c0.327,0.065,0.393,0.065,0.653,0.065l0.065,0.85L256.927,72.938z"/>
	<path fill="#FFFFFF" d="M293.851,72.938l-0.849,0.065l0.066-0.85c0.26,0,0.391,0,0.651-0.065c2.876-0.261,3.269-1.11,3.269-3.463
		V50.729c0-2.352-0.393-3.136-3.269-3.462c-0.261-0.065-0.392-0.065-0.651-0.065l-0.066-0.783l0.849,0.065
		c2.091,0.13,3.854,0.261,6.206,0.261c0,0,5.029-0.195,6.859-0.195c8.49,0,15.414,5.094,15.414,12.67
		c0,7.187-6.466,13.522-15.414,13.522l-9.08-0.131C296.727,72.61,295.941,72.741,293.851,72.938z M306.785,48.05
		c-0.916,0-5.16,0.131-6.141,0.196v19.661c0,2.678,1.111,3.463,6.141,3.463c6.66,0,11.432-5.618,11.432-12.021
		C318.217,52.491,312.99,48.05,306.785,48.05z"/>
	<path fill="#FFFFFF" d="M357.613,70.847h4.377c3.068,0,3.396-0.196,5.422-2.743l1.438-1.764h1.369
		c-2.283,3.003-3.133,4.965-3.525,6.532c0,0-8.491-0.262-11.89-0.262h-2.022c-1.111,0-1.896,0.131-3.986,0.327l-0.848,0.065
		l0.065-0.85c0.261,0,0.392,0,0.651-0.065c2.875-0.261,3.266-1.11,3.266-3.463V50.729c0-2.352-0.391-3.136-3.266-3.462
		c-0.26-0.065-0.391-0.065-0.651-0.065l-0.065-0.783l0.848,0.065c2.09,0.13,2.875,0.261,3.986,0.261h1.957
		c1.111,0,1.961-0.131,3.986-0.261l0.848-0.065l-0.066,0.783c-0.262,0-0.391,0-0.65,0.065c-2.875,0.326-3.268,1.11-3.268,3.462
		v17.896C355.588,70.716,355.719,70.847,357.613,70.847z"/>
	<path fill="#FFFFFF" d="M330.658,59.153v9.472c0,2.091,0.131,2.222,2.026,2.222c0.323,0.065,4.507,0,4.507,0
		c3.068,0,3.723-0.719,5.291-3.332l1.305-0.13c-1.763,2.939-1.828,3.854-2.219,5.422c0,0-4.115-0.131-6.729-0.196h-6.988
		c-1.11,0-1.896,0.131-3.986,0.327l-0.849,0.065l0.064-0.85c0.261,0,0.392,0,0.653-0.065c2.876-0.261,3.269-1.11,3.269-3.463V50.729
		c0-2.352-0.393-3.136-3.269-3.462c-0.262-0.065-0.393-0.065-0.653-0.065l-0.064-0.783l0.849,0.065
		c2.091,0.13,2.876,0.261,3.986,0.261h13.651l0.98,4.833l-0.914-0.065c-0.721-2.679-1.047-2.875-3.53-2.94l-7.38-0.131v9.081h5.292
		c1.046,0,1.892-1.241,2.219-2.025h0.327c0.457,1.111,1.568,2.222,2.68,2.679V58.5c-1.111,0.457-2.223,1.568-2.68,2.68h-0.327
		c-0.327-0.784-1.173-2.026-2.219-2.026H330.658z"/>
	<path fill="#FFFFFF" d="M406.848,72.872c-1.502-0.131-2.482-0.262-3.332-0.262h-1.566c-0.784,0-1.83,0.131-3.268,0.262H397.9
		v-0.915c0.326,0,0.455,0,0.65,0c1.896-0.195,2.614-0.718,2.614-2.287V54.124c-3.526,0-6.468-0.784-9.014-1.764v17.31
		c0,1.569,0.653,2.092,2.546,2.287c0.197,0,0.328,0,0.653,0v0.915h-0.718c-1.501-0.131-2.481-0.262-3.33-0.262h-1.569
		c-0.85,0-1.827,0.131-3.265,0.262h-0.851l0.065-0.915c0.327,0,0.458,0,0.654,0c1.895-0.195,2.546-0.718,2.546-2.287V50.336
		c-1.958-1.634-4.964-3.657-8.948-3.657V69.67c0,1.569,0.654,2.092,2.549,2.287c0.196,0,0.327,0,0.653,0v0.915h-0.784
		c-1.438-0.131-2.418-0.262-3.268-0.262h-1.566c-0.85,0-1.829,0.131-3.398,0.262h-0.715l0.063-0.915c0.326,0,0.393,0,0.652,0
		c1.831-0.195,2.549-0.718,2.549-2.287V47.071c0-1.568-0.588-2.026-2.222-2.288c-0.196,0-0.718,0-0.979,0l-0.063-0.979l1.173,0.131
		c1.308,0.131,3.529,0.261,5.552,0.392c3.984,0.261,7.449,1.961,10.451,4.311c2.743,2.157,6.926,3.202,11.629,3.202
		c1.565,0,3.004-0.131,4.245-0.262h1.177l-0.065,0.849c-0.327,0-0.85,0-1.046,0c-1.635,0.262-2.156,0.784-2.156,2.353V69.67
		c0,1.569,0.652,2.092,2.613,2.287c0.131,0,0.262,0,0.654,0v0.915H406.848z"/>
	<path fill="#FFFFFF" d="M419.781,68.363v0.262c0,2.353,0.391,3.202,3.264,3.463c0.262,0.065,0.393,0.065,0.654,0.065v0.85
		l-0.785-0.065c-2.088-0.196-2.873-0.327-3.982-0.327h-2.157c-1.108,0-1.893,0.131-3.983,0.327l-0.85,0.065l0.064-0.85
		c0.262,0,0.393,0,0.654-0.065c2.875-0.261,3.268-1.11,3.268-3.463v-0.262c0.131-9.667,3.461-18.419,10.84-22.796
		c7.514,4.377,10.779,13.063,10.975,22.73v0.327c0,2.353,0.328,3.202,3.199,3.463c0.328,0.065,0.393,0.065,0.654,0.065l0.066,0.85
		l-0.848-0.065c-2.025-0.196-2.875-0.327-3.986-0.327h-2.09c-1.111,0-1.959,0.131-3.984,0.327l-0.85,0.065l0.066-0.85
		c0.195,0,0.326,0,0.654-0.065c2.871-0.261,3.199-1.11,3.199-3.463v-0.327c0-1.175-0.066-2.351-0.131-3.396h-13.781
		C419.846,66.013,419.781,67.123,419.781,68.363z M426.768,47.071c-3.33,1.827-5.941,6.792-6.727,15.937h13.521
		C432.779,53.928,430.166,48.898,426.768,47.071z"/>
	<path fill="#FFFFFF" d="M453.813,68.625c0,2.353,0.393,3.202,3.266,3.463c0.26,0.065,0.391,0.065,0.652,0.065l0.066,0.784h-0.85
		c-2.023-0.196-2.873-0.327-3.984-0.327h-1.959c-1.111,0-1.895,0.131-3.986,0.327h-0.85l0.066-0.784c0.26,0,0.391,0,0.652-0.065
		c2.877-0.261,3.268-1.11,3.268-3.463V50.729c0-2.352-0.391-3.136-3.268-3.462c-0.262-0.065-0.393-0.065-0.652-0.065l-0.066-0.783
		l0.85,0.065c2.092,0.13,2.875,0.261,3.986,0.261h0.455c0.654,0,2.223-0.195,6.533-0.195c5.943,0,9.471,3.003,9.471,6.597
		c0,3.658-2.611,6.466-6.271,7.772c2.615,3.069,8.168,9.732,8.689,10.387c0.654,0.783,1.893,2.284,1.5,2.611
		c-0.391,0.392-1.305-0.131-3.002-1.567c-3.266-2.679-10.125-8.819-12.348-10.842h-2.219V68.625z M463.74,54.124
		c0-3.265-2.352-6.271-7.055-6.271c-2.35,0-2.873,0.065-2.873,1.829v10.517h3.656C460.803,59.611,463.74,57.652,463.74,54.124z"/>
	<path fill="#FFFFFF" d="M486.016,72.088c0.262,0.065,0.393,0.065,0.654,0.065l0.064,0.85l-0.85-0.065
		c-2.025-0.196-2.875-0.327-3.984-0.327h-1.959c-1.111,0-1.896,0.131-3.984,0.327l-0.85,0.065l0.064-0.85
		c0.262,0,0.393,0,0.654-0.065c2.873-0.261,3.266-1.11,3.266-3.463V50.729c0-2.352-0.393-3.136-3.266-3.462
		c-0.262-0.065-0.393-0.065-0.654-0.065l-0.064-0.783l0.85,0.065c2.088,0.13,2.873,0.261,3.984,0.261h1.959
		c1.109,0,1.959-0.131,3.984-0.261l0.85-0.065l-0.064,0.783c-0.262,0-0.393,0-0.654,0.065c-2.875,0.326-3.268,1.11-3.268,3.462
		v8.687c3.922-0.262,10.779-8.033,10.779-10.451c0-1.045-0.852-1.437-3.201-1.697c-0.326-0.065-0.652-0.065-0.652-0.065
		l-0.066-0.783l0.785,0.065c2.088,0.13,2.938,0.261,4.049,0.261h0.719c1.111,0,1.961-0.131,4.049-0.261l0.785-0.065l-0.066,0.783
		c0,0-0.326,0-0.652,0.065c-2.873,0.326-3.984,2.939-4.637,3.92c-2.482,3.592-4.703,5.813-7.123,7.574
		c2.746,1.308,8.102,13.653,17.051,16.724c2.549,0.915,5.879,0.915,8.293-0.131c-0.457,1.177-3.068,2.155-6.465,2.155
		c-11.039,0-19.855-15.479-21.359-16.525c-0.588-0.392-1.502-0.522-2.287-0.392v8.033C482.748,70.978,483.141,71.827,486.016,72.088
		z"/>
	<path fill="#FFFFFF" d="M507.865,48.702c-1.564,0-2.35,0.262-3.461,2.615h-0.914l2.287-6.011h1.043
		c-0.389,1.242-0.063,1.438,1.568,1.438h6.271v-3.268c0-2.351-0.326-3.199-3.199-3.461c-0.328-0.065-0.457-0.065-0.654-0.065
		l-0.064-0.85l0.85,0.065c2.023,0.196,2.873,0.327,3.982,0.327h1.895c1.174,0,1.959-0.131,4.051-0.327l0.781-0.065l-0.066,0.85
		c-0.195,0-0.326,0-0.648,0.065c-2.877,0.262-3.203,1.11-3.203,3.461v3.268h6.795c1.5,0,9.848-0.261,11.023-2.614h0.85l-9.916,6.011
		h-0.912c0.326-1.242,0.064-1.438-1.635-1.438h-6.205v19.923c0,2.353,0.326,3.202,3.203,3.463c0.322,0.065,0.453,0.065,0.648,0.065
		l0.066,0.85l-0.781-0.065c-2.092-0.196-2.877-0.327-4.051-0.327h-1.895c-1.109,0-1.959,0.131-3.982,0.327l-0.85,0.065l0.064-0.85
		c0.197,0,0.326,0,0.654-0.065c2.873-0.261,3.199-1.11,3.199-3.463V48.702H507.865z"/>
	<path fill="#FFFFFF" d="M55.225,26.826l-0.735,0.519c0,0-27.038-12.999-32.234-15.497c1.732,5.695,12.557,41.279,12.557,41.279
		S4.471,84.223,0,88.805c6.412-0.087,50.361-0.682,50.361-0.682s21.208,30.158,24.65,35.053c1.23-5.788,8.353-39.322,8.353-39.322
		s10.146-2.064,19.132-3.895c-11.022,0-21.979,0-23.324,0c-0.548,2.084-7.357,27.94-7.357,27.94s-15.99-27.102-16.698-28.303
		c-1.359-0.199-24.537-3.603-24.537-3.603S42.73,54.71,43.393,53.549c-0.46-1.266-10.358-28.462-10.358-28.462
		s21.158,9.183,22.804,9.897c1.346-1.206,18.982-17.018,18.982-17.018s1.685,5.306,2.579,8.118c0.144-6.76,0.26-12.151,0.323-15.131
		C73.701,13.792,55.225,26.826,55.225,26.826z"/>
	<path fill="#9D2123" d="M272.674,71.763l0.001,0.023C272.707,71.781,272.674,71.763,272.674,71.763z"/>
	<path fill="#FFFFFF" d="M288.735,73.003l-0.065-0.85c-0.262,0-0.327,0-0.654-0.065c-2.872-0.261-3.199-1.11-3.199-3.463v-0.327
		c-0.018-0.891-0.098-1.743-0.205-2.578V50.729c0-2.352,0.328-3.136,3.201-3.462c0.328-0.065,0.393-0.065,0.654-0.065l0.064-0.783
		l-0.85,0.065c-2.025,0.13-2.873,0.261-3.984,0.261h-1.96c-1.11,0-1.894-0.131-3.983-0.261l-0.785-0.065v0.783
		c0.262,0,0.393,0,0.654,0.065c2.873,0.326,3.264,1.11,3.264,3.462v7.438c-2.233-3.141-7.365-7.727-10.852-9.842
		c0.427-0.582,1.224-0.887,2.73-1.058c0.327-0.065,0.393-0.065,0.652-0.065l0.066-0.783l-0.85,0.065
		c-2.025,0.13-2.875,0.261-3.984,0.261h-1.96c-1.111,0-1.894-0.131-3.984-0.261l-0.784-0.065v0.783c0.261,0,0.392,0,0.654,0.065
		c2.874,0.326,3.265,1.11,3.265,3.462v17.896c0,2.353-0.391,3.202-3.265,3.463c-0.262,0.065-0.393,0.065-0.654,0.065v0.85
		l0.784-0.065c2.09-0.196,2.874-0.327,3.984-0.327h1.96c1.109,0,1.958,0.131,3.984,0.327l0.85,0.065l-0.066-0.85
		c-0.26,0-0.325,0-0.652-0.065c-2.875-0.261-3.2-1.11-3.2-3.463V50.729c0-0.448,0.021-0.276,0.06-0.618
		c3.389,1.826,10.244,6.055,11.011,14.936c0,0,0.237,1.779,0.251,2.801v0.778c0,2.353-0.391,3.202-3.264,3.463
		c-0.262,0.065-0.393,0.065-0.654,0.065v0.85l0.01-0.002v0.002l0.85-0.065c2.023-0.196,2.873-0.327,3.984-0.327h1.885
		c1.111,0,1.959,0.131,3.984,0.327l0.85,0.065v-0.017L288.735,73.003z"/>
</g>
</svg>
