<?xml version="1.0" encoding="utf-8"?>
<!-- Generator: Adobe Illustrator 15.1.0, SVG Export Plug-In . SVG Version: 6.00 Build 0)  -->
<!DOCTYPE svg PUBLIC "-//W3C//DTD SVG 1.0//EN" "http://www.w3.org/TR/2001/REC-SVG-20010904/DTD/svg10.dtd">
<svg version="1.0" id="Layer_1" xmlns="http://www.w3.org/2000/svg" xmlns:xlink="http://www.w3.org/1999/xlink" x="0px" y="0px"
	 width="100.085px" height="30.007px" viewBox="0 0 100.085 30.007" enable-background="new 0 0 100.085 30.007"
	 xml:space="preserve">
<path fill-rule="evenodd" clip-rule="evenodd" fill="#FFFFFF" d="M100.085,28.524c0,0.071,0,0.161-0.028,0.281
	c-0.021,0.121-0.043,0.211-0.07,0.251c-0.22-0.021-0.891-0.031-2.013-0.031h-0.291l-0.027-0.09l0.019-0.76
	c0.019-0.26,0.03-0.601,0.03-1.012c0-0.42-0.012-0.76-0.03-1.02l-0.019-0.771l0.027-0.08h0.621l0.031,0.08
	c-0.031,0.602-0.05,1.201-0.05,1.791c0,0.452,0.01,0.982,0.05,1.582c0.618,0.02,1.079,0.011,1.369-0.04
	C99.875,28.676,99.996,28.616,100.085,28.524z M59.59,12.322l-0.09,0.611l-9.468,4.424c0.141,0.318,0.432,0.839,0.87,1.55
	c0.801,1.313,2.044,1.962,3.704,1.962c1.941,0,3.573-0.861,4.894-2.582c0.201,0.381,0.191,0.96-0.029,1.73
	c-1.841,1.603-3.634,2.403-5.384,2.403c-2.124,0-3.844-0.671-5.166-1.992c-1.331-1.331-1.991-3.002-1.991-5.033
	c0-1.981,0.62-3.623,1.87-4.925c1.323-1.371,2.964-2.062,4.924-2.062c1.771,0,3.214,0.57,4.335,1.7
	C58.32,10.391,58.83,11.133,59.59,12.322z M57.008,13.273c-0.16-0.812-0.46-1.562-0.899-2.252c-0.661-1.052-1.682-1.582-3.072-1.582
	c-1.243,0-2.143,0.56-2.702,1.671c-0.481,0.993-0.731,2.304-0.751,3.924c0,0.55,0.049,1.03,0.148,1.462L57.008,13.273z
	 M73.133,12.322l-0.101,0.611l-9.458,4.424c0.14,0.318,0.43,0.839,0.872,1.55c0.798,1.313,2.031,1.962,3.691,1.962
	c1.941,0,3.583-0.861,4.905-2.582c0.198,0.381,0.189,0.96-0.03,1.73c-1.852,1.603-3.644,2.403-5.386,2.403
	c-2.12,0-3.852-0.671-5.175-1.992c-1.32-1.331-1.981-3.002-1.981-5.033c0-1.981,0.621-3.623,1.861-4.925
	c1.322-1.371,2.974-2.062,4.935-2.062c1.763,0,3.203,0.57,4.333,1.7C71.862,10.391,72.373,11.133,73.133,12.322z M70.54,13.273
	c-0.159-0.812-0.46-1.562-0.899-2.252c-0.661-1.052-1.682-1.582-3.063-1.582c-1.241,0-2.151,0.56-2.711,1.671
	c-0.482,0.993-0.731,2.304-0.752,3.924c0,0.55,0.05,1.03,0.15,1.462L70.54,13.273z M30.617,26.874l-0.692,1.061l0.952,1.053H23.57
	v-1.482h-1.151v-0.631H30.617z M8.136,27.925H23.19v2.092H8.136V27.925z M0.67,26.874h8.188v0.621H7.716v1.492H0.402l0.949-1.063
	L0.67,26.874z M8.108,4.365c0-0.161,0.179-0.281,0.408-0.281c0.221,0,0.402,0.12,0.402,0.281S8.738,4.656,8.517,4.656l-0.099-0.01
	c-0.309,0.35-0.34,0.79-0.34,0.79v0.629H4.275c0,0,0.009-0.448,0-0.609c-0.022-0.189-0.261-0.621-0.412-0.8H3.814
	c-0.232,0-0.411-0.13-0.411-0.291s0.179-0.281,0.411-0.281c0.22,0,0.399,0.12,0.399,0.281l-0.009,0.05
	c0.94,0.992,1.682,1.111,1.781-0.04h0.371c0.021,1.102,0.591,1.091,1.771,0.07C8.118,4.426,8.108,4.396,8.108,4.365z M5.796,3.976
	c0-0.16,0.179-0.29,0.398-0.29c0.232,0,0.411,0.13,0.411,0.29c0,0.159-0.179,0.278-0.411,0.278C5.976,4.254,5.796,4.135,5.796,3.976
	z M4.285,6.557c0,0.031-0.031,0.352,0.21,0.452c0.55,0.219,1.57-0.052,1.881,1.391c0.02,0.05,0.091,0.069,0.131-0.011
	c-0.041-0.841,0.448-1.25,1.23-1.451c0.219-0.069,0.43-0.121,0.479-0.251c0.04-0.139-0.068-0.63,0.391-0.63
	c0.06,0,0.21,0.04,0.221,0.191c0.03,0.26-0.181,0.329-0.111,0.42c0.081,0.1,0.021,0.2,0.011,0.209
	c-0.07,0.091-0.11,0.051-0.382,0.17c-0.3,0.132-0.448,0.311-0.489,0.422c-0.031,0.1-0.021,0.079,0,0.211
	c0.009,0.148,0.3,0.219,0.229,0.237c-0.081,0.013-0.24,0.031-0.28,0.081c-0.04,0.062-0.19,0.25-0.4,0.271
	c-0.21,0.028-0.21-0.012-0.36,0.068c-0.409,0.191-0.49,0.491-0.521,0.621C6.507,9.089,6.485,9.12,6.427,9.08
	C6.376,9.039,6.416,8.969,6.315,8.829c-0.11-0.141-0.201-0.4-0.51-0.411c-0.201-0.009-0.6,0.04-0.7-0.099
	C4.924,8.06,4.764,8.1,4.754,8.028c0-0.04,0.181-0.06,0.161-0.23c-0.02-0.181-0.101-0.29-0.402-0.431
	c-0.3-0.14-0.56-0.14-0.609-0.21c-0.041-0.07-0.041-0.09-0.022-0.171c0.031-0.139,0.013-0.078-0.099-0.179
	c-0.11-0.109-0.059-0.551,0.219-0.532C4.204,6.288,4.285,6.468,4.285,6.557z M5.144,7.969c0.021,0.159,0.161,0.271,0.312,0.25
	c0.148-0.021,0.26-0.159,0.238-0.32c-0.019-0.151-0.148-0.26-0.31-0.241C5.235,7.68,5.125,7.818,5.144,7.969z M6.946,7.868
	c0.02,0.16,0.161,0.271,0.311,0.25c0.15-0.019,0.26-0.161,0.24-0.309c-0.019-0.161-0.15-0.272-0.309-0.251
	C7.036,7.577,6.926,7.72,6.946,7.868z M8.608,14.253l-0.159,0.622c-0.071-0.159-0.261-0.101-0.393-0.021l0.241-0.721
	C8.438,13.974,8.567,14.014,8.608,14.253z M7.867,16.536c-0.219,0.629-0.881,1.342-1.471,1.78c-0.57,0.371-0.099-0.051-0.09-0.08
	c0.77-0.82,1-1.18,1.311-1.91C7.747,16.196,7.988,16.326,7.867,16.536z M8.758,12.072v0.65c-0.11-0.12-0.22-0.12-0.331,0v-0.65
	C8.517,11.871,8.659,11.853,8.758,12.072z M8.177,10.211c0.291,0.251,0.331,0.459,0.371,0.699c-0.02-0.028-0.26-0.27-0.371-0.019
	c-0.059-0.222-0.139-0.402-0.3-0.541C7.818,10.34,7.787,9.97,8.177,10.211z M7.517,12.063l0.029,0.649
	c-0.108-0.109-0.22-0.109-0.318,0.021l-0.031-0.642C7.277,11.882,7.407,11.853,7.517,12.063z M6.727,10.292
	c0.3,0.229,0.42,0.367,0.51,0.608c-0.02-0.029-0.451-0.371-0.49,0.031c-0.069-0.22-0.15-0.362-0.311-0.479
	C6.365,10.439,6.325,10.08,6.727,10.292z M22.43,4.365c0-0.161,0.181-0.291,0.41-0.291c0.221,0,0.402,0.13,0.402,0.291
	c0,0.031,0,0.05-0.011,0.08c1.17,1.011,1.742,1.031,1.771-0.07h0.36c0.101,1.141,0.841,1.021,1.782,0.04l-0.011-0.05
	c0-0.161,0.19-0.291,0.411-0.291c0.219,0,0.398,0.13,0.398,0.291s-0.179,0.291-0.398,0.291l-0.061-0.01
	c-0.15,0.18-0.391,0.609-0.4,0.81c-0.02,0.161,0,0.609,0,0.609H23.28V5.437c0,0-0.029-0.44-0.35-0.79l-0.091,0.01
	C22.61,4.656,22.43,4.526,22.43,4.365z M24.751,3.965c0-0.149,0.181-0.279,0.4-0.279c0.22,0,0.411,0.13,0.411,0.279
	c0,0.159-0.191,0.289-0.411,0.289C24.932,4.254,24.751,4.124,24.751,3.965z M27.074,6.548c-0.011-0.08,0.079-0.26,0.269-0.281
	c0.281-0.01,0.34,0.432,0.23,0.531c-0.11,0.11-0.141,0.041-0.11,0.18c0.02,0.08,0.02,0.101-0.02,0.18
	c-0.04,0.07-0.311,0.07-0.61,0.21c-0.3,0.131-0.38,0.25-0.4,0.42c-0.021,0.182,0.17,0.192,0.159,0.241
	c0,0.059-0.17,0.031-0.35,0.281c-0.099,0.14-0.5,0.1-0.702,0.108c-0.309,0.011-0.399,0.262-0.499,0.411
	c-0.11,0.14-0.061,0.21-0.121,0.251c-0.05,0.029-0.07,0.009-0.101-0.121c-0.029-0.13-0.108-0.43-0.51-0.631
	c-0.148-0.07-0.161-0.04-0.371-0.059c-0.21-0.03-0.35-0.21-0.399-0.271c-0.041-0.06-0.192-0.068-0.271-0.09
	c-0.081-0.01,0.21-0.08,0.23-0.239c0.009-0.132,0.03-0.101-0.009-0.211c-0.041-0.109-0.181-0.279-0.482-0.411
	c-0.28-0.119-0.309-0.079-0.39-0.17c-0.009-0.02-0.071-0.109,0.009-0.22c0.081-0.091-0.13-0.149-0.108-0.409
	c0.019-0.161,0.16-0.191,0.229-0.191c0.451-0.01,0.34,0.491,0.391,0.63c0.039,0.13,0.249,0.171,0.47,0.251
	c0.781,0.201,1.272,0.6,1.241,1.451c0.041,0.069,0.101,0.051,0.121,0c0.32-1.44,1.342-1.17,1.892-1.391
	C27.104,6.908,27.063,6.588,27.074,6.548z M24.301,7.868c0.019-0.148-0.089-0.291-0.241-0.31c-0.148-0.021-0.291,0.09-0.309,0.239
	c-0.021,0.159,0.09,0.302,0.24,0.312C24.141,8.128,24.28,8.02,24.301,7.868z M26.104,7.969c0.019-0.159-0.091-0.3-0.241-0.312
	c-0.152-0.019-0.291,0.09-0.311,0.241c-0.02,0.15,0.091,0.291,0.24,0.31C25.943,8.229,26.082,8.118,26.104,7.969z M22.74,14.244
	c0.04-0.241,0.179-0.271,0.309-0.119l0.25,0.719c-0.13-0.069-0.32-0.14-0.4,0.02L22.74,14.244z M23.48,16.525
	c-0.109-0.21,0.13-0.329,0.261-0.21c0.3,0.741,0.529,1.091,1.3,1.912c0.011,0.029,0.48,0.46-0.09,0.08
	C24.36,17.878,23.702,17.165,23.48,16.525z M22.6,12.063c0.091-0.21,0.23-0.191,0.32,0.01v0.64c-0.099-0.12-0.21-0.12-0.32,0V12.063
	z M23.17,10.211c0.39-0.241,0.371,0.119,0.3,0.14c-0.15,0.13-0.229,0.309-0.291,0.541c-0.119-0.251-0.349-0.01-0.37,0.009
	C22.85,10.67,22.89,10.452,23.17,10.211z M23.832,12.063c0.108-0.21,0.25-0.181,0.331,0.019l-0.04,0.642
	c-0.102-0.12-0.201-0.131-0.321-0.011L23.832,12.063z M24.632,10.292c0.398-0.223,0.349,0.139,0.289,0.147
	c-0.159,0.13-0.24,0.272-0.311,0.492c-0.049-0.402-0.47-0.061-0.488-0.04C24.201,10.659,24.333,10.521,24.632,10.292z M20.488,0.013
	c1.111,0.188,1.219,0.39,1.281,0.479c0.069,0.222,0.04,0.461,0,0.912c0,0.148-0.271,0.39-0.271,0.37
	c-0.051-0.671-0.131-0.47-0.371-0.681C20.799,0.751,20.548,0.303,20.488,0.013z M28.936,1.353c0.331,0.15,0.19,0.642,0.139,0.7
	c-0.26,0.51-0.751,0.841-1.651,0.872c0.271-0.13,0.671-0.21,0.821-0.881C28.345,1.503,28.534,1.233,28.936,1.353z M10.759-0.009
	c-0.06,0.29-0.311,0.741-0.629,1.082c-0.25,0.21-0.331,0.009-0.38,0.671c0,0.029-0.272-0.211-0.272-0.362
	c-0.04-0.449-0.059-0.689,0-0.908C9.538,0.382,9.648,0.183,10.759-0.009z M2.321,1.333c0.402-0.121,0.581,0.151,0.682,0.69
	c0.159,0.671,0.561,0.75,0.821,0.881c-0.89-0.04-1.391-0.36-1.642-0.87C2.133,1.963,1.981,1.484,2.321,1.333z M20.929,1.203
	c0.179,0.089,0.269,0.271,0.331,0.57c0.039,0.149,0.25,0.229,0.699,0.189c-0.089,0.111-0.188,0.18-0.229,0.26
	c-0.121,0.381-0.201,0.812-0.26,1.302c-0.062,0.009-0.131-0.461-0.131-0.461c-0.2,0.17-0.459,0.322-0.741,0.461l-0.21,0.08
	c-0.36,0.331-0.68,0.931-1.161,1.501c-0.271,0.222-0.591,0.23-0.901,0.222c-0.069,0.019-0.52-0.101-0.52-0.101
	c0.009,0.011,0.6-0.24,0.6-0.24c0.15-0.091,0.38-0.21,0.55-0.471c0.17-0.312,0.281-0.75,0.32-1.341c0,0-0.061-0.671,0.331-1.051
	c0.041-0.071,0.091-0.13,0.141-0.241c0.059,0.101,0.059,0.141,0.09,0.21c0.13,0.161,0.21,0.23,0.3,0.421
	c0.009,0.03,0.049,0.04,0.081,0.071c-0.02-0.241-0.009-0.442,0.059-0.622C20.397,1.644,20.748,1.323,20.929,1.203z M27.245,1.484
	c0.389-0.071,0.689,0.027,0.859,0.289c-0.009,0.181,0.021,1.111-1.132,0.971c-0.188-0.2-0.439-0.352-0.59-0.3
	c-0.089,0.109,0,0.229,0.17,0.38c0.111,0.141,0.102,0.25,0.102,0.351c-0.8,0.119-1.462-0.401-1.632-1.282
	c-0.109-0.278-0.44-0.489-0.77-0.699c0.689-0.051,1.45,0.079,1.59-0.051c0.249-0.251,0.37-0.3,0.611-0.36
	c0.099,0,0.5,0.04,0.691,0.121c0.19,0,0.39-0.05,0.561-0.13C27.665,1.023,27.513,1.263,27.245,1.484z M4.003,1.463
	c-0.269-0.22-0.41-0.471-0.46-0.712c0.17,0.081,0.371,0.121,0.563,0.121c0.189-0.069,0.589-0.121,0.689-0.109
	c0.241,0.051,0.371,0.109,0.611,0.351c0.141,0.139,0.901,0,1.601,0.059c-0.34,0.21-0.66,0.411-0.771,0.702
	c-0.18,0.881-0.841,1.4-1.631,1.279c-0.011-0.099-0.02-0.209,0.089-0.35c0.172-0.149,0.261-0.271,0.172-0.38
	c-0.151-0.05-0.391,0.099-0.581,0.3C3.133,2.864,3.153,1.933,3.144,1.753C3.314,1.493,3.614,1.393,4.003,1.463z M13.982,7.078
	c-0.041-0.121,0.08-0.181,0.17-0.11c0.21,0.399,0.362,0.591,0.881,1.03c0.009,0.021,0.02,0.089-0.06,0.051
	C14.573,7.81,14.134,7.429,13.982,7.078z M13.503,5.837c0.028-0.13,0.119-0.14,0.21-0.061l0.17,0.392
	c-0.091-0.041-0.221-0.081-0.272,0.009L13.503,5.837z M13.423,4.646c0.069-0.111,0.159-0.102,0.219,0.01v0.349
	c-0.071-0.069-0.139-0.069-0.219,0V4.646z M15.563,16.515c0-0.17,0.131-0.299,0.291-0.299c0.17,0,0.301,0.129,0.301,0.299
	c0,0.16-0.131,0.302-0.301,0.302C15.695,16.816,15.563,16.675,15.563,16.515z M15.463,18.469c-0.15,0.148-0.25,0.309-0.291,0.489
	l-0.009,0.6l0.101,0.37l0.04,0.952c-0.031,0.219-0.341,0.21-0.391,0.279c-0.08,0.141-0.04,0.44-0.089,0.61
	c-0.07,0.23-0.241,0.352-0.26,0.4c-0.04,0.07,0,0.312,0,0.312c0.04,0.129,0.019,1.831,0.089,1.941
	c0.061,0.199,0.101,0.391,0.121,0.57c-0.011,0.2-0.08,0.3-0.21,0.3c-0.101,0.02-0.161-0.05-0.181-0.19
	c0.011-0.369-0.011-0.87-0.06-1.53c-0.009-0.201-0.031-0.391-0.081-0.562l-0.371-0.64c-0.039-0.069-0.13-0.16-0.249-0.261
	l0.101-0.271c0.031-0.129,0.04-0.27,0.031-0.421c0.26-0.009,0.47-0.119,0.629-0.3c0.36-0.29,0.16-1.311-0.261-1.57
	c-0.189-0.132-0.421-0.109-0.71-0.061c-0.34,0.09-0.58,0.21-0.62,0.511c-0.031,0.25,0.029,0.34,0.21,0.33
	c0.179-0.051,0.139-0.189,0.289-0.321c0.181-0.119,0.44-0.109,0.61-0.039c0.281,0.18,0.311,0.7,0.22,0.871
	c-0.158,0.179-0.34,0.21-0.58,0.141c-0.079-0.031-0.221-0.17-0.141-0.312c0.111-0.1,0.17-0.08,0.241-0.029
	c0.099,0.081,0.21,0.081,0.281-0.021c0.068-0.109,0.009-0.229-0.121-0.318c-0.102-0.062-0.25-0.071-0.46-0.021
	c-0.25,0.121-0.351,0.361-0.331,0.581c0.04,0.271,0.161,0.511,0.38,0.53c0.031,0.101,0.031,0.19,0.009,0.28
	c-0.08,0.221-0.17,0.382-0.269,0.491c-0.111,0.061-0.25,0.061-0.421,0.009c-0.181-0.101-0.321-0.369-0.411-0.789
	c-0.069-0.282-0.188-0.472-0.371-0.57c-0.159-0.042-0.249-0.132-0.269-0.271c0-0.192,0.19-0.23,0.479-0.201
	c0.261-0.101,0.322-0.18,0.442-0.45c0.019-0.02,0.109-0.16,0.121-0.179c0.029-0.081,0.009-0.172,0-0.251l0.009-0.131
	c0.07-0.45,0.3-0.39,0.49-0.49c0.02-0.011,0.051-0.04,0.051-0.08c-0.021-0.7,0.33-0.991,1.119-1.041
	c0.281-0.48,0.582-0.642,1.091-0.471V18.469z M13.052,22.591c0.161-0.029,0.3-0.101,0.411-0.199c0.019,0.069,0.049,0.119,0.09,0.16
	c-0.041,0.511-0.05,1.039-0.031,1.611l0.071,0.107c0.019,0.203,0.019,0.241-0.031,0.322c-0.059,0.04-0.139,0.009-0.18-0.021
	c-0.111-0.12-0.141-0.199-0.17-0.331c-0.04-0.221-0.051-0.499-0.051-0.83c-0.029-0.029-0.07-0.109-0.081-0.21L13.052,22.591z
	 M16.264,17.276c0.13-0.111,0.3-0.141,0.492-0.08c0.159,0.12,0.26,0.271,0.329,0.47c0.431-0.05,0.711,0.031,0.852,0.241
	c0.05,0.13,0.05,0.269,0,0.421c0.35,0.21,0.57,0.38,0.66,0.529c0.13,0.19,0.13,0.36-0.011,0.49c-0.029,0.092-0.029,0.15,0,0.19
	l0.331,0.422c0.181,0.218,0.152,0.419-0.069,0.589c-0.051,0.12-0.051,0.21,0.011,0.271c0.21,0.44,0.289,0.812,0.249,1.109
	c-0.079,0.192-0.21,0.203-0.41,0.052l-0.009-1.021c-0.102-0.23-0.371-0.141-0.362,0.101v1.17c0.009,0.161,0.06,0.34,0.09,0.47
	c0.04,0.09,0.021,1.241,0.021,1.241c-0.021,0.211-0.062,0.371-0.121,0.481l-0.271,0.34c-0.04,0.009-0.069,0-0.079-0.05
	c0.108-0.74,0.117-1.391,0.028-1.952l-0.479-1.082c-0.049-0.43-0.071-0.788-0.031-1.09c0.101-0.21,0.201-0.351,0.291-0.43
	c0.081-0.231,0-0.321-0.23-0.279c-0.3,0.229-0.43,0.608-0.4,1.139c0.09,0.4,0.121,0.671,0.09,0.792
	c-0.059,0.049-0.099,0.118-0.11,0.21c-0.06,0.32-0.04,0.621-0.009,0.931l-0.06,1.012c-0.071,0.148-0.161,0.249-0.26,0.308
	c0.009-1.199-0.031-1.93-0.111-2.29c-0.09-0.35-0.17-0.631,0.011-0.861c0.07-0.25,0.029-0.461,0.029-0.461l-0.109-0.42
	c-0.051-0.278-0.029-0.58,0.069-0.92c0.021-0.391-0.121-0.661-0.42-0.831V17.276z M28.705,13.242
	c0.02,0.161,0.029,0.311,0.029,0.462l0.411,0.609c-0.011-0.069,0-0.32-0.17-0.58C28.895,13.573,28.806,13.403,28.705,13.242z
	 M28.685,14.664c-0.02,0.17-0.049,0.341-0.09,0.5l0.81,0.841l-0.031-0.39C29.155,15.324,28.956,15.045,28.685,14.664z
	 M28.415,15.854l-0.141,0.41c0.431,0.422,0.89,0.811,1.382,1.182l-0.031-0.271C29.065,16.655,28.694,16.216,28.415,15.854z
	 M28.063,16.785l-0.179,0.411c0.411,0.461,1.081,1,2,1.602c-0.009-0.052,0-0.15-0.019-0.201
	C29.085,17.896,28.484,17.297,28.063,16.785z M27.684,17.616l-0.331,0.671c0.742,0.901,1.704,1.821,2.884,2.763
	c-0.241-0.451-0.362-0.881-0.42-1.302C29.385,19.488,28.685,18.767,27.684,17.616z M25.411,12.112
	c0.51-0.751,1.243-1.302,2.053-1.252c0.031-0.12-0.031-0.229-0.19-0.34c-0.181-0.081-0.291-0.05-0.55,0.08
	c-0.4,0.01-0.671-0.071-0.821-0.25c-0.021-0.041,0-0.071,0.049-0.081l0.68-0.26v-0.1c-0.41,0.109-0.841,0.12-1.291,0.051
	c-0.23-0.04-0.37-0.21-0.41-0.521c-0.05-0.109,0.04-0.12,0.11-0.06c0.109,0.17,0.28,0.26,0.51,0.26
	c0.611-0.01,0.972-0.041,1.081-0.1c0.241-0.08,0.38-0.221,0.411-0.431c0.02-0.061-0.009-0.07-0.081-0.05
	c-0.309,0.13-0.4,0.09-0.6,0.08c-0.121,0-0.111-0.07,0.029-0.141c0.541-0.3,0.781-0.671,0.72-1.101c0.031-0.08,0.07-0.111,0.11-0.08
	c0.351,0.64,0.3,1.382-0.099,1.921C27.093,9.77,27.083,9.8,27.083,9.84l0.061,0.081c1,1.221,1.671,2.642,2.131,4.242
	c0.32,1.492,0.671,5.375,1.261,6.436c0.22,0.621,0.49,1.171,0.81,1.682c-0.55,0.069-1.15-0.09-1.512-0.22l0.42,3.272l-2.291-0.7
	l-0.582-1.592c-0.031-0.079-0.08-0.119-0.179-0.05c-0.201,0.12-0.8,0.04-0.841,0.04c-0.161-0.031-0.21-0.021-0.232,0.061
	c-0.019,0.141-0.028,0.44-0.009,0.89c0.022,0.161,0.13,0.289,0.311,0.392l0.311,0.119c0.15,0.04,0.26,0.12,0.32,0.231
	c0.049,0.159,0.159,0.31,0.33,0.439c0.102,0.03,0.17,0.04,0.151,0.221c-0.022,0.139-0.13,0.22-0.23,0.209
	c-0.17-0.019-0.301-0.09-0.4-0.22c-0.181-0.25-0.411-0.44-0.691-0.57c-0.28-0.15-0.709-0.159-1.232,0
	c-0.609,0.22-1.119,0.501-1.44,0.812c-0.059,0.038-0.099,0.029-0.13-0.011l0.15-0.771c0.04-0.119,0.11-0.21,0.21-0.239l1.682-0.45
	l0.029-1.212c-0.36-0.25-0.62-0.57-0.79-0.95c-0.171-0.66-0.951-0.991-0.951-0.991c-0.3-0.179-0.451-0.311-0.65-0.32l-0.03-0.029
	c-0.151-0.011-0.42-0.011-0.8,0.01c-0.161,0.029-0.282,0.139-0.38,0.331l-0.111,0.309c-0.04,0.151-0.081,0.19-0.22,0.321
	c-0.161,0.06-0.311,0.18-0.431,0.341l-0.04,0.078v0.061c-0.23,0.731-2.201,3.784-5.444,5.045c-2.523-0.932-4.914-3.714-5.334-5.003
	v-0.051c-0.04-0.029-0.071-0.081-0.089-0.119C10.1,21.79,9.96,21.679,9.789,21.62c-0.141-0.13-0.181-0.17-0.221-0.32L9.459,20.98
	c-0.091-0.192-0.221-0.291-0.382-0.322c-0.369-0.019-0.64-0.029-0.799-0.019l-0.021,0.029c-0.201,0.021-0.349,0.15-0.66,0.32
	c0,0-0.78,0.331-0.95,1.002c-0.17,0.38-0.43,0.689-0.781,0.939l0.029,1.222l1.672,0.44c0.099,0.04,0.179,0.12,0.22,0.25l0.139,0.771
	c-0.028,0.038-0.068,0.038-0.13,0c-0.309-0.311-0.83-0.581-1.441-0.801c-0.519-0.17-0.95-0.151-1.221-0.011
	c-0.291,0.13-0.52,0.32-0.7,0.57c-0.091,0.139-0.23,0.21-0.4,0.22c-0.099,0.021-0.21-0.059-0.23-0.199
	c-0.02-0.19,0.06-0.19,0.159-0.23c0.161-0.121,0.272-0.27,0.331-0.439c0.049-0.102,0.161-0.191,0.311-0.231l0.311-0.119
	c0.179-0.091,0.291-0.221,0.32-0.38c0.011-0.461,0.011-0.752-0.02-0.893c-0.009-0.09-0.06-0.101-0.23-0.069
	c-0.03,0.01-0.642,0.09-0.841-0.031c-0.091-0.069-0.15-0.029-0.181,0.052l-0.58,1.581l-2.292,0.7l0.42-3.264
	C1.151,22.19,0.561,22.35,0,22.28c0.322-0.499,0.602-1.061,0.823-1.671c0.59-1.061,0.939-4.945,1.249-6.446
	c0.472-1.601,1.143-3.012,2.143-4.242L4.263,9.85c0.013-0.04-0.009-0.08-0.039-0.11c-0.4-0.539-0.44-1.281-0.101-1.911
	c0.041-0.041,0.081-0.01,0.121,0.08c-0.071,0.43,0.17,0.791,0.72,1.091c0.13,0.07,0.141,0.141,0.021,0.141
	C4.785,9.16,4.694,9.2,4.383,9.069c-0.068-0.03-0.099-0.01-0.08,0.051c0.04,0.199,0.171,0.349,0.411,0.43
	c0.111,0.049,0.47,0.09,1.082,0.101c0.229,0,0.398-0.092,0.51-0.271c0.07-0.061,0.161-0.041,0.11,0.07
	c-0.04,0.31-0.181,0.479-0.41,0.511c-0.451,0.08-0.881,0.059-1.292-0.051v0.1l0.691,0.26c0.051,0.022,0.06,0.05,0.051,0.09
	c-0.161,0.17-0.431,0.263-0.822,0.251c-0.269-0.14-0.38-0.171-0.56-0.09c-0.17,0.12-0.219,0.25-0.17,0.38
	c0.78-0.05,1.49,0.461,2,1.19c0.431,0.342,0.622,1.382,0.482,2.223c-0.102,1.872-1.542,4.044-4.334,6.526l-0.541,3.862l0.362-0.139
	l0.38-2.753l0.329-0.132l-0.41,2.804l0.931-0.279l1.32-3.424l0.282-0.371l0.349-0.188c0.161-0.051,0.221,0.059,0.161,0.18
	c-0.241,0.229-0.389,0.44-0.46,0.619l-0.39,1.011c-0.102,0.24-0.08,0.432,0.04,0.57c0.09,0.171,0.669,0.161,1.19-0.038
	c0.631-0.421,0.689-0.711,0.85-1.132c0.151-0.38,0.38-0.642,0.691-0.78c0.561-0.48,0.481-0.939,0.481-1.031l0.06-1.331
	c0.02-0.2,0.208-0.791,0.931-2.151c0.74-2.011,0.941-3.634,0.58-4.864c-0.099-0.891-0.51-1.373-1.24-1.451L6.956,9.88
	c-0.188-0.089-0.318-0.21-0.39-0.37c-0.09-0.15-0.059-0.211,0.09-0.18c0.091,0.139,0.221,0.22,0.391,0.229l0.66-0.049
	c0.201-0.021,0.362-0.1,0.452-0.26c0.229-0.32,0.108-0.771,0.139-1.271c0.031-0.251,0.25-0.3,0.351-0.071
	c0.061,0.141,0.051,0.26-0.04,0.35C8.597,8.78,8.579,9.129,8.449,9.349C8.328,9.5,8.357,9.59,8.538,9.61
	c0.37,0.229,0.671,0.559,0.881,1c0.801,2.072,0.398,4.194-1.123,7.207c-0.179,0.49-0.25,1.081-0.219,1.761l0.009,0.411H9.25
	l0.47-1.682c0.04-0.111,0.121-0.18,0.25-0.212l0.34-0.059v-6.206h3.623c-0.04-0.029,0.121-0.43,0.22-0.479
	c0.101-0.06,1.091-0.241,1.091-0.241v-0.581c0-0.077-0.241-0.229-0.34-0.327c-0.1-0.103-0.21-0.322-0.311-0.492
	c-0.11-0.181-0.23-0.42-0.28-0.491c-0.049-0.069-0.321-0.56-0.402-0.689c-0.079-0.141-0.099-0.391-0.139-0.581
	c-0.04-0.18-0.34-0.66-0.48-0.881c-0.2,0.181-0.289,0.21-0.589,0.34c-0.282,0.071-0.551,0.12-0.832,0.111
	c-0.5-0.05-0.841-0.25-1.011-0.591c-0.11-0.311-0.071-0.64,0.11-1.001c0.029-0.041,0.051-0.041,0.08,0l0.651,0.89
	c0.291,0.291,0.569,0.402,0.921,0.362c0.329-0.081,0.399-0.141,0.58-0.271l-0.101-0.251c-0.089,0.141-0.199,0.23-0.34,0.28
	c-0.13,0.061-0.26,0.071-0.38,0.03C12.22,6.917,12.1,6.857,12.05,6.787c0.071-0.431,0.652-0.74,0.731-0.78
	c0,0,0.051-0.031,0.091-0.04l-0.051-0.19c-0.59-0.02-2.691,0.04-3.713-1.791c-0.48-0.861-0.881-1.871-1.442-2.241
	c-0.41-0.222-0.729-0.201-1.131,0.029c0.221-0.251,0.411-0.41,0.652-0.47c0.199-0.031,0.47,0,0.698,0
	c0.622,0.141,1.432,0.969,1.393,0.94c0.089,0.148,0.199,0.66,0.289,1.2c0.062,0.231,0.361,0.5,0.482,0.69
	c-0.062-0.261-0.08-0.51-0.04-0.72c0.229,0.181,0.37,0.21,0.7,0.34c0.42,0.301,0.629,0.79,0.951,1.231
	c0.241,0.27,0.7,0.45,1.081,0.49l-0.009-0.051l-0.021-0.09C12.501,5.315,12.22,5.275,12,5.086c-0.451-0.581-0.78-1.182-1.141-1.501
	l-0.21-0.081c-0.282-0.141-0.532-0.289-0.742-0.46c0,0-0.068,0.46-0.13,0.46c-0.049-0.489-0.139-0.919-0.25-1.3
	c-0.049-0.09-0.139-0.151-0.239-0.261c0.45,0.029,0.66-0.039,0.711-0.19c0.051-0.3,0.141-0.48,0.329-0.581
	c0.183,0.132,0.522,0.451,0.652,0.761c0.059,0.191,0.081,0.391,0.059,0.63c0.022-0.04,0.061-0.049,0.081-0.069
	c0.09-0.189,0.17-0.26,0.3-0.419c0.021-0.071,0.021-0.12,0.081-0.21c0.06,0.108,0.1,0.17,0.151,0.229
	c0.39,0.392,0.329,1.061,0.318,1.061c0.051,0.581,0.151,1.032,0.321,1.342c0.17,0.25,0.24,0.291,0.4,0.351
	c0.05-0.771,0.51-1.401,0.72-1.451c0.041-0.009,0.091-0.061,0-0.08c-0.159-0.061-0.291-0.19-0.311-0.45
	c-0.009-0.181-0.08-1.102-0.049-1.201c0.029-0.101,0.19-0.02,0.201,0.031c0.019,0.05,0.05,0.709,0.079,0.989
	c0.04,0.271,0.291,0.451,0.382,0.491c0.089,0.04,0.578,0.01,0.709,0.01c0.119,0,0.029-0.031,0.101-0.061
	c0.08-0.04,0.129-0.04,0.17-0.009c0.049,0.02,0.02,0.149-0.02,0.208c-0.051,0.071-0.23,0.161-0.382,0.191
	c-0.148,0.03-0.289-0.03-0.399-0.03c-0.25,0.02-0.362,0.141-0.451,0.231c-0.21,0.22-0.32,0.488-0.43,0.96
	c-0.101,0.47,0.04,0.96,0.129,1.192c0.09,0.237,0.271,0.81,0.43,1.13c0.161,0.311,0.38,0.579,0.482,0.78
	c0.108,0.21,0.119,0.22,0.17,0.541c0.059,0.331,0.6,1.311,0.851,1.671c0.25,0.36,0.5,0.4,0.819,0.44
	c0.322,0.05,0.461-0.091,0.501-0.111c0.04-0.027-0.43-0.891-0.52-1C15.794,9.21,15.723,9.2,15.723,9.2s-0.039-0.101,0-0.131
	c0.031-0.039,0.313,0.03,0.46,0.109c0.143,0.071,0.823,1.731,0.863,1.783c0.039,0.06,0.569,0.198,0.6,0.189
	c0.04-0.01-0.46-1.312-0.451-1.36c0.011-0.063,0.221,0,0.25,0c0.031,0,0.46,1.391,0.46,1.391l0.201,0.059
	c-0.08-0.278-0.3-1.812-0.321-1.83c-1.49-1.001-2.022-1.741-2.38-2.231c-0.38-0.521-0.451-1.061-0.46-1.612
	c-0.011-0.562,0.179-0.75,0.269-0.861l0.051-0.049c0.249-0.271,0.629-0.471,1.049-0.501c0-0.05,0.121-0.04,0.21-0.04
	c0.102,0,0.131-0.019,0.142-0.1c0.009-0.071-0.071-0.12-0.17-0.181c-0.102-0.069-0.183,0-0.362,0.039
	c-0.179,0.053-0.42-0.059-0.49-0.09c-0.061-0.029-0.051-0.059,0.029-0.08c0.219-0.05,0.38-0.06,0.482-0.238
	c-0.402,0.059-1.032,0.067-1.113,0.019c-0.059-0.04-0.188-0.18-0.229-0.251c-0.051-0.059,0.019-0.089,0.069-0.089
	c0.049,0,0.11,0.13,0.23,0.16c0.11,0.029,0.89-0.02,1.042-0.04c0.158-0.02,0.249-0.17,0.3-0.221c0.049-0.05,0-0.09-0.062-0.1
	c-0.068-0.011-0.291,0.05-0.38,0.05c-0.08,0-0.089,0-0.089-0.061c0-0.069,0.321-0.189,0.44-0.279
	c0.11-0.092,0.159-0.302,0.159-0.302s0.031-0.08,0.081-0.067c0.051,0.009,0.08,0.139,0.141,0.309c0.06,0.18-0.09,0.56-0.24,0.74
	c-0.031,0.021-0.081,0.052-0.151,0.07c0.062,0.07,0.532,0.651,0.771,1.021c0.101,0.149,0.21,0.34,0.32,0.55l0.1,0.101
	c0.15,0.239,0.41,0.411,0.801,0.39c0.55,0.05,0.991-0.18,1.241-0.461c0.322-0.43,0.541-0.931,0.951-1.23
	c0.331-0.12,0.472-0.16,0.7-0.33c0.04,0.2,0.021,0.46-0.029,0.711c0.119-0.19,0.41-0.451,0.471-0.681
	c0.09-0.541,0.198-1.06,0.291-1.212c-0.04,0.031,0.779-0.8,1.39-0.939c0.23,0,0.501-0.02,0.7,0.01c0.241,0.06,0.432,0.21,0.652,0.46
	c-0.402-0.23-0.722-0.25-1.131-0.02c-0.55,0.359-0.961,1.371-1.44,2.231c-1.033,1.852-3.205,1.812-3.864,1.782l-0.452-0.011
	l0.031,0.092c0.049-0.022,0.201-0.052,0.55,0.099c0.129,0.061,0.65,0.35,0.731,0.771c-0.061,0.078-0.181,0.139-0.331,0.189
	c-0.119,0.04-0.311,0.021-0.45-0.04c-0.13-0.04-0.25-0.12-0.351-0.26l0.051,0.28c0.17,0.139,0.238,0.22,0.58,0.289
	c0.34,0.04,0.62-0.069,0.911-0.358l0.651-0.893c0.029-0.038,0.06-0.038,0.079,0c0.183,0.36,0.223,0.691,0.111,1.002
	c-0.17,0.34-0.51,0.539-1.011,0.6c-0.28,0-0.541-0.04-0.832-0.119c-0.229-0.102-0.37-0.16-0.439-0.25
	c0.07,0.449,0.161,0.921,0.24,1.271c0.181,0.82,0.801,1.57,0.841,1.762c0.041,0.188-0.901-0.12-0.96-0.09
	c-0.062,0.028,0.229,1.45,0.18,1.46c-0.061,0.009-1.432-0.32-1.571-0.421c-0.151-0.09-0.241-0.52-0.301-0.57
	c-0.06-0.039-0.11,0.042-0.19,0.101c-0.081,0.069,0.009,0.451,0.089,0.522c0.081,0.079,0.402,0.139,0.481,0.188
	c0.08,0.061,0.131,0.201,0.181,0.23l0.24,0.189l-0.13,0.01h3.883v6.206l0.291,0.05c0.131,0.041,0.21,0.109,0.25,0.211l0.471,1.691
	l1.17-0.011l0.009-0.4c0.031-0.68-0.05-1.271-0.23-1.771c-1.521-3.013-1.911-5.124-1.119-7.206c0.22-0.44,0.51-0.771,0.891-0.99
	c0.17-0.03,0.21-0.121,0.079-0.271c-0.119-0.21-0.15-0.57-0.159-1.081c-0.09-0.1-0.101-0.22-0.04-0.359
	c0.099-0.229,0.32-0.17,0.36,0.081c0.02,0.5-0.101,0.95,0.13,1.271c0.101,0.149,0.25,0.239,0.461,0.26l0.65,0.04
	c0.17-0.01,0.3-0.081,0.39-0.22c0.151-0.04,0.181,0.019,0.09,0.18c-0.059,0.149-0.189,0.281-0.39,0.361L23.4,9.81
	c-0.72,0.089-1.141,0.571-1.241,1.451c-0.36,1.241-0.161,2.864,0.581,4.875c0.729,1.36,0.921,1.941,0.931,2.151l0.059,1.322
	c0.012,0.101-0.079,0.56,0.482,1.04c0.309,0.13,0.539,0.39,0.689,0.77c0.17,0.432,0.221,0.722,0.863,1.143
	c0.51,0.199,1.09,0.199,1.179,0.029c0.131-0.13,0.141-0.321,0.051-0.562l-0.391-1.011c-0.079-0.189-0.23-0.4-0.472-0.629
	c-0.049-0.111,0-0.221,0.161-0.17l0.351,0.188l0.291,0.371l1.311,3.424l0.93,0.279l-0.4-2.804l0.331,0.132l0.38,2.753l0.349,0.139
	l-0.54-3.862c-2.793-2.482-4.233-4.654-4.334-6.526C24.821,13.493,25.001,12.483,25.411,12.112z M16.935,8.328
	c0.801,0.731,1.561,1.212,1.422,1.071c-0.021-0.029-0.201-0.49-0.241-0.57c-0.018-0.049-0.66-0.55-1.04-0.872L16.935,8.328z
	 M17.194,7.608c0.371,0.23,0.89,0.6,0.952,0.6c0.029-0.01,0-0.05-0.022-0.099c-0.009-0.041-0.528-0.452-0.859-0.712L17.194,7.608z
	 M17.346,7.078c0.269,0.179,0.671,0.48,0.7,0.49c0.051,0.02-0.011-0.09-0.02-0.14c0-0.04-0.39-0.401-0.622-0.621L17.346,7.078z
	 M17.456,6.407l0.49,0.42c0,0,0-0.08-0.04-0.181c-0.031-0.08-0.28-0.39-0.43-0.56L17.456,6.407z M17.436,5.566
	c0.02-0.061,0.309,0.319,0.309,0.319s0.021,0.01-0.041-0.129c-0.079-0.18-0.208-0.381-0.358-0.57
	C17.386,5.315,17.415,5.447,17.436,5.566z M15.995,10.67c-0.201,0.061-0.431-0.029-0.431-0.038c0,0-0.02,0.398-0.011,0.459
	c0,0.061,0.25,0.111,0.291,0.141c0.049,0.029,0.161-0.071,0.161-0.071S16.024,10.86,15.995,10.67z M14.723,11.831h2.172
	c-0.07-0.039-0.32-0.269-0.439-0.241c-0.041,0.013,0.219,0.241,0.219,0.241s-0.371,0-0.42-0.019c-0.049-0.011-0.451-0.26-0.52-0.291
	C15.673,11.491,14.913,11.781,14.723,11.831z M14.162,11.831h0.512c-0.029-0.039-0.091-0.161-0.091-0.188
	C14.582,11.622,14.253,11.781,14.162,11.831z M21.088,18.746v2.583c0.161-0.16,0.28-0.349,0.382-0.561
	c0.139-0.28,0.139-0.719-0.031-1.24C21.328,19.238,21.219,18.979,21.088,18.746z M10.31,21.37v-2.693
	c-0.151,0.251-0.281,0.541-0.39,0.852c-0.182,0.53-0.17,0.96-0.031,1.24C9.988,21.01,10.13,21.199,10.31,21.37z M15.304,16.825
	c-0.53-0.119-0.921,0.071-1.192,0.572c-0.76,0.029-1.161,0.4-1.201,1.109c-0.34,0.09-0.521,0.311-0.55,0.691
	c-0.36,0.03-0.57,0.3-0.642,0.81c-0.58,0-0.629,0.892,0.051,0.991c0.15,0.141,0.32,0.462,0.44,0.822
	c0.161,0.329,0.349,0.64,0.56,0.759c-0.019,0.42,0.031,0.711,0.111,0.931l0.069,0.912c0.101,0.229,0.261,0.48,0.512,0.489
	c0.399-0.029,0.47-0.311,0.34-0.85l0.041-1.081c0.068,0.06,0.121,0.18,0.148,0.341c0.062,0.43,0.062,1.07,0.12,1.912
	c0.152,0.389,0.25,0.34,0.47,0.399c0.261-0.02,0.402-0.151,0.46-0.471c0-0.26-0.04-0.481-0.11-0.671
	c-0.069-0.43-0.089-0.931-0.04-1.472c0.011-0.39,0.031-0.649,0.121-0.79c0.17-0.19,0.21-0.34,0.26-0.761
	c0.04-0.1,0.32-0.08,0.422-0.279c0.059-0.311,0.049-0.742-0.021-1.344c-0.11-0.277-0.139-0.539-0.09-0.788
	c0.02-0.191,0.121-0.281,0.322-0.271c0.17-0.01,0.289,0.102,0.34,0.33c0.009,0.23,0,0.432-0.04,0.631
	c-0.041,0.23-0.011,0.631,0.159,0.981c0.02,0.081-0.02,0.19,0.011,0.27c-0.049,0.17-0.151,0.261-0.181,0.621
	c0,0.201,0.109,0.541,0.109,0.541c0.121,0.26,0.181,0.901,0.181,1.939c-0.07,0.111-0.101,0.262,0.011,0.421
	c0.26,0.141,0.38,0.122,0.629-0.029c0.11-0.13,0.19-0.27,0.25-0.43c0.04-0.671,0.04-1.181-0.02-1.532
	c0.009-0.08,0.04-0.12,0.101-0.12c0.119,0.189,0.19,0.391,0.239,0.601c-0.009,1.081-0.12,1.702-0.089,1.941
	c0.049,0.15,0.19,0.23,0.492,0.211c0.219-0.1,0.6-0.7,0.6-0.7c0.08-0.451,0.089-0.971,0.02-1.552
	c-0.011-0.121-0.011-0.189,0.02-0.331c0.029-0.099,0.04-0.119,0.11-0.13c0.291,0.069,0.49-0.079,0.61-0.45
	c0.02-0.179,0.02-0.44-0.02-0.76c-0.02-0.19-0.069-0.35-0.181-0.472c0.281-0.469,0.21-0.922-0.21-1.37
	c0.151-0.561-0.08-0.992-0.68-1.281c0.02-0.561-0.3-0.831-0.971-0.82c-0.109-0.351-0.411-0.521-0.91-0.512
	c0.049-0.51-0.051-0.87-0.57-0.941C15.774,15.834,15.053,15.876,15.304,16.825z M13.302,15.504l-0.38-1.2l1.011-0.74h-1.252
	l-0.39-1.201l-0.38,1.201h-1.252l1.011,0.74l-0.39,1.2l1.011-0.74L13.302,15.504z M16.675,15.504l-0.39-1.2l1.009-0.74h-1.241
	l-0.39-1.201l-0.391,1.201h-1.241l1.011,0.74l-0.39,1.2l1.011-0.74L16.675,15.504z M20.088,15.504l-0.39-1.2l1.011-0.74h-1.252
	l-0.38-1.201l-0.389,1.201h-1.252l1.011,0.74l-0.38,1.2l1.011-0.74L20.088,15.504z M3.663,17.628c-1,1.149-1.7,1.87-2.131,2.12
	c-0.061,0.43-0.181,0.851-0.41,1.313c1.171-0.952,2.131-1.862,2.872-2.763L3.663,17.628z M3.273,16.796
	c-0.411,0.51-1.011,1.111-1.792,1.801c-0.011,0.051,0,0.149-0.011,0.201c0.912-0.591,1.572-1.141,1.993-1.591L3.273,16.796z
	 M2.934,15.865c-0.281,0.36-0.64,0.79-1.212,1.321l-0.019,0.26c0.479-0.359,0.94-0.751,1.37-1.171L2.934,15.865z M2.674,14.664
	c-0.281,0.381-0.472,0.66-0.702,0.951l-0.019,0.39l0.799-0.83C2.723,15.005,2.692,14.834,2.674,14.664z M2.652,13.223
	c-0.099,0.17-0.189,0.341-0.269,0.511c-0.17,0.26-0.17,0.52-0.17,0.591l0.409-0.62C2.634,13.544,2.643,13.383,2.652,13.223z
	 M15.273,2.103c0,0.12,0.091,0.21,0.212,0.21c0.108,0,0.21-0.09,0.21-0.21c0-0.119-0.102-0.21-0.21-0.21
	C15.364,1.893,15.273,1.983,15.273,2.103z M13.412,1.103c-0.011,0.06,0.011,0.109,0.061,0.149c0.04,0.052,0.139,0.081,0.269,0.13
	l0.362,0.161c0.109,0.049,0.201,0.02,0.3,0.13c0.089,0.101,0.13,0.21,0.161,0.3c0.029,0.102,0.029,0.191,0.081,0.321
	c0.04,0.121,0.019,0.17,0.079,0.199c0.069,0.029,0.11,0.021,0.15-0.029c0.04-0.04,0.06-0.16,0.081-0.25
	c0.009-0.081,0.049-0.211,0.141-0.321c0.089-0.119,0.311-0.26,0.521-0.301c0.21-0.029,0.278-0.009,0.448-0.049
	c0.182-0.05,0.272-0.069,0.301-0.161c0.02-0.09,0.029-0.199-0.101-0.239c-0.13-0.029-0.83-0.26-1.44-0.239
	c-0.6,0.02-1.19,0.139-1.252,0.129C13.463,1.032,13.412,1.103,13.412,1.103z M13.902,2.013c0,0.111,0.101,0.21,0.21,0.21
	c0.121,0,0.21-0.099,0.21-0.21c0-0.12-0.09-0.22-0.21-0.22C14.002,1.793,13.902,1.893,13.902,2.013z M12.461,0.713
	c0,0,1.83-0.23,2.241-0.239c0.411-0.012,1.19,0.139,1.512,0.199c0.331,0.06,0.961,0.02,1.001,0.049
	c0.04,0.041,0.108,0.121,0.009,0.201c-0.101,0.079-0.501,0.32-0.501,0.41c0,0.1,0.021,0.17-0.04,0.219
	c-0.069,0.04-0.13,0-0.331,0.103c-0.198,0.09-0.34,0.188-0.38,0.269c-0.04,0.071-0.059,0.05-0.049,0.151
	c0.009,0.09,0.1,0.159,0.049,0.198c-0.04,0.04-0.068,0-0.108,0.04c-0.04,0.04-0.17,0.172-0.331,0.172s-0.161-0.029-0.281,0.009
	c-0.32,0.11-0.41,0.331-0.439,0.421c-0.031,0.101-0.051,0.12-0.091,0.08c-0.039-0.029-0.02-0.069-0.09-0.19
	c-0.06-0.109-0.17-0.359-0.32-0.38c-0.151-0.031-0.42-0.04-0.521-0.111c-0.091-0.079-0.199-0.079-0.19-0.159
	c0.02-0.079,0.111-0.079,0.111-0.21c0-0.141-0.051-0.28-0.272-0.41c-0.21-0.13-0.43-0.17-0.461-0.221
	c-0.019-0.061,0-0.069,0.022-0.13c0.029-0.061,0.089-0.04-0.022-0.08c-0.108-0.029-0.42-0.101-0.488-0.17
	c-0.062-0.07-0.111-0.2-0.081-0.211C12.43,0.702,12.461,0.713,12.461,0.713z M37.573,12.133c0,2.711,0.07,5.703,0.21,8.966
	c1.861,0.081,3.102,0.121,3.704,0.121c1.64,0,2.872-0.159,3.691-0.461c0.581-0.219,1.042-0.619,1.391-1.181l0.362,0.12
	c0.02,0.262-0.071,0.71-0.271,1.352c-0.2,0.64-0.391,1.111-0.552,1.411c-1.139-0.12-4.514-0.181-10.127-0.181H34.93l-0.179-0.459
	l0.199-4.164c0.061-1.432,0.101-3.272,0.101-5.524c0-1.501-0.15-3.975-0.15-3.975L34.8,6.526l0.179-0.461h2.714l0.179,0.461
	l-0.08,1.592C37.792,8.118,37.573,10.802,37.573,12.133z M87.926,21.911l-0.17,0.42h-2.371l-0.213-0.42v-1.333
	c-1.002,1.252-2.31,1.872-3.941,1.872c-1.934,0-3.574-0.681-4.944-2.042c-1.363-1.36-2.043-3.011-2.043-4.952
	c0-1.923,0.68-3.563,2.053-4.936c1.369-1.36,3.02-2.041,4.953-2.041c1.69,0,3.072,0.54,4.136,1.642c0-2.433-0.07-2.123-0.213-5.746
	l0.213-0.421h2.371l0.17,0.421c-0.182,3.054-0.271,3.453-0.271,7.867C87.655,15.146,87.745,18.377,87.926,21.911z M85.385,13.604
	c-0.563-2.732-2.173-4.094-4.816-4.094c-1.042,0-1.901,0.46-2.572,1.391c-0.681,0.931-1.021,2.122-1.021,3.583
	c0,0.34,0.028,0.691,0.09,1.062c0.201,1.731,0.72,3.174,1.57,4.313c0.851,1.151,1.861,1.722,3.024,1.722
	c0.801,0,1.542-0.251,2.223-0.751c0.68-0.49,1.149-1.171,1.409-2.042C85.333,17.496,85.364,15.765,85.385,13.604z M100.036,18.167
	c0,1.351-0.541,2.442-1.632,3.243c-0.989,0.77-2.18,1.16-3.571,1.16c-1.394,0-2.603-0.29-3.623-0.881l-1.883-0.729
	c0-1.241,0.1-2.143,0.31-2.703c0.782,1.25,1.462,2.053,2.021,2.401c1.073,0.642,2.124,0.973,3.153,0.973
	c0.729,0,1.422-0.25,2.093-0.731c0.739-0.53,1.119-1.131,1.119-1.822c0-0.812-0.33-1.47-0.989-1.981
	c-0.47-0.379-1.311-0.709-2.531-1.002c-1.463-0.358-2.434-0.658-2.912-0.879c-1.023-0.461-1.704-1.161-2.022-2.092
	c-0.16-0.47-0.241-0.931-0.241-1.4c0-0.632,0.251-1.271,0.752-1.913c0.448-0.591,1.069-1.021,1.87-1.28
	c0.603-0.181,1.472-0.271,2.612-0.271c0.541,0,1.472,0.142,2.801,0.422c0.742,0.17,1.483,0.319,2.223,0.46
	c0.062,1.461,0.013,2.583-0.148,3.371c-0.822-1.239-1.53-2.049-2.133-2.431c-0.851-0.57-1.821-0.851-2.922-0.851
	c-0.76,0-1.319,0.101-1.682,0.3c-0.862,0.49-1.292,1.093-1.292,1.792c0,0.59,0.321,1.082,0.961,1.462
	c0.582,0.369,1.521,0.729,2.813,1.08c1.292,0.352,2.161,0.641,2.604,0.87C99.285,15.545,100.036,16.687,100.036,18.167z
	 M38.074,26.264l-0.241,0.009c-0.179-0.468-0.541-0.709-1.101-0.709c-0.371,0-0.68,0.141-0.931,0.431
	c-0.261,0.289-0.391,0.641-0.391,1.05c0,0.461,0.15,0.861,0.44,1.201c0.281,0.331,0.59,0.501,0.93,0.501
	c0.53,0,0.901-0.141,1.11-0.41l0.143,0.21c-0.161,0.19-0.313,0.33-0.461,0.4c-0.201,0.1-0.48,0.15-0.832,0.15
	c-0.51,0-0.961-0.19-1.351-0.572c-0.4-0.378-0.6-0.859-0.6-1.409c0-0.492,0.188-0.933,0.59-1.321c0.39-0.381,0.841-0.58,1.342-0.58
	c0.278,0,0.609,0.079,0.98,0.22c0.11,0.04,0.22,0.049,0.32,0.03l0.051,0.029V26.264z M42.006,25.413
	c-0.04,0.6-0.049,1.181-0.049,1.751c0,0.472,0.009,1.052,0.049,1.733l-0.049,0.128h-0.59l-0.051-0.128l0.029-0.771
	c0.022-0.25,0.022-0.57,0.022-0.962c0-0.38-0.011-0.961-0.051-1.751l0.051-0.12h0.59L42.006,25.413z M48.702,25.614l-0.952-0.021
	l-0.609,0.011c-0.031,0.49-0.04,1.011-0.04,1.561c0,0.492,0.009,1.081,0.04,1.771l-0.031,0.09h-0.62l-0.041-0.09l0.041-0.76
	c0-0.26,0.011-0.601,0.011-1.012s-0.011-0.74-0.022-0.99l-0.029-0.581h-0.59l-0.941,0.021c0.02-0.161,0.041-0.262,0.071-0.321h0.04
	h0.989h0.402h0.39h0.44h0.44h0.9h0.049C48.671,25.353,48.684,25.453,48.702,25.614z M54.667,25.342l-0.42,0.602
	c-0.21,0.311-0.512,0.751-0.922,1.342v0.109l0.061,1.541l-0.04,0.09h-0.631l-0.027-0.09c0.027-0.81,0.048-1.319,0.048-1.541v-0.17
	c-0.311-0.44-0.62-0.881-0.951-1.311l-0.389-0.572l0.029-0.049h0.601l0.081,0.049l0.309,0.532c0.26,0.47,0.511,0.879,0.74,1.241
	c0.159-0.22,0.392-0.622,0.711-1.201l0.312-0.572l0.08-0.049h0.38L54.667,25.342z M65.527,26.264l-0.241,0.009
	c-0.17-0.468-0.541-0.709-1.102-0.709c-0.37,0-0.681,0.141-0.931,0.431c-0.26,0.289-0.39,0.641-0.39,1.05
	c0,0.461,0.15,0.861,0.44,1.201c0.28,0.331,0.591,0.501,0.931,0.501c0.53,0,0.91-0.141,1.111-0.41l0.139,0.21
	c-0.16,0.19-0.309,0.33-0.459,0.4c-0.2,0.1-0.471,0.15-0.82,0.15c-0.521,0-0.971-0.19-1.362-0.572
	c-0.399-0.378-0.601-0.859-0.601-1.409c0-0.492,0.191-0.933,0.59-1.321c0.392-0.381,0.841-0.58,1.342-0.58
	c0.291,0,0.612,0.079,0.98,0.22c0.111,0.04,0.223,0.049,0.321,0.03l0.051,0.029V26.264z M72.432,27.155
	c0,0.52-0.211,0.981-0.641,1.38c-0.42,0.4-0.89,0.602-1.401,0.602c-0.54,0-1.021-0.201-1.43-0.591
	c-0.402-0.399-0.612-0.862-0.612-1.391c0-0.532,0.21-0.991,0.64-1.402c0.421-0.411,0.892-0.619,1.402-0.619
	c0.53,0,1,0.208,1.42,0.61C72.221,26.153,72.432,26.623,72.432,27.155z M71.81,27.155c-0.019-0.461-0.179-0.861-0.489-1.19
	c-0.301-0.342-0.63-0.512-0.991-0.512c-0.398,0-0.721,0.17-0.991,0.501c-0.271,0.34-0.389,0.729-0.359,1.201
	c0.009,0.461,0.17,0.85,0.481,1.19c0.3,0.34,0.628,0.51,0.989,0.51c0.39,0,0.712-0.17,0.98-0.501
	C71.703,28.015,71.821,27.616,71.81,27.155z M78.296,25.373c-0.04,0.241-0.059,0.83-0.059,1.791v0.671
	c-0.022,0.23-0.121,0.472-0.3,0.721c-0.232,0.342-0.551,0.521-0.952,0.53c-0.381,0.02-0.662-0.01-0.86-0.09
	c-0.263-0.099-0.451-0.221-0.563-0.371c-0.107-0.159-0.188-0.419-0.219-0.81l-0.01-0.651c0-0.971-0.021-1.561-0.062-1.791l0.03-0.08
	h0.601l0.04,0.08l-0.04,0.771c-0.01,0.26-0.019,0.6-0.019,1.02c0,0.26,0.009,0.452,0.019,0.552c0.021,0.2,0.052,0.35,0.089,0.46
	c0.133,0.391,0.452,0.59,0.965,0.59c0.158,0,0.328-0.06,0.51-0.189c0.148-0.11,0.26-0.251,0.341-0.421
	c0.049-0.12,0.089-0.291,0.107-0.51l0.01-0.481c0-0.42-0.01-0.76-0.019-1.02l-0.031-0.771l0.031-0.08h0.361L78.296,25.373z
	 M84.452,28.936l-0.04,0.09h-0.711l-0.099-0.09c-0.071-0.119-0.151-0.239-0.241-0.359l-0.26-0.341
	c-0.201-0.311-0.52-0.76-0.939-1.371l-0.331-0.44c-0.031,0.251-0.05,0.501-0.05,0.74c0,0.492,0.019,1.081,0.05,1.771l-0.031,0.09
	h-0.35l-0.04-0.09l0.04-0.76c0.01-0.26,0.01-0.601,0.01-1.012l-0.019-0.789l-0.031-0.752v-0.25l0.04-0.08h0.412
	c0.16,0.281,0.358,0.592,0.581,0.91c0.219,0.342,0.537,0.831,0.979,1.472l0.631,0.871l0.009-0.271
	c0.01-0.289,0.019-0.658,0.019-1.11c0-0.42-0.009-0.76-0.019-1.02l-0.04-0.771l0.04-0.08h0.35l0.04,0.08
	c-0.04,0.602-0.059,1.201-0.059,1.791C84.393,27.656,84.412,28.245,84.452,28.936z M90.628,26.264l-0.241,0.009
	c-0.179-0.468-0.541-0.709-1.101-0.709c-0.371,0-0.68,0.141-0.931,0.431c-0.259,0.289-0.389,0.641-0.389,1.05
	c0,0.461,0.148,0.861,0.438,1.201c0.281,0.331,0.591,0.501,0.931,0.501c0.531,0,0.912-0.141,1.113-0.41l0.139,0.21
	c-0.161,0.19-0.309,0.33-0.461,0.4c-0.2,0.1-0.47,0.15-0.818,0.15c-0.523,0-0.975-0.19-1.364-0.572
	c-0.398-0.378-0.6-0.859-0.6-1.409c0-0.492,0.188-0.933,0.591-1.321c0.39-0.381,0.841-0.58,1.342-0.58
	c0.29,0,0.608,0.079,0.979,0.22c0.111,0.04,0.22,0.049,0.322,0.03l0.049,0.029V26.264z M94.561,25.413
	c-0.04,0.6-0.05,1.181-0.05,1.751c0,0.472,0.01,1.052,0.05,1.733l-0.05,0.128H93.93l-0.059-0.128l0.031-0.771
	c0.019-0.25,0.027-0.57,0.027-0.962c0-0.38-0.019-0.961-0.059-1.751l0.059-0.12h0.581L94.561,25.413z"/>
</svg>
