<?xml version="1.0" encoding="utf-8"?>
<!-- Generator: Adobe Illustrator 15.1.0, SVG Export Plug-In . SVG Version: 6.00 Build 0)  -->
<!DOCTYPE svg PUBLIC "-//W3C//DTD SVG 1.1//EN" "http://www.w3.org/Graphics/SVG/1.1/DTD/svg11.dtd">
<svg version="1.1" id="Layer_1" xmlns="http://www.w3.org/2000/svg" xmlns:xlink="http://www.w3.org/1999/xlink" x="0px" y="0px"
	 width="221px" height="213px" viewBox="0 0 221 213" enable-background="new 0 0 221 213" xml:space="preserve">
<polyline fill="none" points="-45.595,162.691 -45.595,161.441 -43.242,161.441 "/>
<g>
	<path d="M126.989,22.472c-13.063,0-25.365,3.253-36.157,8.973c8.616-3.522,18.04-5.48,27.923-5.48
		c40.786,0,73.849,33.063,73.849,73.85c0,40.786-33.063,73.847-73.849,73.847c-9.884,0-19.306-1.955-27.923-5.477
		c10.792,5.719,23.093,8.972,36.157,8.972c42.716,0,77.341-34.627,77.341-77.342C204.33,57.1,169.705,22.472,126.989,22.472"/>
	<polygon points="20.063,135.86 21.897,135.86 21.897,142.648 25.956,142.648 25.956,144.188 20.063,144.188 	"/>
	<polygon points="33.735,135.86 39.967,135.86 39.967,137.398 35.568,137.398 35.568,139.185 39.604,139.185 39.604,140.608 
		35.568,140.608 35.568,142.648 40.059,142.648 40.059,144.188 33.735,144.188 	"/>
	<polygon points="48.051,135.86 54.278,135.86 54.278,137.398 49.882,137.398 49.882,139.185 53.918,139.185 53.918,140.608 
		49.882,140.608 49.882,142.648 54.373,142.648 54.373,144.188 48.051,144.188 	"/>
	<polygon points="26.81,55.994 26.81,81.749 46.548,81.749 46.548,87.592 19.861,87.592 19.861,55.994 	"/>
	<rect x="52.654" y="55.994" width="6.948" height="31.598"/>
	<polygon points="106.244,55.994 106.244,68.12 119.034,68.12 119.034,55.994 125.981,55.994 125.981,87.592 119.034,87.592 
		119.034,73.96 106.244,73.96 106.244,87.592 99.298,87.592 99.298,55.994 	"/>
	<polygon points="129.611,61.835 129.611,55.994 155.501,55.994 155.501,61.835 146.031,61.835 146.031,87.592 139.082,87.592 
		139.082,61.835 	"/>
	<polygon points="26.765,97.161 39.952,118.359 40.04,118.359 40.04,97.161 46.548,97.161 46.548,128.759 39.599,128.759 
		26.455,107.605 26.366,107.605 26.366,128.759 19.861,128.759 19.861,97.161 	"/>
	<rect x="52.654" y="97.161" width="6.948" height="31.598"/>
	<polygon points="106.244,97.161 106.244,109.287 119.034,109.287 119.034,97.161 125.981,97.161 125.981,128.759 119.034,128.759 
		119.034,115.127 106.244,115.127 106.244,128.759 99.298,128.759 99.298,97.161 	"/>
	<polygon points="129.611,103.001 129.611,97.161 155.501,97.161 155.501,103.001 146.032,103.001 146.032,128.759 139.084,128.759 
		139.084,103.001 	"/>
	<g>
		<path d="M143.484,137.423l-0.317,1.787l0.024,0.022c0.218-0.217,0.448-0.371,0.696-0.465c0.247-0.095,0.527-0.141,0.844-0.141
			c0.39,0,0.734,0.071,1.035,0.214c0.298,0.141,0.552,0.333,0.759,0.573c0.205,0.242,0.363,0.522,0.472,0.849
			c0.11,0.327,0.165,0.674,0.165,1.04c0,0.404-0.081,0.781-0.239,1.13c-0.156,0.349-0.365,0.649-0.633,0.904
			c-0.266,0.258-0.575,0.453-0.928,0.591c-0.351,0.139-0.728,0.205-1.126,0.195c-0.382,0-0.744-0.05-1.095-0.151
			c-0.35-0.1-0.657-0.257-0.928-0.468c-0.268-0.208-0.486-0.469-0.646-0.781c-0.163-0.311-0.246-0.672-0.253-1.084h1.596
			c0.036,0.36,0.173,0.645,0.405,0.857c0.231,0.216,0.528,0.323,0.887,0.323c0.21,0,0.399-0.043,0.566-0.128
			c0.171-0.086,0.313-0.199,0.43-0.34c0.116-0.136,0.206-0.297,0.27-0.481c0.064-0.183,0.097-0.374,0.097-0.567
			c0-0.203-0.03-0.394-0.092-0.575c-0.061-0.179-0.149-0.335-0.27-0.472c-0.119-0.135-0.262-0.239-0.426-0.314
			c-0.166-0.074-0.358-0.114-0.575-0.114c-0.286,0-0.517,0.052-0.697,0.153c-0.178,0.1-0.348,0.26-0.504,0.477h-1.44l0.774-4.351
			h4.397v1.316H143.484z"/>
		<g>
			<path d="M143.484,137.423l-0.317,1.787l0.024,0.022c0.218-0.217,0.448-0.371,0.696-0.465c0.247-0.095,0.527-0.141,0.844-0.141
				c0.39,0,0.734,0.071,1.035,0.214c0.298,0.141,0.552,0.333,0.759,0.573c0.205,0.242,0.363,0.522,0.472,0.849
				c0.11,0.327,0.165,0.674,0.165,1.04c0,0.404-0.081,0.781-0.239,1.13c-0.156,0.349-0.365,0.649-0.633,0.904
				c-0.266,0.258-0.575,0.453-0.928,0.591c-0.351,0.139-0.728,0.205-1.126,0.195c-0.382,0-0.744-0.05-1.095-0.151
				c-0.35-0.1-0.657-0.257-0.928-0.468c-0.268-0.208-0.486-0.469-0.646-0.781c-0.163-0.311-0.246-0.672-0.253-1.084h1.596
				c0.036,0.36,0.173,0.645,0.405,0.857c0.231,0.216,0.528,0.323,0.887,0.323c0.21,0,0.399-0.043,0.566-0.128
				c0.171-0.086,0.313-0.199,0.43-0.34c0.116-0.136,0.206-0.297,0.27-0.481c0.064-0.183,0.097-0.374,0.097-0.567
				c0-0.203-0.03-0.394-0.092-0.575c-0.061-0.179-0.149-0.335-0.27-0.472c-0.119-0.135-0.262-0.239-0.426-0.314
				c-0.166-0.074-0.358-0.114-0.575-0.114c-0.286,0-0.517,0.052-0.697,0.153c-0.178,0.1-0.348,0.26-0.504,0.477h-1.44l0.774-4.351
				h4.397v1.316H143.484z"/>
		</g>
	</g>
	<path d="M84.704,87.37c-1.503,0.633-3.023,0.952-4.558,0.952c-2.418,0-4.596-0.421-6.529-1.261c-1.932-0.841-3.561-2-4.888-3.474
		c-1.327-1.474-2.347-3.208-3.053-5.2c-0.709-1.992-1.063-4.138-1.063-6.439c0-2.36,0.354-4.551,1.063-6.572
		c0.707-2.02,1.726-3.784,3.053-5.288c1.329-1.504,2.958-2.684,4.888-3.54c1.933-0.856,4.11-1.284,6.529-1.284
		c1.622,0,3.194,0.243,4.713,0.73c1.518,0.486,2.891,1.203,4.117,2.147c1.223,0.943,2.234,2.11,3.03,3.495
		c0.797,1.387,1.286,2.98,1.462,4.78h-6.641c-0.413-1.77-1.209-3.098-2.388-3.983c-1.181-0.885-2.613-1.328-4.294-1.328
		c-1.563,0-2.89,0.302-3.983,0.907c-1.09,0.605-1.976,1.417-2.654,2.434c-0.68,1.019-1.172,2.175-1.484,3.474
		c-0.309,1.298-0.465,2.641-0.465,4.027c0,1.327,0.156,2.618,0.465,3.871c0.312,1.255,0.804,2.383,1.484,3.387
		c0.678,1.002,1.563,1.806,2.654,2.411c1.093,0.606,2.42,0.907,3.983,0.907c2.302,0,4.078-0.582,5.334-1.747
		c1.253-1.166,1.983-2.855,2.191-5.067h-6.993v-5.177h13.276v17.082h-4.426l-0.708-3.586C87.581,85.623,86.21,86.736,84.704,87.37"
		/>
	<path d="M84.704,128.536c-1.503,0.634-3.023,0.953-4.558,0.953c-2.418,0-4.596-0.424-6.529-1.262
		c-1.932-0.842-3.561-1.999-4.888-3.476c-1.327-1.473-2.347-3.208-3.053-5.199c-0.709-1.992-1.063-4.139-1.063-6.438
		c0-2.36,0.354-4.552,1.063-6.573c0.707-2.02,1.726-3.783,3.053-5.288c1.329-1.503,2.958-2.684,4.888-3.54
		c1.933-0.855,4.11-1.283,6.529-1.283c1.622,0,3.194,0.244,4.713,0.73c1.518,0.487,2.891,1.203,4.117,2.147
		c1.223,0.943,2.234,2.11,3.03,3.495c0.797,1.388,1.286,2.98,1.462,4.782h-6.641c-0.413-1.771-1.209-3.1-2.388-3.984
		c-1.181-0.885-2.613-1.328-4.294-1.328c-1.563,0-2.89,0.302-3.983,0.907c-1.09,0.604-1.976,1.417-2.654,2.434
		c-0.68,1.019-1.172,2.176-1.484,3.475c-0.309,1.299-0.465,2.641-0.465,4.026c0,1.328,0.156,2.617,0.465,3.871
		c0.312,1.255,0.804,2.384,1.484,3.386c0.678,1.003,1.563,1.807,2.654,2.41c1.093,0.607,2.42,0.908,3.983,0.908
		c2.302,0,4.078-0.581,5.334-1.748c1.253-1.164,1.983-2.854,2.191-5.067h-6.993v-5.177h13.276v17.08h-4.426l-0.708-3.584
		C87.581,126.789,86.21,127.902,84.704,128.536"/>
	<path d="M64.31,142.738h1.631c1.063,0,2.077-0.652,2.077-2.495c0-1.681-0.583-2.754-2.402-2.754H64.31V142.738z M62.479,135.952
		h3.592c2.159,0,3.781,1.353,3.781,4.116c0,2.416-1.238,4.212-3.781,4.212h-3.592V135.952z"/>
	<path d="M79.124,141.515c0,1.108,0.863,1.541,1.845,1.541c0.64,0,1.621-0.186,1.621-1.037c0-0.897-1.248-1.049-2.473-1.376
		c-1.237-0.327-2.483-0.806-2.483-2.368c0-1.703,1.607-2.519,3.112-2.519c1.738,0,3.337,0.759,3.337,2.684h-1.774
		c-0.06-1.005-0.77-1.261-1.643-1.261c-0.584,0-1.259,0.246-1.259,0.944c0,0.639,0.396,0.722,2.482,1.259
		c0.606,0.152,2.473,0.537,2.473,2.426c0,1.529-1.2,2.671-3.465,2.671c-1.841,0-3.568-0.91-3.544-2.963L79.124,141.515
		L79.124,141.515z"/>
	<path d="M101.824,139.253c-0.057-1.868,1.003-3.302,2.964-3.302c1.491,0,2.798,0.956,2.798,2.555c0,1.225-0.653,1.9-1.458,2.474
		c-0.804,0.571-1.759,1.037-2.355,1.877h3.862v1.423h-5.995c0.011-1.89,1.166-2.693,2.579-3.651
		c0.723-0.489,1.701-0.991,1.714-1.995c0-0.77-0.514-1.258-1.224-1.258c-0.982,0-1.297,1.015-1.297,1.878H101.824z"/>
	<path d="M117.864,143.078c1.353,0,1.353-1.995,1.353-2.915c0-0.854,0-2.848-1.353-2.848c-1.33,0-1.33,1.994-1.33,2.848
		C116.534,141.083,116.534,143.078,117.864,143.078 M117.864,135.952c1.633,0,3.01,1.027,3.01,4.211c0,3.253-1.377,4.28-3.01,4.28
		c-1.608,0-2.987-1.027-2.987-4.28C114.877,136.977,116.253,135.952,117.864,135.952"/>
	<path d="M132.445,144.279h-1.657v-5.294h-2.05v-1.247c1.154,0.022,2.217-0.375,2.391-1.622h1.318v8.163H132.445z"/>
</g>
</svg>
